# MagicaVoxel @ Ephtracy

# group
o 

# material
mtllib Michael.mtl
usemtl palette

# normals
vn -1 0 0
vn 1 0 0
vn 0 0 1
vn 0 0 -1
vn 0 -1 0
vn 0 1 0

# texcoords
vt 0.119141 0.5
vt 0.212891 0.5
vt 0.306641 0.5
vt 0.439453 0.5
vt 0.775391 0.5
vt 0.779297 0.5
vt 0.837891 0.5
vt 0.994141 0.5

# verts
v 0.8 4.6 -2.6
v 0.8 4.6 -2.9
v 0.8 4.7 -2.5
v 0.8 4.7 -2.6
v 0.8 4.8 -2.4
v 0.8 4.8 -2.5
v 0.8 4.9 -2.2
v 0.8 4.9 -2.4
v 0.8 5 -1.8
v 0.8 5 -2.2
v 0.8 5.2 -0.9
v 0.8 5.2 -1.8
v 0.8 5.5 -0.8
v 0.8 5.5 -0.9
v 0.8 5.7 -0.8
v 0.8 5.7 -1
v 0.8 5.7 -2.7
v 0.8 5.7 -2.9
v 0.8 6 -1
v 0.8 6 -2.7
v 0.9 2.9 -1.6
v 0.9 2.9 -2.1
v 0.9 3.9 -1.6
v 0.9 3.9 -2.1
v 0.9 4.1 -1
v 0.9 4.1 -2.7
v 0.9 4.4 -0.9
v 0.9 4.4 -1
v 0.9 4.4 -2.7
v 0.9 4.4 -2.8
v 0.9 4.6 -2.6
v 0.9 4.6 -2.8
v 0.9 4.7 -2.5
v 0.9 4.7 -2.6
v 0.9 4.8 -2.4
v 0.9 4.8 -2.5
v 0.9 4.9 -2.2
v 0.9 4.9 -2.4
v 0.9 5 -1.8
v 0.9 5 -2.2
v 0.9 5.2 -0.9
v 0.9 5.2 -1.8
v 1 2.7 -1.7
v 1 2.7 -2
v 1 2.9 -1.7
v 1 2.9 -2
v 1.1 4.1 -0.9
v 1.1 4.1 -1
v 1.1 4.1 -2.7
v 1.1 4.1 -2.8
v 1.1 4.4 -0.9
v 1.1 4.4 -1
v 1.1 4.4 -2.7
v 1.1 4.4 -2.8
v 1.1 5.4 -0.8
v 1.1 5.4 -0.9
v 1.1 5.5 -0.8
v 1.1 5.5 -0.9
v 1.1 5.7 -0.8
v 1.1 5.7 -1
v 1.1 5.7 -2.7
v 1.1 5.7 -2.9
v 1.1 6 -0.8
v 1.1 6 -1
v 1.1 6 -2.7
v 1.1 6 -2.9
v 1.3 2 -1.4
v 1.3 2 -2.3
v 1.3 2.7 -1.7
v 1.3 2.7 -2
v 1.3 2.8 -1.3
v 1.3 2.8 -1.4
v 1.3 2.8 -2.3
v 1.3 2.8 -2.4
v 1.3 2.9 -1.6
v 1.3 2.9 -1.7
v 1.3 2.9 -2
v 1.3 2.9 -2.1
v 1.3 3.9 -1.6
v 1.3 3.9 -2.1
v 1.3 4.1 -1.3
v 1.3 4.1 -2.4
v 2.1 2 -1.4
v 2.1 2 -2.3
v 2.1 2.8 -1.4
v 2.1 2.8 -2.3
v 2.3 5.4 -0.8
v 2.3 5.4 -0.9
v 2.3 5.5 -0.8
v 2.3 5.5 -0.9
v 2.5 5.7 -0.8
v 2.5 5.7 -0.9
v 2.5 5.8 -0.8
v 2.5 5.8 -0.9
v 2.9 5.6 -0.8
v 2.9 5.6 -0.9
v 2.9 5.7 -0.8
v 2.9 5.7 -0.9
v 3 5.5 -0.8
v 3 5.5 -0.9
v 3 5.6 -0.8
v 3 5.6 -0.9
v 1 5.5 -0.8
v 1 5.5 -0.9
v 1 5.6 -0.8
v 1 5.6 -0.9
v 1.1 5.6 -0.8
v 1.1 5.6 -0.9
v 1.1 5.7 -0.8
v 1.1 5.7 -0.9
v 1.5 5.7 -0.8
v 1.5 5.7 -0.9
v 1.5 5.8 -0.8
v 1.5 5.8 -0.9
v 1.7 5.4 -0.8
v 1.7 5.4 -0.9
v 1.7 5.5 -0.8
v 1.7 5.5 -0.9
v 1.9 2 -1.4
v 1.9 2 -2.3
v 1.9 2.8 -1.4
v 1.9 2.8 -2.3
v 2.7 2 -1.4
v 2.7 2 -2.3
v 2.7 2.7 -1.7
v 2.7 2.7 -2
v 2.7 2.8 -1.3
v 2.7 2.8 -1.4
v 2.7 2.8 -2.3
v 2.7 2.8 -2.4
v 2.7 2.9 -1.6
v 2.7 2.9 -1.7
v 2.7 2.9 -2
v 2.7 2.9 -2.1
v 2.7 3.9 -1.6
v 2.7 3.9 -2.1
v 2.7 4.1 -1.3
v 2.7 4.1 -2.4
v 2.9 4.1 -0.9
v 2.9 4.1 -1
v 2.9 4.1 -2.7
v 2.9 4.1 -2.8
v 2.9 4.4 -0.9
v 2.9 4.4 -1
v 2.9 4.4 -2.7
v 2.9 4.4 -2.8
v 2.9 5.4 -0.8
v 2.9 5.4 -0.9
v 2.9 5.5 -0.8
v 2.9 5.5 -0.9
v 2.9 5.7 -0.8
v 2.9 5.7 -1
v 2.9 5.7 -2.7
v 2.9 5.7 -2.9
v 2.9 6 -0.8
v 2.9 6 -1
v 2.9 6 -2.7
v 2.9 6 -2.9
v 3 2.7 -1.7
v 3 2.7 -2
v 3 2.9 -1.7
v 3 2.9 -2
v 3.1 2.9 -1.6
v 3.1 2.9 -2.1
v 3.1 3.9 -1.6
v 3.1 3.9 -2.1
v 3.1 4.1 -1
v 3.1 4.1 -2.7
v 3.1 4.4 -0.9
v 3.1 4.4 -1
v 3.1 4.4 -2.7
v 3.1 4.4 -2.8
v 3.1 4.6 -2.6
v 3.1 4.6 -2.8
v 3.1 4.7 -2.5
v 3.1 4.7 -2.6
v 3.1 4.8 -2.4
v 3.1 4.8 -2.5
v 3.1 4.9 -2.2
v 3.1 4.9 -2.4
v 3.1 5 -1.8
v 3.1 5 -2.2
v 3.1 5.2 -0.9
v 3.1 5.2 -1.8
v 3.2 4.6 -2.6
v 3.2 4.6 -2.9
v 3.2 4.7 -2.5
v 3.2 4.7 -2.6
v 3.2 4.8 -2.4
v 3.2 4.8 -2.5
v 3.2 4.9 -2.2
v 3.2 4.9 -2.4
v 3.2 5 -1.8
v 3.2 5 -2.2
v 3.2 5.2 -0.9
v 3.2 5.2 -1.8
v 3.2 5.5 -0.8
v 3.2 5.5 -0.9
v 3.2 5.7 -0.8
v 3.2 5.7 -1
v 3.2 5.7 -2.7
v 3.2 5.7 -2.9
v 3.2 6 -1
v 3.2 6 -2.7
v 0.8 5.5 -0.8
v 0.8 5.7 -0.8
v 1 5.5 -0.8
v 1 5.6 -0.8
v 1.1 5.4 -0.8
v 1.1 5.5 -0.8
v 1.1 5.6 -0.8
v 1.1 5.7 -0.8
v 1.1 6 -0.8
v 1.5 5.7 -0.8
v 1.5 5.8 -0.8
v 1.7 5.4 -0.8
v 1.7 5.5 -0.8
v 2.3 5.4 -0.8
v 2.3 5.5 -0.8
v 2.5 5.7 -0.8
v 2.5 5.8 -0.8
v 2.9 5.4 -0.8
v 2.9 5.5 -0.8
v 2.9 5.6 -0.8
v 2.9 5.7 -0.8
v 2.9 6 -0.8
v 3 5.5 -0.8
v 3 5.6 -0.8
v 3.2 5.5 -0.8
v 3.2 5.7 -0.8
v 0.8 5.2 -0.9
v 0.8 5.5 -0.9
v 0.9 4.4 -0.9
v 0.9 5.2 -0.9
v 1 5.2 -0.9
v 1 5.5 -0.9
v 1 5.6 -0.9
v 1.1 4.1 -0.9
v 1.1 4.4 -0.9
v 1.1 5.4 -0.9
v 1.1 5.5 -0.9
v 1.1 5.6 -0.9
v 1.1 5.7 -0.9
v 1.3 5.6 -0.9
v 1.3 5.7 -0.9
v 1.4 5.1 -0.9
v 1.4 5.3 -0.9
v 1.5 4.6 -0.9
v 1.5 4.7 -0.9
v 1.5 5.7 -0.9
v 1.5 5.8 -0.9
v 1.6 4.5 -0.9
v 1.6 4.6 -0.9
v 1.6 4.7 -0.9
v 1.6 5.1 -0.9
v 1.6 5.3 -0.9
v 1.7 5.4 -0.9
v 1.7 5.5 -0.9
v 2.3 5.4 -0.9
v 2.3 5.5 -0.9
v 2.4 4.5 -0.9
v 2.4 4.6 -0.9
v 2.4 4.7 -0.9
v 2.4 5.1 -0.9
v 2.4 5.3 -0.9
v 2.5 4.6 -0.9
v 2.5 4.7 -0.9
v 2.5 5.7 -0.9
v 2.5 5.8 -0.9
v 2.6 5.1 -0.9
v 2.6 5.3 -0.9
v 2.7 5.6 -0.9
v 2.7 5.7 -0.9
v 2.9 4.1 -0.9
v 2.9 4.4 -0.9
v 2.9 5.4 -0.9
v 2.9 5.5 -0.9
v 2.9 5.6 -0.9
v 2.9 5.7 -0.9
v 3 5.2 -0.9
v 3 5.5 -0.9
v 3 5.6 -0.9
v 3.1 4.4 -0.9
v 3.1 5.2 -0.9
v 3.2 5.2 -0.9
v 3.2 5.5 -0.9
v 0.8 5.7 -1
v 0.8 6 -1
v 0.9 4.1 -1
v 0.9 4.4 -1
v 1.1 4.1 -1
v 1.1 4.4 -1
v 1.1 5.7 -1
v 1.1 6 -1
v 2.9 4.1 -1
v 2.9 4.4 -1
v 2.9 5.7 -1
v 2.9 6 -1
v 3.1 4.1 -1
v 3.1 4.4 -1
v 3.2 5.7 -1
v 3.2 6 -1
v 1.3 2.8 -1.3
v 1.3 4.1 -1.3
v 1.6 3.8 -1.3
v 1.6 4.1 -1.3
v 1.7 3.6 -1.3
v 1.7 3.8 -1.3
v 1.8 3.4 -1.3
v 1.8 3.6 -1.3
v 1.8 4 -1.3
v 1.8 4.1 -1.3
v 1.9 3.3 -1.3
v 1.9 3.4 -1.3
v 1.9 4 -1.3
v 2.1 3.3 -1.3
v 2.1 3.4 -1.3
v 2.1 4 -1.3
v 2.2 3.4 -1.3
v 2.2 3.6 -1.3
v 2.2 4 -1.3
v 2.2 4.1 -1.3
v 2.3 3.6 -1.3
v 2.3 3.8 -1.3
v 2.4 3.8 -1.3
v 2.4 4.1 -1.3
v 2.7 2.8 -1.3
v 2.7 4.1 -1.3
v 1.3 2 -1.4
v 1.3 2.8 -1.4
v 1.9 2 -1.4
v 1.9 2.8 -1.4
v 2.1 2 -1.4
v 2.1 2.8 -1.4
v 2.7 2 -1.4
v 2.7 2.8 -1.4
v 0.9 2.9 -1.6
v 0.9 3.9 -1.6
v 1.3 2.9 -1.6
v 1.3 3.9 -1.6
v 2.7 2.9 -1.6
v 2.7 3.9 -1.6
v 3.1 2.9 -1.6
v 3.1 3.9 -1.6
v 1 2.7 -1.7
v 1 2.9 -1.7
v 1.3 2.7 -1.7
v 1.3 2.9 -1.7
v 2.7 2.7 -1.7
v 2.7 2.9 -1.7
v 3 2.7 -1.7
v 3 2.9 -1.7
v 0.8 5 -1.8
v 0.8 5.2 -1.8
v 0.9 5 -1.8
v 0.9 5.2 -1.8
v 3.1 5 -1.8
v 3.1 5.2 -1.8
v 3.2 5 -1.8
v 3.2 5.2 -1.8
v 0.8 4.9 -2.2
v 0.8 5 -2.2
v 0.9 4.9 -2.2
v 0.9 5 -2.2
v 3.1 4.9 -2.2
v 3.1 5 -2.2
v 3.2 4.9 -2.2
v 3.2 5 -2.2
v 0.8 4.8 -2.4
v 0.8 4.9 -2.4
v 0.9 4.8 -2.4
v 0.9 4.9 -2.4
v 3.1 4.8 -2.4
v 3.1 4.9 -2.4
v 3.2 4.8 -2.4
v 3.2 4.9 -2.4
v 0.8 4.7 -2.5
v 0.8 4.8 -2.5
v 0.9 4.7 -2.5
v 0.9 4.8 -2.5
v 3.1 4.7 -2.5
v 3.1 4.8 -2.5
v 3.2 4.7 -2.5
v 3.2 4.8 -2.5
v 0.8 4.6 -2.6
v 0.8 4.7 -2.6
v 0.9 4.6 -2.6
v 0.9 4.7 -2.6
v 3.1 4.6 -2.6
v 3.1 4.7 -2.6
v 3.2 4.6 -2.6
v 3.2 4.7 -2.6
v 1 2.7 -2
v 1 2.9 -2
v 1.3 2.7 -2
v 1.3 2.9 -2
v 2.7 2.7 -2
v 2.7 2.9 -2
v 3 2.7 -2
v 3 2.9 -2
v 0.9 2.9 -2.1
v 0.9 3.9 -2.1
v 1.3 2.9 -2.1
v 1.3 3.9 -2.1
v 2.7 2.9 -2.1
v 2.7 3.9 -2.1
v 3.1 2.9 -2.1
v 3.1 3.9 -2.1
v 1.3 2 -2.3
v 1.3 2.8 -2.3
v 1.9 2 -2.3
v 1.9 2.8 -2.3
v 2.1 2 -2.3
v 2.1 2.8 -2.3
v 2.7 2 -2.3
v 2.7 2.8 -2.3
v 1.3 2.8 -2.4
v 1.3 4.1 -2.4
v 2.7 2.8 -2.4
v 2.7 4.1 -2.4
v 0.8 5.7 -2.7
v 0.8 6 -2.7
v 0.9 4.1 -2.7
v 0.9 4.4 -2.7
v 1.1 4.1 -2.7
v 1.1 4.4 -2.7
v 1.1 5.7 -2.7
v 1.1 6 -2.7
v 2.9 4.1 -2.7
v 2.9 4.4 -2.7
v 2.9 5.7 -2.7
v 2.9 6 -2.7
v 3.1 4.1 -2.7
v 3.1 4.4 -2.7
v 3.2 5.7 -2.7
v 3.2 6 -2.7
v 0.9 4.4 -2.8
v 0.9 4.6 -2.8
v 1.1 4.1 -2.8
v 1.1 4.4 -2.8
v 2.9 4.1 -2.8
v 2.9 4.4 -2.8
v 3.1 4.4 -2.8
v 3.1 4.6 -2.8
v 0.8 4.6 -2.9
v 0.8 5.7 -2.9
v 1.1 5.7 -2.9
v 1.1 6 -2.9
v 2.9 5.7 -2.9
v 2.9 6 -2.9
v 3.2 4.6 -2.9
v 3.2 5.7 -2.9
v 1.3 2 -1.4
v 1.9 2 -1.4
v 2.1 2 -1.4
v 2.7 2 -1.4
v 1.3 2 -2.3
v 1.9 2 -2.3
v 2.1 2 -2.3
v 2.7 2 -2.3
v 1 2.7 -1.7
v 1.3 2.7 -1.7
v 2.7 2.7 -1.7
v 3 2.7 -1.7
v 1 2.7 -2
v 1.3 2.7 -2
v 2.7 2.7 -2
v 3 2.7 -2
v 1.3 2.8 -1.3
v 2.7 2.8 -1.3
v 1.3 2.8 -1.4
v 1.9 2.8 -1.4
v 2.1 2.8 -1.4
v 2.7 2.8 -1.4
v 1.3 2.8 -2.3
v 1.9 2.8 -2.3
v 2.1 2.8 -2.3
v 2.7 2.8 -2.3
v 1.3 2.8 -2.4
v 2.7 2.8 -2.4
v 0.9 2.9 -1.6
v 1.3 2.9 -1.6
v 2.7 2.9 -1.6
v 3.1 2.9 -1.6
v 1 2.9 -1.7
v 1.3 2.9 -1.7
v 2.7 2.9 -1.7
v 3 2.9 -1.7
v 1 2.9 -2
v 1.3 2.9 -2
v 2.7 2.9 -2
v 3 2.9 -2
v 0.9 2.9 -2.1
v 1.3 2.9 -2.1
v 2.7 2.9 -2.1
v 3.1 2.9 -2.1
v 1.1 4.1 -0.9
v 2.9 4.1 -0.9
v 0.9 4.1 -1
v 1.1 4.1 -1
v 2.9 4.1 -1
v 3.1 4.1 -1
v 1.3 4.1 -1.3
v 1.6 4.1 -1.3
v 1.8 4.1 -1.3
v 2.2 4.1 -1.3
v 2.4 4.1 -1.3
v 2.7 4.1 -1.3
v 1.3 4.1 -2.4
v 2.7 4.1 -2.4
v 0.9 4.1 -2.7
v 1.1 4.1 -2.7
v 2.9 4.1 -2.7
v 3.1 4.1 -2.7
v 1.1 4.1 -2.8
v 2.9 4.1 -2.8
v 0.9 4.4 -0.9
v 1.1 4.4 -0.9
v 2.9 4.4 -0.9
v 3.1 4.4 -0.9
v 0.9 4.4 -1
v 1.1 4.4 -1
v 2.9 4.4 -1
v 3.1 4.4 -1
v 0.9 4.4 -2.7
v 1.1 4.4 -2.7
v 2.9 4.4 -2.7
v 3.1 4.4 -2.7
v 0.9 4.4 -2.8
v 1.1 4.4 -2.8
v 2.9 4.4 -2.8
v 3.1 4.4 -2.8
v 0.8 4.6 -2.6
v 0.9 4.6 -2.6
v 3.1 4.6 -2.6
v 3.2 4.6 -2.6
v 0.9 4.6 -2.8
v 3.1 4.6 -2.8
v 0.8 4.6 -2.9
v 3.2 4.6 -2.9
v 0.8 4.7 -2.5
v 0.9 4.7 -2.5
v 3.1 4.7 -2.5
v 3.2 4.7 -2.5
v 0.8 4.7 -2.6
v 0.9 4.7 -2.6
v 3.1 4.7 -2.6
v 3.2 4.7 -2.6
v 0.8 4.8 -2.4
v 0.9 4.8 -2.4
v 3.1 4.8 -2.4
v 3.2 4.8 -2.4
v 0.8 4.8 -2.5
v 0.9 4.8 -2.5
v 3.1 4.8 -2.5
v 3.2 4.8 -2.5
v 0.8 4.9 -2.2
v 0.9 4.9 -2.2
v 3.1 4.9 -2.2
v 3.2 4.9 -2.2
v 0.8 4.9 -2.4
v 0.9 4.9 -2.4
v 3.1 4.9 -2.4
v 3.2 4.9 -2.4
v 0.8 5 -1.8
v 0.9 5 -1.8
v 3.1 5 -1.8
v 3.2 5 -1.8
v 0.8 5 -2.2
v 0.9 5 -2.2
v 3.1 5 -2.2
v 3.2 5 -2.2
v 0.8 5.2 -0.9
v 0.9 5.2 -0.9
v 3.1 5.2 -0.9
v 3.2 5.2 -0.9
v 0.8 5.2 -1.8
v 0.9 5.2 -1.8
v 3.1 5.2 -1.8
v 3.2 5.2 -1.8
v 1.1 5.4 -0.8
v 1.7 5.4 -0.8
v 2.3 5.4 -0.8
v 2.9 5.4 -0.8
v 1.1 5.4 -0.9
v 1.7 5.4 -0.9
v 2.3 5.4 -0.9
v 2.9 5.4 -0.9
v 0.8 5.5 -0.8
v 1 5.5 -0.8
v 3 5.5 -0.8
v 3.2 5.5 -0.8
v 0.8 5.5 -0.9
v 1 5.5 -0.9
v 3 5.5 -0.9
v 3.2 5.5 -0.9
v 1 5.6 -0.8
v 1.1 5.6 -0.8
v 2.9 5.6 -0.8
v 3 5.6 -0.8
v 1 5.6 -0.9
v 1.1 5.6 -0.9
v 2.9 5.6 -0.9
v 3 5.6 -0.9
v 1.1 5.7 -0.8
v 1.5 5.7 -0.8
v 2.5 5.7 -0.8
v 2.9 5.7 -0.8
v 1.1 5.7 -0.9
v 1.3 5.7 -0.9
v 1.5 5.7 -0.9
v 2.5 5.7 -0.9
v 2.7 5.7 -0.9
v 2.9 5.7 -0.9
v 1.5 5.8 -0.8
v 2.5 5.8 -0.8
v 1.5 5.8 -0.9
v 2.5 5.8 -0.9
v 0.9 3.9 -1.6
v 1.3 3.9 -1.6
v 2.7 3.9 -1.6
v 3.1 3.9 -1.6
v 0.9 3.9 -2.1
v 1.3 3.9 -2.1
v 2.7 3.9 -2.1
v 3.1 3.9 -2.1
v 1.1 5.5 -0.8
v 1.7 5.5 -0.8
v 2.3 5.5 -0.8
v 2.9 5.5 -0.8
v 1.1 5.5 -0.9
v 1.7 5.5 -0.9
v 2.3 5.5 -0.9
v 2.9 5.5 -0.9
v 0.8 5.7 -0.8
v 1.1 5.7 -0.8
v 2.9 5.7 -0.8
v 3.2 5.7 -0.8
v 0.8 5.7 -1
v 1.1 5.7 -1
v 2.9 5.7 -1
v 3.2 5.7 -1
v 0.8 5.7 -2.7
v 1.1 5.7 -2.7
v 2.9 5.7 -2.7
v 3.2 5.7 -2.7
v 0.8 5.7 -2.9
v 1.1 5.7 -2.9
v 2.9 5.7 -2.9
v 3.2 5.7 -2.9
v 1.1 6 -0.8
v 2.9 6 -0.8
v 0.8 6 -1
v 1.1 6 -1
v 2.9 6 -1
v 3.2 6 -1
v 0.8 6 -2.7
v 1.1 6 -2.7
v 2.9 6 -2.7
v 3.2 6 -2.7
v 1.1 6 -2.9
v 2.9 6 -2.9

# faces
f 4/1/1 2/1/1 1/1/1
f 6/1/1 4/1/1 3/1/1
f 8/1/1 6/1/1 5/1/1
f 10/1/1 8/1/1 7/1/1
f 12/1/1 10/1/1 9/1/1
f 14/1/1 12/1/1 11/1/1
f 15/1/1 14/1/1 13/1/1
f 16/1/1 12/1/1 14/1/1
f 16/1/1 14/1/1 15/1/1
f 17/1/1 2/1/1 4/1/1
f 17/1/1 12/1/1 16/1/1
f 17/1/1 4/1/1 6/1/1
f 17/1/1 6/1/1 8/1/1
f 17/1/1 8/1/1 10/1/1
f 17/1/1 10/1/1 12/1/1
f 18/1/1 2/1/1 17/1/1
f 19/1/1 17/1/1 16/1/1
f 20/1/1 17/1/1 19/1/1
f 23/5/1 22/5/1 21/5/1
f 24/5/1 22/5/1 23/5/1
f 28/4/1 26/4/1 25/4/1
f 29/4/1 26/4/1 28/4/1
f 31/4/1 28/4/1 27/4/1
f 31/4/1 30/4/1 29/4/1
f 31/4/1 29/4/1 28/4/1
f 32/4/1 30/4/1 31/4/1
f 33/4/1 31/4/1 27/4/1
f 34/4/1 31/4/1 33/4/1
f 35/4/1 33/4/1 27/4/1
f 36/4/1 33/4/1 35/4/1
f 37/4/1 35/4/1 27/4/1
f 38/4/1 35/4/1 37/4/1
f 39/4/1 37/4/1 27/4/1
f 40/4/1 37/4/1 39/4/1
f 41/4/1 39/4/1 27/4/1
f 42/4/1 39/4/1 41/4/1
f 45/4/1 44/4/1 43/4/1
f 46/4/1 44/4/1 45/4/1
f 51/4/1 48/4/1 47/4/1
f 52/4/1 48/4/1 51/4/1
f 53/4/1 50/4/1 49/4/1
f 54/4/1 50/4/1 53/4/1
f 57/8/1 56/8/1 55/8/1
f 58/8/1 56/8/1 57/8/1
f 63/1/1 60/1/1 59/1/1
f 64/1/1 60/1/1 63/1/1
f 65/1/1 62/1/1 61/1/1
f 66/1/1 62/1/1 65/1/1
f 69/5/1 68/5/1 67/5/1
f 70/5/1 68/5/1 69/5/1
f 72/5/1 69/5/1 67/5/1
f 73/5/1 68/5/1 70/5/1
f 75/5/1 72/5/1 71/5/1
f 75/5/1 69/5/1 72/5/1
f 76/5/1 69/5/1 75/5/1
f 77/5/1 74/5/1 73/5/1
f 77/5/1 73/5/1 70/5/1
f 78/5/1 74/5/1 77/5/1
f 79/5/1 75/5/1 71/5/1
f 80/5/1 74/5/1 78/5/1
f 81/5/1 79/5/1 71/5/1
f 81/5/1 80/5/1 79/5/1
f 82/5/1 74/5/1 80/5/1
f 82/5/1 80/5/1 81/5/1
f 85/5/1 84/5/1 83/5/1
f 86/5/1 84/5/1 85/5/1
f 89/8/1 88/8/1 87/8/1
f 90/8/1 88/8/1 89/8/1
f 93/1/1 92/1/1 91/1/1
f 94/1/1 92/1/1 93/1/1
f 97/1/1 96/1/1 95/1/1
f 98/1/1 96/1/1 97/1/1
f 101/1/1 100/1/1 99/1/1
f 102/1/1 100/1/1 101/1/1
f 103/1/2 104/1/2 105/1/2
f 105/1/2 104/1/2 106/1/2
f 107/1/2 108/1/2 109/1/2
f 109/1/2 108/1/2 110/1/2
f 111/1/2 112/1/2 113/1/2
f 113/1/2 112/1/2 114/1/2
f 115/8/2 116/8/2 117/8/2
f 117/8/2 116/8/2 118/8/2
f 119/5/2 120/5/2 121/5/2
f 121/5/2 120/5/2 122/5/2
f 123/5/2 124/5/2 125/5/2
f 125/5/2 124/5/2 126/5/2
f 123/5/2 125/5/2 128/5/2
f 126/5/2 124/5/2 129/5/2
f 127/5/2 128/5/2 131/5/2
f 128/5/2 125/5/2 131/5/2
f 131/5/2 125/5/2 132/5/2
f 129/5/2 130/5/2 133/5/2
f 126/5/2 129/5/2 133/5/2
f 133/5/2 130/5/2 134/5/2
f 127/5/2 131/5/2 135/5/2
f 134/5/2 130/5/2 136/5/2
f 127/5/2 135/5/2 137/5/2
f 135/5/2 136/5/2 137/5/2
f 136/5/2 130/5/2 138/5/2
f 137/5/2 136/5/2 138/5/2
f 139/4/2 140/4/2 143/4/2
f 143/4/2 140/4/2 144/4/2
f 141/4/2 142/4/2 145/4/2
f 145/4/2 142/4/2 146/4/2
f 147/8/2 148/8/2 149/8/2
f 149/8/2 148/8/2 150/8/2
f 151/1/2 152/1/2 155/1/2
f 155/1/2 152/1/2 156/1/2
f 153/1/2 154/1/2 157/1/2
f 157/1/2 154/1/2 158/1/2
f 159/4/2 160/4/2 161/4/2
f 161/4/2 160/4/2 162/4/2
f 163/5/2 164/5/2 165/5/2
f 165/5/2 164/5/2 166/5/2
f 167/4/2 168/4/2 170/4/2
f 170/4/2 168/4/2 171/4/2
f 169/4/2 170/4/2 173/4/2
f 171/4/2 172/4/2 173/4/2
f 170/4/2 171/4/2 173/4/2
f 173/4/2 172/4/2 174/4/2
f 169/4/2 173/4/2 175/4/2
f 175/4/2 173/4/2 176/4/2
f 169/4/2 175/4/2 177/4/2
f 177/4/2 175/4/2 178/4/2
f 169/4/2 177/4/2 179/4/2
f 179/4/2 177/4/2 180/4/2
f 169/4/2 179/4/2 181/4/2
f 181/4/2 179/4/2 182/4/2
f 169/4/2 181/4/2 183/4/2
f 183/4/2 181/4/2 184/4/2
f 185/1/2 186/1/2 188/1/2
f 187/1/2 188/1/2 190/1/2
f 189/1/2 190/1/2 192/1/2
f 191/1/2 192/1/2 194/1/2
f 193/1/2 194/1/2 196/1/2
f 195/1/2 196/1/2 198/1/2
f 197/1/2 198/1/2 199/1/2
f 198/1/2 196/1/2 200/1/2
f 199/1/2 198/1/2 200/1/2
f 188/1/2 186/1/2 201/1/2
f 200/1/2 196/1/2 201/1/2
f 190/1/2 188/1/2 201/1/2
f 192/1/2 190/1/2 201/1/2
f 194/1/2 192/1/2 201/1/2
f 196/1/2 194/1/2 201/1/2
f 201/1/2 186/1/2 202/1/2
f 200/1/2 201/1/2 203/1/2
f 203/1/2 201/1/2 204/1/2
f 207/1/3 206/1/3 205/1/3
f 208/1/3 206/1/3 207/1/3
f 211/1/3 206/1/3 208/1/3
f 212/1/3 206/1/3 211/1/3
f 214/1/3 213/1/3 212/1/3
f 215/1/3 213/1/3 214/1/3
f 216/8/3 210/8/3 209/8/3
f 217/8/3 210/8/3 216/8/3
f 221/1/3 213/1/3 215/1/3
f 222/8/3 219/8/3 218/8/3
f 223/8/3 219/8/3 222/8/3
f 225/1/3 221/1/3 220/1/3
f 226/1/3 213/1/3 221/1/3
f 226/1/3 221/1/3 225/1/3
f 228/1/3 225/1/3 224/1/3
f 229/1/3 228/1/3 227/1/3
f 230/1/3 225/1/3 228/1/3
f 230/1/3 228/1/3 229/1/3
f 234/1/3 232/1/3 231/1/3
f 235/1/3 232/1/3 234/1/3
f 235/4/3 234/4/3 233/4/3
f 236/1/3 232/1/3 235/1/3
f 239/4/3 235/4/3 233/4/3
f 239/4/3 237/4/3 236/4/3
f 239/4/3 236/4/3 235/4/3
f 240/4/3 237/4/3 239/4/3
f 241/4/3 237/4/3 240/4/3
f 242/4/3 237/4/3 241/4/3
f 244/1/3 243/1/3 242/1/3
f 244/4/3 242/4/3 241/4/3
f 245/1/3 243/1/3 244/1/3
f 246/4/3 239/4/3 238/4/3
f 246/4/3 240/4/3 239/4/3
f 247/4/3 240/4/3 246/4/3
f 248/4/3 246/4/3 238/4/3
f 249/4/3 246/4/3 248/4/3
f 250/4/3 245/4/3 244/4/3
f 252/4/3 248/4/3 238/4/3
f 253/2/3 249/2/3 248/2/3
f 253/4/3 248/4/3 252/4/3
f 254/4/3 246/4/3 249/4/3
f 254/2/3 249/2/3 253/2/3
f 255/8/3 247/8/3 246/8/3
f 255/4/3 246/4/3 254/4/3
f 256/4/3 240/4/3 247/4/3
f 256/8/3 247/8/3 255/8/3
f 257/4/3 255/4/3 254/4/3
f 257/4/3 240/4/3 256/4/3
f 257/4/3 256/4/3 255/4/3
f 257/4/3 254/4/3 253/4/3
f 258/4/3 250/4/3 244/4/3
f 258/4/3 244/4/3 241/4/3
f 258/4/3 251/4/3 250/4/3
f 259/4/3 257/4/3 253/4/3
f 259/4/3 258/4/3 257/4/3
f 260/4/3 251/4/3 258/4/3
f 260/4/3 258/4/3 259/4/3
f 261/2/3 253/2/3 252/2/3
f 261/4/3 252/4/3 238/4/3
f 262/4/3 259/4/3 253/4/3
f 262/2/3 253/2/3 261/2/3
f 263/4/3 259/4/3 262/4/3
f 264/4/3 259/4/3 263/4/3
f 265/4/3 259/4/3 264/4/3
f 266/4/3 262/4/3 261/4/3
f 266/2/3 263/2/3 262/2/3
f 267/4/3 264/4/3 263/4/3
f 267/2/3 263/2/3 266/2/3
f 268/4/3 251/4/3 260/4/3
f 269/4/3 251/4/3 268/4/3
f 270/4/3 264/4/3 267/4/3
f 270/8/3 265/8/3 264/8/3
f 270/4/3 267/4/3 266/4/3
f 271/4/3 259/4/3 265/4/3
f 271/8/3 265/8/3 270/8/3
f 272/4/3 268/4/3 260/4/3
f 273/4/3 268/4/3 272/4/3
f 274/4/3 261/4/3 238/4/3
f 274/4/3 270/4/3 266/4/3
f 274/4/3 266/4/3 261/4/3
f 274/4/3 271/4/3 270/4/3
f 275/4/3 271/4/3 274/4/3
f 276/4/3 259/4/3 271/4/3
f 276/4/3 271/4/3 275/4/3
f 277/4/3 272/4/3 260/4/3
f 278/1/3 273/1/3 272/1/3
f 278/4/3 272/4/3 277/4/3
f 279/1/3 273/1/3 278/1/3
f 280/4/3 277/4/3 276/4/3
f 280/4/3 278/4/3 277/4/3
f 280/4/3 276/4/3 275/4/3
f 281/4/3 278/4/3 280/4/3
f 282/4/3 278/4/3 281/4/3
f 283/4/3 280/4/3 275/4/3
f 284/1/3 281/1/3 280/1/3
f 284/4/3 280/4/3 283/4/3
f 285/1/3 281/1/3 284/1/3
f 286/1/3 281/1/3 285/1/3
f 291/4/3 290/4/3 289/4/3
f 292/4/3 290/4/3 291/4/3
f 293/1/3 288/1/3 287/1/3
f 294/1/3 288/1/3 293/1/3
f 299/4/3 296/4/3 295/4/3
f 300/4/3 296/4/3 299/4/3
f 301/1/3 298/1/3 297/1/3
f 302/1/3 298/1/3 301/1/3
f 305/5/3 304/5/3 303/5/3
f 306/5/3 304/5/3 305/5/3
f 307/5/3 305/5/3 303/5/3
f 308/6/3 306/6/3 305/6/3
f 308/5/3 305/5/3 307/5/3
f 309/5/3 307/5/3 303/5/3
f 310/6/3 308/6/3 307/6/3
f 310/5/3 307/5/3 309/5/3
f 311/6/3 306/6/3 308/6/3
f 311/6/3 308/6/3 310/6/3
f 312/6/3 306/6/3 311/6/3
f 313/5/3 309/5/3 303/5/3
f 314/6/3 310/6/3 309/6/3
f 314/5/3 309/5/3 313/5/3
f 314/6/3 311/6/3 310/6/3
f 315/7/3 312/7/3 311/7/3
f 315/6/3 311/6/3 314/6/3
f 316/5/3 313/5/3 303/5/3
f 316/7/3 314/7/3 313/7/3
f 316/7/3 315/7/3 314/7/3
f 317/7/3 315/7/3 316/7/3
f 318/7/3 312/7/3 315/7/3
f 318/7/3 315/7/3 317/7/3
f 319/5/3 317/5/3 316/5/3
f 319/6/3 318/6/3 317/6/3
f 320/6/3 318/6/3 319/6/3
f 321/7/3 312/7/3 318/7/3
f 321/6/3 318/6/3 320/6/3
f 322/7/3 312/7/3 321/7/3
f 323/5/3 320/5/3 319/5/3
f 323/6/3 321/6/3 320/6/3
f 323/6/3 322/6/3 321/6/3
f 324/6/3 322/6/3 323/6/3
f 325/5/3 324/5/3 323/5/3
f 325/6/3 322/6/3 324/6/3
f 326/6/3 322/6/3 325/6/3
f 327/5/3 316/5/3 303/5/3
f 327/5/3 319/5/3 316/5/3
f 327/5/3 326/5/3 325/5/3
f 327/5/3 325/5/3 323/5/3
f 327/5/3 323/5/3 319/5/3
f 328/5/3 326/5/3 327/5/3
f 331/5/3 330/5/3 329/5/3
f 332/5/3 330/5/3 331/5/3
f 335/5/3 334/5/3 333/5/3
f 336/5/3 334/5/3 335/5/3
f 339/5/3 338/5/3 337/5/3
f 340/5/3 338/5/3 339/5/3
f 343/5/3 342/5/3 341/5/3
f 344/5/3 342/5/3 343/5/3
f 347/4/3 346/4/3 345/4/3
f 348/4/3 346/4/3 347/4/3
f 351/4/3 350/4/3 349/4/3
f 352/4/3 350/4/3 351/4/3
f 355/1/3 354/1/3 353/1/3
f 356/1/3 354/1/3 355/1/3
f 359/1/3 358/1/3 357/1/3
f 360/1/3 358/1/3 359/1/3
f 363/1/3 362/1/3 361/1/3
f 364/1/3 362/1/3 363/1/3
f 367/1/3 366/1/3 365/1/3
f 368/1/3 366/1/3 367/1/3
f 371/1/3 370/1/3 369/1/3
f 372/1/3 370/1/3 371/1/3
f 375/1/3 374/1/3 373/1/3
f 376/1/3 374/1/3 375/1/3
f 379/1/3 378/1/3 377/1/3
f 380/1/3 378/1/3 379/1/3
f 383/1/3 382/1/3 381/1/3
f 384/1/3 382/1/3 383/1/3
f 387/1/3 386/1/3 385/1/3
f 388/1/3 386/1/3 387/1/3
f 391/1/3 390/1/3 389/1/3
f 392/1/3 390/1/3 391/1/3
f 393/4/4 394/4/4 395/4/4
f 395/4/4 394/4/4 396/4/4
f 397/4/4 398/4/4 399/4/4
f 399/4/4 398/4/4 400/4/4
f 401/5/4 402/5/4 403/5/4
f 403/5/4 402/5/4 404/5/4
f 405/5/4 406/5/4 407/5/4
f 407/5/4 406/5/4 408/5/4
f 409/5/4 410/5/4 411/5/4
f 411/5/4 410/5/4 412/5/4
f 413/5/4 414/5/4 415/5/4
f 415/5/4 414/5/4 416/5/4
f 417/5/4 418/5/4 419/5/4
f 419/5/4 418/5/4 420/5/4
f 423/4/4 424/4/4 425/4/4
f 425/4/4 424/4/4 426/4/4
f 421/1/4 422/1/4 427/1/4
f 427/1/4 422/1/4 428/1/4
f 429/4/4 430/4/4 433/4/4
f 433/4/4 430/4/4 434/4/4
f 431/1/4 432/1/4 435/1/4
f 435/1/4 432/1/4 436/1/4
f 437/4/4 438/4/4 440/4/4
f 439/4/4 440/4/4 441/4/4
f 440/4/4 438/4/4 442/4/4
f 441/4/4 440/4/4 442/4/4
f 442/4/4 438/4/4 443/4/4
f 443/4/4 438/4/4 444/4/4
f 445/1/4 446/1/4 447/1/4
f 445/1/4 447/1/4 449/1/4
f 447/1/4 448/1/4 449/1/4
f 449/1/4 448/1/4 450/1/4
f 445/1/4 449/1/4 451/1/4
f 451/1/4 449/1/4 452/1/4
f 457/5/5 454/5/5 453/5/5
f 458/5/5 454/5/5 457/5/5
f 459/5/5 456/5/5 455/5/5
f 460/5/5 456/5/5 459/5/5
f 465/4/5 462/4/5 461/4/5
f 466/4/5 462/4/5 465/4/5
f 467/4/5 464/4/5 463/4/5
f 468/4/5 464/4/5 467/4/5
f 471/5/5 470/5/5 469/5/5
f 472/5/5 470/5/5 471/5/5
f 473/5/5 470/5/5 472/5/5
f 474/5/5 470/5/5 473/5/5
f 476/5/5 473/5/5 472/5/5
f 477/5/5 473/5/5 476/5/5
f 479/5/5 476/5/5 475/5/5
f 479/5/5 478/5/5 477/5/5
f 479/5/5 477/5/5 476/5/5
f 480/5/5 478/5/5 479/5/5
f 485/5/5 482/5/5 481/5/5
f 486/5/5 482/5/5 485/5/5
f 487/5/5 484/5/5 483/5/5
f 488/5/5 484/5/5 487/5/5
f 489/5/5 485/5/5 481/5/5
f 492/5/5 484/5/5 488/5/5
f 493/5/5 490/5/5 489/5/5
f 493/5/5 489/5/5 481/5/5
f 494/5/5 490/5/5 493/5/5
f 495/5/5 492/5/5 491/5/5
f 496/5/5 484/5/5 492/5/5
f 496/5/5 492/5/5 495/5/5
f 500/4/5 498/4/5 497/4/5
f 501/4/5 498/4/5 500/4/5
f 503/4/5 500/4/5 499/4/5
f 503/4/5 502/4/5 501/4/5
f 503/4/5 501/4/5 500/4/5
f 504/4/5 502/4/5 503/4/5
f 505/4/5 502/4/5 504/4/5
f 506/4/5 502/4/5 505/4/5
f 507/4/5 502/4/5 506/4/5
f 508/4/5 502/4/5 507/4/5
f 509/4/5 503/4/5 499/4/5
f 510/4/5 502/4/5 508/4/5
f 511/4/5 509/4/5 499/4/5
f 511/4/5 510/4/5 509/4/5
f 512/4/5 510/4/5 511/4/5
f 513/4/5 502/4/5 510/4/5
f 513/4/5 510/4/5 512/4/5
f 514/4/5 502/4/5 513/4/5
f 515/4/5 513/4/5 512/4/5
f 516/4/5 513/4/5 515/4/5
f 521/4/5 518/4/5 517/4/5
f 522/4/5 518/4/5 521/4/5
f 523/4/5 520/4/5 519/4/5
f 524/4/5 520/4/5 523/4/5
f 529/4/5 526/4/5 525/4/5
f 530/4/5 526/4/5 529/4/5
f 531/4/5 528/4/5 527/4/5
f 532/4/5 528/4/5 531/4/5
f 537/1/5 534/1/5 533/1/5
f 538/1/5 536/1/5 535/1/5
f 539/1/5 537/1/5 533/1/5
f 539/1/5 538/1/5 537/1/5
f 540/1/5 536/1/5 538/1/5
f 540/1/5 538/1/5 539/1/5
f 545/1/5 542/1/5 541/1/5
f 546/1/5 542/1/5 545/1/5
f 547/1/5 544/1/5 543/1/5
f 548/1/5 544/1/5 547/1/5
f 553/1/5 550/1/5 549/1/5
f 554/1/5 550/1/5 553/1/5
f 555/1/5 552/1/5 551/1/5
f 556/1/5 552/1/5 555/1/5
f 561/1/5 558/1/5 557/1/5
f 562/1/5 558/1/5 561/1/5
f 563/1/5 560/1/5 559/1/5
f 564/1/5 560/1/5 563/1/5
f 569/1/5 566/1/5 565/1/5
f 570/1/5 566/1/5 569/1/5
f 571/1/5 568/1/5 567/1/5
f 572/1/5 568/1/5 571/1/5
f 577/1/5 574/1/5 573/1/5
f 578/1/5 574/1/5 577/1/5
f 579/1/5 576/1/5 575/1/5
f 580/1/5 576/1/5 579/1/5
f 585/8/5 582/8/5 581/8/5
f 586/8/5 582/8/5 585/8/5
f 587/8/5 584/8/5 583/8/5
f 588/8/5 584/8/5 587/8/5
f 593/1/5 590/1/5 589/1/5
f 594/1/5 590/1/5 593/1/5
f 595/1/5 592/1/5 591/1/5
f 596/1/5 592/1/5 595/1/5
f 601/1/5 598/1/5 597/1/5
f 602/1/5 598/1/5 601/1/5
f 603/1/5 600/1/5 599/1/5
f 604/1/5 600/1/5 603/1/5
f 609/1/5 606/1/5 605/1/5
f 610/1/5 606/1/5 609/1/5
f 611/1/5 606/1/5 610/1/5
f 612/1/5 608/1/5 607/1/5
f 613/1/5 608/1/5 612/1/5
f 614/1/5 608/1/5 613/1/5
f 617/1/5 616/1/5 615/1/5
f 618/1/5 616/1/5 617/1/5
f 619/5/6 620/5/6 623/5/6
f 623/5/6 620/5/6 624/5/6
f 621/5/6 622/5/6 625/5/6
f 625/5/6 622/5/6 626/5/6
f 627/8/6 628/8/6 631/8/6
f 631/8/6 628/8/6 632/8/6
f 629/8/6 630/8/6 633/8/6
f 633/8/6 630/8/6 634/8/6
f 635/1/6 636/1/6 639/1/6
f 639/1/6 636/1/6 640/1/6
f 637/1/6 638/1/6 641/1/6
f 641/1/6 638/1/6 642/1/6
f 643/1/6 644/1/6 647/1/6
f 647/1/6 644/1/6 648/1/6
f 645/1/6 646/1/6 649/1/6
f 649/1/6 646/1/6 650/1/6
f 651/1/6 652/1/6 654/1/6
f 654/1/6 652/1/6 655/1/6
f 653/1/6 654/1/6 657/1/6
f 655/1/6 656/1/6 657/1/6
f 654/1/6 655/1/6 657/1/6
f 657/1/6 656/1/6 658/1/6
f 658/1/6 656/1/6 659/1/6
f 659/1/6 656/1/6 660/1/6
f 658/1/6 659/1/6 661/1/6
f 661/1/6 659/1/6 662/1/6
