# MagicaVoxel @ Ephtracy

# group
o 

# material
mtllib cpr-doll.mtl
usemtl palette

# normals
vn -1 0 0
vn 1 0 0
vn 0 0 1
vn 0 0 -1
vn 0 -1 0
vn 0 1 0

# texcoords
vt 0.0566406 0.5
vt 0.251953 0.5
vt 0.314453 0.5
vt 0.958984 0.5
vt 0.994141 0.5

# verts
v 0 2 -0.6
v 0 2 -2.4
v 0 2.1 -0.5
v 0 2.1 -0.6
v 0 2.1 -2.4
v 0 2.1 -2.5
v 0 3.2 -0.5
v 0 3.2 -0.6
v 0 3.2 -2.4
v 0 3.2 -2.5
v 0 3.3 -0.6
v 0 3.3 -2.4
v 3.6 2 -0.7
v 3.6 2 -2.3
v 3.6 2.2 -1
v 3.6 2.2 -2
v 3.6 3 -1
v 3.6 3 -2
v 3.6 3.2 -0.7
v 3.6 3.2 -0.8
v 3.6 3.2 -2.2
v 3.6 3.2 -2.3
v 3.6 3.3 -0.8
v 3.6 3.3 -2.2
v 4 3.2 -1.3
v 4 3.2 -1.7
v 4 3.3 -1.3
v 4 3.3 -1.7
v 3.3 2.1 -0.5
v 3.3 2.1 -0.6
v 3.3 2.1 -2.4
v 3.3 2.1 -2.5
v 3.3 3.2 -0.5
v 3.3 3.2 -0.6
v 3.3 3.2 -0.7
v 3.3 3.2 -2.3
v 3.3 3.2 -2.4
v 3.3 3.2 -2.5
v 3.3 3.3 -0.6
v 3.3 3.3 -0.7
v 3.3 3.3 -2.3
v 3.3 3.3 -2.4
v 3.4 2 -0.6
v 3.4 2 -0.7
v 3.4 2 -0.9
v 3.4 2 -2.1
v 3.4 2 -2.3
v 3.4 2 -2.4
v 3.4 2.2 -1
v 3.4 2.2 -2
v 3.4 3 -1
v 3.4 3 -2
v 3.4 3.1 -0.9
v 3.4 3.1 -2.1
v 3.4 3.2 -0.6
v 3.4 3.2 -0.7
v 3.4 3.2 -2.3
v 3.4 3.2 -2.4
v 3.8 3.2 -1.3
v 3.8 3.2 -1.7
v 3.8 3.3 -1.3
v 3.8 3.3 -1.7
v 4.9 2 -0.7
v 4.9 2 -0.8
v 4.9 2 -2.2
v 4.9 2 -2.3
v 4.9 3.2 -0.7
v 4.9 3.2 -0.8
v 4.9 3.2 -2.2
v 4.9 3.2 -2.3
v 4.9 3.3 -0.8
v 4.9 3.3 -2.2
v 5 2 -0.8
v 5 2 -2.2
v 5 3.2 -0.8
v 5 3.2 -2.2
v 0 2.1 -0.5
v 0 3.2 -0.5
v 2.2 2.1 -0.5
v 2.2 3.2 -0.5
v 3.3 2.1 -0.5
v 3.3 3.2 -0.5
v 0 2 -0.6
v 0 2.1 -0.6
v 0 3.2 -0.6
v 0 3.3 -0.6
v 2.2 2.1 -0.6
v 2.2 3.2 -0.6
v 2.3 2 -0.6
v 2.3 2.1 -0.6
v 2.3 3.2 -0.6
v 2.3 3.3 -0.6
v 3.3 2.1 -0.6
v 3.3 3.2 -0.6
v 3.3 3.3 -0.6
v 3.4 2 -0.6
v 3.4 3.2 -0.6
v 3.6 2 -0.7
v 3.6 3.2 -0.7
v 4 2 -0.7
v 4 2.2 -0.7
v 4.3 2.5 -0.7
v 4.3 3.1 -0.7
v 4.8 2.2 -0.7
v 4.8 2.5 -0.7
v 4.8 3.1 -0.7
v 4.8 3.2 -0.7
v 4.9 2 -0.7
v 4.9 3.2 -0.7
v 3.6 3.2 -0.8
v 3.6 3.3 -0.8
v 4.8 3.2 -0.8
v 4.8 3.3 -0.8
v 4.9 2 -0.8
v 4.9 3.2 -0.8
v 4.9 3.3 -0.8
v 5 2 -0.8
v 5 3.2 -0.8
v 3.4 2.2 -1
v 3.4 3 -1
v 3.6 2.2 -1
v 3.6 3 -1
v 3.8 3.2 -1.7
v 3.8 3.3 -1.7
v 4 3.2 -1.7
v 4 3.3 -1.7
v 3.8 3.2 -1.3
v 3.8 3.3 -1.3
v 4 3.2 -1.3
v 4 3.3 -1.3
v 3.4 2.2 -2
v 3.4 3 -2
v 3.6 2.2 -2
v 3.6 3 -2
v 3.6 3.2 -2.2
v 3.6 3.3 -2.2
v 4.8 3.2 -2.2
v 4.8 3.3 -2.2
v 4.9 2 -2.2
v 4.9 3.2 -2.2
v 4.9 3.3 -2.2
v 5 2 -2.2
v 5 3.2 -2.2
v 3.6 2 -2.3
v 3.6 3.2 -2.3
v 4 2 -2.3
v 4 2.2 -2.3
v 4.3 2.5 -2.3
v 4.3 3.1 -2.3
v 4.8 2.2 -2.3
v 4.8 2.5 -2.3
v 4.8 3.1 -2.3
v 4.8 3.2 -2.3
v 4.9 2 -2.3
v 4.9 3.2 -2.3
v 0 2 -2.4
v 0 2.1 -2.4
v 0 3.2 -2.4
v 0 3.3 -2.4
v 2.2 2.1 -2.4
v 2.2 3.2 -2.4
v 2.3 2 -2.4
v 2.3 2.1 -2.4
v 2.3 3.2 -2.4
v 2.3 3.3 -2.4
v 3.3 2.1 -2.4
v 3.3 3.2 -2.4
v 3.3 3.3 -2.4
v 3.4 2 -2.4
v 3.4 3.2 -2.4
v 0 2.1 -2.5
v 0 3.2 -2.5
v 2.2 2.1 -2.5
v 2.2 3.2 -2.5
v 3.3 2.1 -2.5
v 3.3 3.2 -2.5
v 0 2 -0.6
v 2.3 2 -0.6
v 3.4 2 -0.6
v 2.3 2 -0.7
v 3.4 2 -0.7
v 3.6 2 -0.7
v 4 2 -0.7
v 4.9 2 -0.7
v 4.9 2 -0.8
v 5 2 -0.8
v 3.3 2 -0.9
v 3.4 2 -0.9
v 3.3 2 -2.1
v 3.4 2 -2.1
v 4.9 2 -2.2
v 5 2 -2.2
v 2.3 2 -2.3
v 3.4 2 -2.3
v 3.6 2 -2.3
v 4 2 -2.3
v 4.9 2 -2.3
v 0 2 -2.4
v 2.3 2 -2.4
v 3.4 2 -2.4
v 0 2.1 -0.5
v 2.2 2.1 -0.5
v 3.3 2.1 -0.5
v 0 2.1 -0.6
v 2.2 2.1 -0.6
v 2.3 2.1 -0.6
v 3.3 2.1 -0.6
v 0 2.1 -2.4
v 2.2 2.1 -2.4
v 2.3 2.1 -2.4
v 3.3 2.1 -2.4
v 0 2.1 -2.5
v 2.2 2.1 -2.5
v 3.3 2.1 -2.5
v 3.4 2.2 -1
v 3.6 2.2 -1
v 3.4 2.2 -2
v 3.6 2.2 -2
v 3.4 3 -1
v 3.6 3 -1
v 3.4 3 -2
v 3.6 3 -2
v 0 3.2 -0.5
v 2.2 3.2 -0.5
v 3.3 3.2 -0.5
v 0 3.2 -0.6
v 2.2 3.2 -0.6
v 2.3 3.2 -0.6
v 3.3 3.2 -0.6
v 3.4 3.2 -0.6
v 3.3 3.2 -0.7
v 3.4 3.2 -0.7
v 3.6 3.2 -0.7
v 4.8 3.2 -0.7
v 4.9 3.2 -0.7
v 3.6 3.2 -0.8
v 4.8 3.2 -0.8
v 4.9 3.2 -0.8
v 5 3.2 -0.8
v 3.8 3.2 -1.3
v 4 3.2 -1.3
v 3.8 3.2 -1.7
v 4 3.2 -1.7
v 3.6 3.2 -2.2
v 4.8 3.2 -2.2
v 4.9 3.2 -2.2
v 5 3.2 -2.2
v 3.3 3.2 -2.3
v 3.4 3.2 -2.3
v 3.6 3.2 -2.3
v 4.8 3.2 -2.3
v 4.9 3.2 -2.3
v 0 3.2 -2.4
v 2.2 3.2 -2.4
v 2.3 3.2 -2.4
v 3.3 3.2 -2.4
v 3.4 3.2 -2.4
v 0 3.2 -2.5
v 2.2 3.2 -2.5
v 3.3 3.2 -2.5
v 0 3.3 -0.6
v 2.3 3.3 -0.6
v 3.3 3.3 -0.6
v 2.3 3.3 -0.7
v 3.3 3.3 -0.7
v 3.6 3.3 -0.8
v 4.8 3.3 -0.8
v 4.9 3.3 -0.8
v 4.4 3.3 -1
v 4.6 3.3 -1
v 2.1 3.3 -1.2
v 2.3 3.3 -1.2
v 3.8 3.3 -1.3
v 4 3.3 -1.3
v 4.4 3.3 -1.3
v 4.6 3.3 -1.3
v 1.9 3.3 -1.4
v 2.1 3.3 -1.4
v 2.3 3.3 -1.4
v 2.5 3.3 -1.4
v 1.9 3.3 -1.6
v 2.1 3.3 -1.6
v 2.3 3.3 -1.6
v 2.5 3.3 -1.6
v 3.8 3.3 -1.7
v 4 3.3 -1.7
v 4.4 3.3 -1.7
v 4.6 3.3 -1.7
v 2.1 3.3 -1.8
v 2.3 3.3 -1.8
v 4.4 3.3 -2
v 4.6 3.3 -2
v 3.6 3.3 -2.2
v 4.8 3.3 -2.2
v 4.9 3.3 -2.2
v 2.3 3.3 -2.3
v 3.3 3.3 -2.3
v 0 3.3 -2.4
v 2.3 3.3 -2.4
v 3.3 3.3 -2.4

# faces
f 4/1/1 2/1/1 1/1/1
f 5/1/1 2/1/1 4/1/1
f 7/1/1 4/1/1 3/1/1
f 7/1/1 6/1/1 5/1/1
f 7/1/1 5/1/1 4/1/1
f 8/1/1 6/1/1 7/1/1
f 9/1/1 6/1/1 8/1/1
f 10/1/1 6/1/1 9/1/1
f 11/1/1 9/1/1 8/1/1
f 12/1/1 9/1/1 11/1/1
f 15/3/1 14/3/1 13/3/1
f 16/3/1 14/3/1 15/3/1
f 17/3/1 15/3/1 13/3/1
f 18/3/1 14/3/1 16/3/1
f 19/3/1 17/3/1 13/3/1
f 19/3/1 18/3/1 17/3/1
f 20/3/1 18/3/1 19/3/1
f 21/3/1 14/3/1 18/3/1
f 21/3/1 18/3/1 20/3/1
f 22/3/1 14/3/1 21/3/1
f 23/3/1 21/3/1 20/3/1
f 24/3/1 21/3/1 23/3/1
f 27/3/1 26/3/1 25/3/1
f 28/3/1 26/3/1 27/3/1
f 29/3/2 30/3/2 33/3/2
f 33/3/2 30/3/2 34/3/2
f 31/3/2 32/3/2 37/3/2
f 37/3/2 32/3/2 38/3/2
f 34/3/2 35/3/2 39/3/2
f 35/1/2 36/1/2 40/1/2
f 39/3/2 35/3/2 40/3/2
f 36/3/2 37/3/2 41/3/2
f 40/1/2 36/1/2 41/1/2
f 41/3/2 37/3/2 42/3/2
f 45/3/2 46/3/2 49/3/2
f 49/3/2 46/3/2 50/3/2
f 45/3/2 49/3/2 51/3/2
f 50/3/2 46/3/2 52/3/2
f 44/1/2 45/1/2 53/1/2
f 51/3/2 52/3/2 53/3/2
f 45/3/2 51/3/2 53/3/2
f 52/3/2 46/3/2 54/3/2
f 53/3/2 52/3/2 54/3/2
f 46/1/2 47/1/2 54/1/2
f 43/3/2 44/3/2 55/3/2
f 44/1/2 53/1/2 56/1/2
f 55/3/2 44/3/2 56/3/2
f 53/1/2 54/1/2 56/1/2
f 54/1/2 47/1/2 57/1/2
f 56/1/2 54/1/2 57/1/2
f 47/3/2 48/3/2 57/3/2
f 57/3/2 48/3/2 58/3/2
f 59/3/2 60/3/2 61/3/2
f 61/3/2 60/3/2 62/3/2
f 63/5/2 64/5/2 67/5/2
f 67/5/2 64/5/2 68/5/2
f 65/5/2 66/5/2 69/5/2
f 69/5/2 66/5/2 70/5/2
f 68/5/2 69/5/2 71/5/2
f 71/5/2 69/5/2 72/5/2
f 73/5/2 74/5/2 75/5/2
f 75/5/2 74/5/2 76/5/2
f 79/1/3 78/1/3 77/1/3
f 80/1/3 78/1/3 79/1/3
f 81/3/3 80/3/3 79/3/3
f 82/3/3 80/3/3 81/3/3
f 87/1/3 84/1/3 83/1/3
f 88/1/3 86/1/3 85/1/3
f 89/1/3 87/1/3 83/1/3
f 90/1/3 87/1/3 89/1/3
f 91/1/3 86/1/3 88/1/3
f 92/1/3 86/1/3 91/1/3
f 93/3/3 90/3/3 89/3/3
f 94/3/3 92/3/3 91/3/3
f 95/3/3 92/3/3 94/3/3
f 96/3/3 93/3/3 89/3/3
f 96/3/3 94/3/3 93/3/3
f 97/3/3 94/3/3 96/3/3
f 100/3/3 99/3/3 98/3/3
f 101/3/3 99/3/3 100/3/3
f 102/3/3 99/3/3 101/3/3
f 103/3/3 99/3/3 102/3/3
f 104/5/3 101/5/3 100/5/3
f 104/3/3 102/3/3 101/3/3
f 105/5/3 103/5/3 102/5/3
f 105/3/3 102/3/3 104/3/3
f 106/3/3 99/3/3 103/3/3
f 106/5/3 103/5/3 105/5/3
f 107/3/3 99/3/3 106/3/3
f 108/5/3 105/5/3 104/5/3
f 108/5/3 104/5/3 100/5/3
f 108/5/3 107/5/3 106/5/3
f 108/5/3 106/5/3 105/5/3
f 109/5/3 107/5/3 108/5/3
f 112/3/3 111/3/3 110/3/3
f 113/3/3 111/3/3 112/3/3
f 115/5/3 113/5/3 112/5/3
f 116/5/3 113/5/3 115/5/3
f 117/5/3 115/5/3 114/5/3
f 118/5/3 115/5/3 117/5/3
f 121/3/3 120/3/3 119/3/3
f 122/3/3 120/3/3 121/3/3
f 125/3/3 124/3/3 123/3/3
f 126/3/3 124/3/3 125/3/3
f 127/3/4 128/3/4 129/3/4
f 129/3/4 128/3/4 130/3/4
f 131/3/4 132/3/4 133/3/4
f 133/3/4 132/3/4 134/3/4
f 135/3/4 136/3/4 137/3/4
f 137/3/4 136/3/4 138/3/4
f 137/5/4 138/5/4 140/5/4
f 140/5/4 138/5/4 141/5/4
f 139/5/4 140/5/4 142/5/4
f 142/5/4 140/5/4 143/5/4
f 144/3/4 145/3/4 146/3/4
f 146/3/4 145/3/4 147/3/4
f 147/3/4 145/3/4 148/3/4
f 148/3/4 145/3/4 149/3/4
f 146/5/4 147/5/4 150/5/4
f 147/3/4 148/3/4 150/3/4
f 148/5/4 149/5/4 151/5/4
f 150/3/4 148/3/4 151/3/4
f 149/3/4 145/3/4 152/3/4
f 151/5/4 149/5/4 152/5/4
f 152/3/4 145/3/4 153/3/4
f 150/5/4 151/5/4 154/5/4
f 146/5/4 150/5/4 154/5/4
f 152/5/4 153/5/4 154/5/4
f 151/5/4 152/5/4 154/5/4
f 154/5/4 153/5/4 155/5/4
f 156/1/4 157/1/4 160/1/4
f 158/1/4 159/1/4 161/1/4
f 156/1/4 160/1/4 162/1/4
f 162/1/4 160/1/4 163/1/4
f 161/1/4 159/1/4 164/1/4
f 164/1/4 159/1/4 165/1/4
f 162/3/4 163/3/4 166/3/4
f 164/3/4 165/3/4 167/3/4
f 167/3/4 165/3/4 168/3/4
f 162/3/4 166/3/4 169/3/4
f 166/3/4 167/3/4 169/3/4
f 169/3/4 167/3/4 170/3/4
f 171/1/4 172/1/4 173/1/4
f 173/1/4 172/1/4 174/1/4
f 173/3/4 174/3/4 175/3/4
f 175/3/4 174/3/4 176/3/4
f 180/1/5 178/1/5 177/1/5
f 180/3/5 179/3/5 178/3/5
f 181/3/5 179/3/5 180/3/5
f 185/5/5 184/5/5 183/5/5
f 187/1/5 181/1/5 180/1/5
f 188/1/5 181/1/5 187/1/5
f 189/1/5 187/1/5 180/1/5
f 189/3/5 188/3/5 187/3/5
f 190/3/5 188/3/5 189/3/5
f 191/5/5 186/5/5 185/5/5
f 191/5/5 185/5/5 183/5/5
f 192/5/5 186/5/5 191/5/5
f 193/1/5 180/1/5 177/1/5
f 193/1/5 190/1/5 189/1/5
f 193/1/5 189/1/5 180/1/5
f 194/1/5 190/1/5 193/1/5
f 195/3/5 183/3/5 182/3/5
f 196/5/5 191/5/5 183/5/5
f 196/3/5 183/3/5 195/3/5
f 197/5/5 191/5/5 196/5/5
f 198/1/5 193/1/5 177/1/5
f 199/3/5 194/3/5 193/3/5
f 199/1/5 193/1/5 198/1/5
f 200/3/5 194/3/5 199/3/5
f 204/1/5 202/1/5 201/1/5
f 205/3/5 203/3/5 202/3/5
f 205/1/5 202/1/5 204/1/5
f 206/3/5 203/3/5 205/3/5
f 207/3/5 203/3/5 206/3/5
f 212/1/5 209/1/5 208/1/5
f 213/3/5 211/3/5 210/3/5
f 213/1/5 209/1/5 212/1/5
f 213/3/5 210/3/5 209/3/5
f 214/3/5 211/3/5 213/3/5
f 217/3/5 216/3/5 215/3/5
f 218/3/5 216/3/5 217/3/5
f 219/3/6 220/3/6 221/3/6
f 221/3/6 220/3/6 222/3/6
f 223/1/6 224/1/6 226/1/6
f 224/3/6 225/3/6 227/3/6
f 226/1/6 224/1/6 227/1/6
f 227/3/6 225/3/6 228/3/6
f 228/3/6 225/3/6 229/3/6
f 229/3/6 230/3/6 231/3/6
f 231/3/6 230/3/6 232/3/6
f 233/3/6 234/3/6 236/3/6
f 234/5/6 235/5/6 237/5/6
f 236/3/6 234/3/6 237/3/6
f 237/5/6 235/5/6 238/5/6
f 240/3/6 241/3/6 242/3/6
f 242/3/6 241/3/6 243/3/6
f 238/5/6 239/5/6 246/5/6
f 246/5/6 239/5/6 247/5/6
f 231/1/6 232/1/6 248/1/6
f 248/1/6 232/1/6 249/1/6
f 244/3/6 245/3/6 250/3/6
f 245/5/6 246/5/6 251/5/6
f 250/3/6 245/3/6 251/3/6
f 251/5/6 246/5/6 252/5/6
f 248/3/6 249/3/6 256/3/6
f 256/3/6 249/3/6 257/3/6
f 253/1/6 254/1/6 258/1/6
f 254/3/6 255/3/6 259/3/6
f 258/1/6 254/1/6 259/1/6
f 255/3/6 256/3/6 259/3/6
f 259/3/6 256/3/6 260/3/6
f 261/1/6 262/1/6 264/1/6
f 262/3/6 263/3/6 264/3/6
f 264/3/6 263/3/6 265/3/6
f 266/3/6 267/3/6 269/3/6
f 269/3/6 267/3/6 270/3/6
f 261/1/6 264/1/6 271/1/6
f 264/1/6 265/1/6 271/1/6
f 271/1/6 265/1/6 272/1/6
f 266/3/6 269/3/6 273/3/6
f 273/3/6 269/3/6 274/3/6
f 269/2/6 270/2/6 275/2/6
f 274/3/6 269/3/6 275/3/6
f 270/3/6 267/3/6 276/3/6
f 275/2/6 270/2/6 276/2/6
f 261/1/6 271/1/6 277/1/6
f 271/4/6 272/4/6 278/4/6
f 277/1/6 271/1/6 278/1/6
f 272/1/6 265/1/6 279/1/6
f 278/4/6 272/4/6 279/4/6
f 279/1/6 265/1/6 280/1/6
f 277/4/6 278/4/6 281/4/6
f 261/1/6 277/1/6 281/1/6
f 279/4/6 280/4/6 281/4/6
f 278/4/6 279/4/6 281/4/6
f 281/4/6 280/4/6 282/4/6
f 282/4/6 280/4/6 283/4/6
f 280/1/6 265/1/6 284/1/6
f 283/4/6 280/4/6 284/4/6
f 266/3/6 273/3/6 285/3/6
f 274/3/6 275/3/6 286/3/6
f 275/3/6 276/3/6 286/3/6
f 286/3/6 276/3/6 287/3/6
f 276/3/6 267/3/6 288/3/6
f 287/3/6 276/3/6 288/3/6
f 282/4/6 283/4/6 289/4/6
f 281/1/6 282/1/6 289/1/6
f 283/1/6 284/1/6 290/1/6
f 289/4/6 283/4/6 290/4/6
f 286/3/6 287/3/6 291/3/6
f 287/2/6 288/2/6 291/2/6
f 285/3/6 286/3/6 291/3/6
f 288/3/6 267/3/6 292/3/6
f 291/2/6 288/2/6 292/2/6
f 266/3/6 285/3/6 293/3/6
f 285/3/6 291/3/6 293/3/6
f 291/3/6 292/3/6 293/3/6
f 292/3/6 267/3/6 294/3/6
f 293/3/6 292/3/6 294/3/6
f 267/5/6 268/5/6 294/5/6
f 294/5/6 268/5/6 295/5/6
f 290/1/6 284/1/6 296/1/6
f 289/1/6 290/1/6 296/1/6
f 284/1/6 265/1/6 297/1/6
f 296/1/6 284/1/6 297/1/6
f 261/1/6 281/1/6 298/1/6
f 281/1/6 289/1/6 298/1/6
f 289/1/6 296/1/6 298/1/6
f 296/3/6 297/3/6 299/3/6
f 298/1/6 296/1/6 299/1/6
f 299/3/6 297/3/6 300/3/6
