# MagicaVoxel @ Ephtracy

# group
o 

# material
mtllib plantv2.mtl
usemtl palette

# normals
vn -1 0 0
vn 1 0 0
vn 0 0 1
vn 0 0 -1
vn 0 -1 0
vn 0 1 0

# texcoords
vt 0.337891 0.5
vt 0.341797 0.5
vt 0.373047 0.5
vt 0.583984 0.5
vt 0.607422 0.5

# verts
v 1.1 4.7 -1.4
v 1.1 4.7 -2.9
v 1.1 5 -1.4
v 1.1 5 -2.9
v 1.2 2 -1.2
v 1.2 2 -2.8
v 1.2 3.4 -1.2
v 1.2 3.4 -2.8
v 1.2 4.1 -1.2
v 1.2 4.1 -2.7
v 1.2 4.4 -1.2
v 1.2 4.4 -2.7
v 1.2 5 -1.2
v 1.2 5 -1.4
v 1.2 5 -2.7
v 1.2 5.3 -1.2
v 1.2 5.3 -2.7
v 1.2 5.6 -1.2
v 1.2 5.6 -2.7
v 1.2 5.9 -1.2
v 1.2 5.9 -2.7
v 1.3 3.8 -1.3
v 1.3 3.8 -2.8
v 1.3 4.1 -1.3
v 1.3 4.1 -2.7
v 1.3 4.1 -2.8
v 1.3 5.3 -1.3
v 1.3 5.3 -2.7
v 1.3 5.3 -2.8
v 1.3 5.6 -1.3
v 1.3 5.6 -2.7
v 1.3 5.6 -2.8
v 1.4 4.4 -1.1
v 1.4 4.4 -1.2
v 1.4 4.4 -2.6
v 1.4 4.7 -1.1
v 1.4 4.7 -1.4
v 1.4 4.7 -1.5
v 1.4 4.7 -2.6
v 1.9 3.2 -1.9
v 1.9 3.2 -2.1
v 1.9 3.8 -1.9
v 1.9 3.8 -2.1
v 2.6 3.2 -1.4
v 2.6 3.2 -2.6
v 2.6 3.4 -1.4
v 2.6 3.4 -2.6
v 1.4 3.2 -1.4
v 1.4 3.2 -2.6
v 1.4 3.4 -1.4
v 1.4 3.4 -2.6
v 2.1 3.2 -1.9
v 2.1 3.2 -2.1
v 2.1 3.8 -1.9
v 2.1 3.8 -2.1
v 2.6 4.7 -1.4
v 2.6 4.7 -2.6
v 2.6 4.7 -2.9
v 2.6 5 -1.4
v 2.6 5 -2.7
v 2.6 5 -2.9
v 2.7 4.1 -1.2
v 2.7 4.1 -1.3
v 2.7 4.1 -2.6
v 2.7 4.1 -2.7
v 2.7 4.4 -1.2
v 2.7 4.4 -1.3
v 2.7 4.4 -2.6
v 2.7 4.4 -2.7
v 2.7 5 -1.2
v 2.7 5 -2.7
v 2.7 5.3 -1.2
v 2.7 5.3 -1.3
v 2.7 5.3 -2.7
v 2.7 5.6 -1.2
v 2.7 5.6 -1.3
v 2.7 5.6 -2.7
v 2.7 5.9 -1.2
v 2.7 5.9 -2.7
v 2.8 2 -1.2
v 2.8 2 -2.8
v 2.8 3.4 -1.2
v 2.8 3.4 -2.8
v 2.8 3.8 -1.3
v 2.8 3.8 -2.8
v 2.8 4.1 -1.3
v 2.8 4.1 -2.8
v 2.8 5.3 -1.3
v 2.8 5.3 -2.8
v 2.8 5.6 -1.3
v 2.8 5.6 -2.8
v 2.9 4.4 -1.1
v 2.9 4.4 -2.6
v 2.9 4.7 -1.1
v 2.9 4.7 -2.6
v 1.4 4.4 -1.1
v 1.4 4.7 -1.1
v 2.9 4.4 -1.1
v 2.9 4.7 -1.1
v 1.2 2 -1.2
v 1.2 3.4 -1.2
v 1.2 4.1 -1.2
v 1.2 4.4 -1.2
v 1.2 5 -1.2
v 1.2 5.3 -1.2
v 1.2 5.6 -1.2
v 1.2 5.9 -1.2
v 1.4 4.4 -1.2
v 2.7 4.1 -1.2
v 2.7 4.4 -1.2
v 2.7 5 -1.2
v 2.7 5.3 -1.2
v 2.7 5.6 -1.2
v 2.7 5.9 -1.2
v 2.8 2 -1.2
v 2.8 3.4 -1.2
v 1.3 3.8 -1.3
v 1.3 4.1 -1.3
v 1.3 5.3 -1.3
v 1.3 5.6 -1.3
v 2.7 4.1 -1.3
v 2.7 5.3 -1.3
v 2.7 5.6 -1.3
v 2.8 3.8 -1.3
v 2.8 4.1 -1.3
v 2.8 5.3 -1.3
v 2.8 5.6 -1.3
v 1.1 4.7 -1.4
v 1.1 5 -1.4
v 1.2 5 -1.4
v 1.4 4.7 -1.4
v 2.6 4.7 -1.4
v 2.6 5 -1.4
v 1.9 3.2 -1.9
v 1.9 3.8 -1.9
v 2.1 3.2 -1.9
v 2.1 3.8 -1.9
v 1.4 3.2 -2.6
v 1.4 3.4 -2.6
v 2.6 3.2 -2.6
v 2.6 3.4 -2.6
v 1.4 3.2 -1.4
v 1.4 3.4 -1.4
v 2.6 3.2 -1.4
v 2.6 3.4 -1.4
v 1.9 3.2 -2.1
v 1.9 3.8 -2.1
v 2.1 3.2 -2.1
v 2.1 3.8 -2.1
v 1.4 4.4 -2.6
v 1.4 4.7 -2.6
v 2.5 4.7 -2.6
v 2.6 4.7 -2.6
v 2.7 4.4 -2.6
v 2.9 4.4 -2.6
v 2.9 4.7 -2.6
v 1.2 4.1 -2.7
v 1.2 4.4 -2.7
v 1.2 5 -2.7
v 1.2 5.3 -2.7
v 1.2 5.6 -2.7
v 1.2 5.9 -2.7
v 1.3 4.1 -2.7
v 1.3 5.3 -2.7
v 1.3 5.6 -2.7
v 2.6 5 -2.7
v 2.7 4.1 -2.7
v 2.7 4.4 -2.7
v 2.7 5 -2.7
v 2.7 5.3 -2.7
v 2.7 5.6 -2.7
v 2.7 5.9 -2.7
v 1.2 2 -2.8
v 1.2 3.4 -2.8
v 1.3 3.8 -2.8
v 1.3 4.1 -2.8
v 1.3 5.3 -2.8
v 1.3 5.6 -2.8
v 2.8 2 -2.8
v 2.8 3.4 -2.8
v 2.8 3.8 -2.8
v 2.8 4.1 -2.8
v 2.8 5.3 -2.8
v 2.8 5.6 -2.8
v 1.1 4.7 -2.9
v 1.1 5 -2.9
v 2.6 4.7 -2.9
v 2.6 5 -2.9
v 1.2 2 -1.2
v 2.8 2 -1.2
v 1.2 2 -2.8
v 2.8 2 -2.8
v 1.3 3.8 -1.3
v 2.8 3.8 -1.3
v 1.9 3.8 -1.9
v 2.1 3.8 -1.9
v 1.9 3.8 -2.1
v 2.1 3.8 -2.1
v 1.3 3.8 -2.8
v 2.8 3.8 -2.8
v 1.2 4.1 -1.2
v 2.7 4.1 -1.2
v 1.3 4.1 -1.3
v 2.7 4.1 -1.3
v 1.2 4.1 -2.7
v 1.3 4.1 -2.7
v 1.4 4.4 -1.1
v 2.9 4.4 -1.1
v 1.4 4.4 -1.2
v 2.7 4.4 -1.2
v 2.7 4.4 -1.3
v 2.7 4.4 -2.6
v 2.9 4.4 -2.6
v 1.1 4.7 -1.4
v 1.4 4.7 -1.4
v 1.2 4.7 -1.5
v 1.4 4.7 -1.5
v 1.4 4.7 -2.6
v 2.5 4.7 -2.6
v 2.6 4.7 -2.6
v 1.2 4.7 -2.8
v 2.5 4.7 -2.8
v 1.1 4.7 -2.9
v 2.6 4.7 -2.9
v 1.2 5 -1.2
v 2.7 5 -1.2
v 1.2 5 -1.4
v 2.6 5 -1.4
v 2.6 5 -2.7
v 2.7 5 -2.7
v 2.7 5.3 -1.3
v 2.8 5.3 -1.3
v 1.3 5.3 -2.7
v 2.7 5.3 -2.7
v 1.3 5.3 -2.8
v 2.8 5.3 -2.8
v 1.2 5.6 -1.2
v 2.7 5.6 -1.2
v 1.3 5.6 -1.3
v 2.7 5.6 -1.3
v 1.2 5.6 -2.7
v 1.3 5.6 -2.7
v 1.4 3.2 -1.4
v 2.6 3.2 -1.4
v 1.9 3.2 -1.9
v 2.1 3.2 -1.9
v 1.9 3.2 -2.1
v 2.1 3.2 -2.1
v 1.4 3.2 -2.6
v 2.6 3.2 -2.6
v 1.2 3.4 -1.2
v 2.8 3.4 -1.2
v 1.4 3.4 -1.4
v 2.6 3.4 -1.4
v 1.4 3.4 -2.6
v 2.6 3.4 -2.6
v 1.2 3.4 -2.8
v 2.8 3.4 -2.8
v 2.7 4.1 -1.3
v 2.8 4.1 -1.3
v 2.7 4.1 -2.6
v 1.3 4.1 -2.7
v 2.7 4.1 -2.7
v 1.3 4.1 -2.8
v 2.8 4.1 -2.8
v 1.2 4.4 -1.2
v 1.4 4.4 -1.2
v 1.4 4.4 -2.6
v 2.7 4.4 -2.6
v 1.2 4.4 -2.7
v 2.7 4.4 -2.7
v 1.4 4.7 -1.1
v 2.9 4.7 -1.1
v 1.4 4.7 -1.4
v 2.6 4.7 -1.4
v 2.6 4.7 -2.6
v 2.9 4.7 -2.6
v 1.1 5 -1.4
v 1.2 5 -1.4
v 1.2 5 -2.7
v 2.6 5 -2.7
v 1.1 5 -2.9
v 2.6 5 -2.9
v 1.2 5.3 -1.2
v 2.7 5.3 -1.2
v 1.3 5.3 -1.3
v 2.7 5.3 -1.3
v 1.2 5.3 -2.7
v 1.3 5.3 -2.7
v 2.7 5.6 -1.3
v 2.8 5.6 -1.3
v 1.3 5.6 -2.7
v 2.7 5.6 -2.7
v 1.3 5.6 -2.8
v 2.8 5.6 -2.8
v 1.2 5.9 -1.2
v 2.7 5.9 -1.2
v 1.2 5.9 -2.7
v 2.7 5.9 -2.7

# faces
f 3/5/1 2/5/1 1/5/1
f 4/5/1 2/5/1 3/5/1
f 7/2/1 6/2/1 5/2/1
f 8/2/1 6/2/1 7/2/1
f 11/5/1 10/5/1 9/5/1
f 12/5/1 10/5/1 11/5/1
f 16/4/1 14/4/1 13/4/1
f 16/4/1 15/4/1 14/4/1
f 17/4/1 15/4/1 16/4/1
f 20/4/1 19/4/1 18/4/1
f 21/4/1 19/4/1 20/4/1
f 24/4/1 23/4/1 22/4/1
f 25/4/1 23/4/1 24/4/1
f 26/4/1 23/4/1 25/4/1
f 30/5/1 28/5/1 27/5/1
f 30/5/1 29/5/1 28/5/1
f 31/5/1 29/5/1 30/5/1
f 32/5/1 29/5/1 31/5/1
f 36/4/1 34/4/1 33/4/1
f 36/4/1 35/4/1 34/4/1
f 37/4/1 35/4/1 36/4/1
f 38/4/1 35/4/1 37/4/1
f 39/4/1 35/4/1 38/4/1
f 42/3/1 41/3/1 40/3/1
f 43/3/1 41/3/1 42/3/1
f 46/2/1 45/2/1 44/2/1
f 47/2/1 45/2/1 46/2/1
f 48/2/2 49/2/2 50/2/2
f 50/2/2 49/2/2 51/2/2
f 52/3/2 53/3/2 54/3/2
f 54/3/2 53/3/2 55/3/2
f 56/5/2 57/5/2 59/5/2
f 57/5/2 58/5/2 59/5/2
f 59/5/2 58/5/2 60/5/2
f 60/5/2 58/5/2 61/5/2
f 62/5/2 63/5/2 66/5/2
f 63/4/2 64/4/2 67/4/2
f 66/5/2 63/5/2 67/5/2
f 64/5/2 65/5/2 68/5/2
f 67/4/2 64/4/2 68/4/2
f 68/5/2 65/5/2 69/5/2
f 70/4/2 71/4/2 72/4/2
f 72/4/2 71/4/2 73/4/2
f 73/4/2 71/4/2 74/4/2
f 75/4/2 76/4/2 78/4/2
f 76/4/2 77/4/2 78/4/2
f 78/4/2 77/4/2 79/4/2
f 80/2/2 81/2/2 82/2/2
f 82/2/2 81/2/2 83/2/2
f 84/4/2 85/4/2 86/4/2
f 86/4/2 85/4/2 87/4/2
f 88/5/2 89/5/2 90/5/2
f 90/5/2 89/5/2 91/5/2
f 92/4/2 93/4/2 94/4/2
f 94/4/2 93/4/2 95/4/2
f 98/4/3 97/4/3 96/4/3
f 99/4/3 97/4/3 98/4/3
f 108/5/3 103/5/3 102/5/3
f 109/5/3 108/5/3 102/5/3
f 110/5/3 108/5/3 109/5/3
f 111/4/3 105/4/3 104/4/3
f 112/4/3 105/4/3 111/4/3
f 113/4/3 107/4/3 106/4/3
f 114/4/3 107/4/3 113/4/3
f 115/2/3 101/2/3 100/2/3
f 116/2/3 101/2/3 115/2/3
f 121/4/3 118/4/3 117/4/3
f 122/5/3 120/5/3 119/5/3
f 123/5/3 120/5/3 122/5/3
f 124/4/3 121/4/3 117/4/3
f 125/4/3 121/4/3 124/4/3
f 126/5/3 123/5/3 122/5/3
f 127/5/3 123/5/3 126/5/3
f 130/5/3 129/5/3 128/5/3
f 131/5/3 130/5/3 128/5/3
f 132/5/3 130/5/3 131/5/3
f 133/5/3 130/5/3 132/5/3
f 136/3/3 135/3/3 134/3/3
f 137/3/3 135/3/3 136/3/3
f 140/2/3 139/2/3 138/2/3
f 141/2/3 139/2/3 140/2/3
f 142/2/4 143/2/4 144/2/4
f 144/2/4 143/2/4 145/2/4
f 146/3/4 147/3/4 148/3/4
f 148/3/4 147/3/4 149/3/4
f 150/4/4 151/4/4 152/4/4
f 150/4/4 152/4/4 153/4/4
f 150/4/4 153/4/4 154/4/4
f 154/4/4 153/4/4 155/4/4
f 155/4/4 153/4/4 156/4/4
f 157/5/4 158/5/4 163/5/4
f 159/4/4 160/4/4 164/4/4
f 161/4/4 162/4/4 165/4/4
f 159/4/4 164/4/4 166/4/4
f 163/5/4 158/5/4 167/5/4
f 167/5/4 158/5/4 168/5/4
f 166/4/4 164/4/4 169/4/4
f 169/4/4 164/4/4 170/4/4
f 165/4/4 162/4/4 171/4/4
f 171/4/4 162/4/4 172/4/4
f 173/2/4 174/2/4 179/2/4
f 179/2/4 174/2/4 180/2/4
f 175/4/4 176/4/4 181/4/4
f 181/4/4 176/4/4 182/4/4
f 177/5/4 178/5/4 183/5/4
f 183/5/4 178/5/4 184/5/4
f 185/5/4 186/5/4 187/5/4
f 187/5/4 186/5/4 188/5/4
f 191/2/5 190/2/5 189/2/5
f 192/2/5 190/2/5 191/2/5
f 195/4/5 194/4/5 193/4/5
f 196/4/5 194/4/5 195/4/5
f 197/4/5 195/4/5 193/4/5
f 198/4/5 194/4/5 196/4/5
f 199/4/5 197/4/5 193/4/5
f 199/4/5 198/4/5 197/4/5
f 200/4/5 194/4/5 198/4/5
f 200/4/5 198/4/5 199/4/5
f 203/5/5 202/5/5 201/5/5
f 204/5/5 202/5/5 203/5/5
f 205/5/5 203/5/5 201/5/5
f 206/5/5 203/5/5 205/5/5
f 209/4/5 208/4/5 207/4/5
f 210/4/5 208/4/5 209/4/5
f 211/4/5 208/4/5 210/4/5
f 212/4/5 208/4/5 211/4/5
f 213/4/5 208/4/5 212/4/5
f 216/5/5 215/5/5 214/5/5
f 217/5/5 215/5/5 216/5/5
f 218/4/5 217/4/5 216/4/5
f 221/5/5 216/5/5 214/5/5
f 221/4/5 218/4/5 216/4/5
f 221/4/5 219/4/5 218/4/5
f 222/5/5 220/5/5 219/5/5
f 222/4/5 219/4/5 221/4/5
f 223/5/5 221/5/5 214/5/5
f 223/5/5 222/5/5 221/5/5
f 224/5/5 220/5/5 222/5/5
f 224/5/5 222/5/5 223/5/5
f 227/4/5 226/4/5 225/4/5
f 228/4/5 226/4/5 227/4/5
f 229/4/5 226/4/5 228/4/5
f 230/4/5 226/4/5 229/4/5
f 234/5/5 232/5/5 231/5/5
f 235/5/5 234/5/5 233/5/5
f 236/5/5 232/5/5 234/5/5
f 236/5/5 234/5/5 235/5/5
f 239/4/5 238/4/5 237/4/5
f 240/4/5 238/4/5 239/4/5
f 241/4/5 239/4/5 237/4/5
f 242/4/5 239/4/5 241/4/5
f 243/1/6 244/1/6 245/1/6
f 245/1/6 244/1/6 246/1/6
f 243/1/6 245/1/6 247/1/6
f 246/1/6 244/1/6 248/1/6
f 243/1/6 247/1/6 249/1/6
f 247/1/6 248/1/6 249/1/6
f 248/1/6 244/1/6 250/1/6
f 249/1/6 248/1/6 250/1/6
f 251/2/6 252/2/6 253/2/6
f 253/2/6 252/2/6 254/2/6
f 251/2/6 253/2/6 255/2/6
f 254/2/6 252/2/6 256/2/6
f 251/2/6 255/2/6 257/2/6
f 255/2/6 256/2/6 257/2/6
f 256/2/6 252/2/6 258/2/6
f 257/2/6 256/2/6 258/2/6
f 259/4/6 260/4/6 261/4/6
f 261/4/6 260/4/6 263/4/6
f 262/4/6 263/4/6 264/4/6
f 263/4/6 260/4/6 265/4/6
f 264/4/6 263/4/6 265/4/6
f 266/5/6 267/5/6 268/5/6
f 266/5/6 268/5/6 270/5/6
f 268/5/6 269/5/6 270/5/6
f 270/5/6 269/5/6 271/5/6
f 272/4/6 273/4/6 274/4/6
f 274/4/6 273/4/6 275/4/6
f 275/4/6 273/4/6 276/4/6
f 276/4/6 273/4/6 277/4/6
f 278/5/6 279/5/6 280/5/6
f 278/5/6 280/5/6 282/5/6
f 280/5/6 281/5/6 282/5/6
f 282/5/6 281/5/6 283/5/6
f 284/4/6 285/4/6 286/4/6
f 286/4/6 285/4/6 287/4/6
f 284/4/6 286/4/6 288/4/6
f 288/4/6 286/4/6 289/4/6
f 290/5/6 291/5/6 293/5/6
f 292/5/6 293/5/6 294/5/6
f 293/5/6 291/5/6 295/5/6
f 294/5/6 293/5/6 295/5/6
f 296/4/6 297/4/6 298/4/6
f 298/4/6 297/4/6 299/4/6
