# MagicaVoxel @ Ephtracy

# group
o 

# material
mtllib sofa.mtl
usemtl palette

# normals
vn -1 0 0
vn 1 0 0
vn 0 0 1
vn 0 0 -1
vn 0 -1 0
vn 0 1 0

# texcoords
vt 0.341797 0.5
vt 0.990234 0.5

# verts
v 0 2 -1.6
v 0 2 -3.1
v 0 3.3 -1.6
v 0 3.3 -3.1
v 0.2 3.3 -2.8
v 0.2 3.3 -3.1
v 0.2 3.6 -2.8
v 0.2 3.6 -3.1
v 0.3 3.3 -2.6
v 0.3 3.3 -2.8
v 0.3 3.6 -2.8
v 0.3 3.7 -2.6
v 0.3 3.7 -2.8
v 0.4 2.7 -1.5
v 0.4 2.7 -1.6
v 0.4 2.8 -1.6
v 0.4 2.8 -2.6
v 0.4 3 -1.5
v 0.4 3 -2.6
v 1.4 2.7 -1.5
v 1.4 2.7 -1.6
v 1.4 2.8 -1.6
v 1.4 2.8 -2.8
v 1.4 3 -1.5
v 1.4 3 -2.6
v 1.4 3.6 -2.8
v 1.4 3.7 -2.6
v 1.4 3.7 -2.8
v 2.7 2.7 -1.5
v 2.7 2.7 -1.6
v 2.7 2.8 -1.6
v 2.7 2.8 -2.8
v 2.7 3 -1.5
v 2.7 3 -2.6
v 2.7 3.6 -2.8
v 2.7 3.7 -2.6
v 2.7 3.7 -2.8
v 3.7 2 -1.6
v 3.7 2 -2.9
v 3.7 2.4 -1.7
v 3.7 2.4 -1.8
v 3.7 2.4 -2.9
v 3.7 2.8 -1.7
v 3.7 2.8 -2.6
v 3.7 3.3 -1.6
v 3.7 3.3 -2.6
v 0.3 2 -1.6
v 0.3 2 -2.9
v 0.3 2.4 -1.6
v 0.3 2.4 -1.8
v 0.3 2.4 -2.9
v 0.3 2.8 -1.6
v 0.3 2.8 -2.6
v 0.3 3.3 -1.6
v 0.3 3.3 -2.6
v 1.3 2.7 -1.5
v 1.3 2.7 -1.6
v 1.3 2.8 -1.6
v 1.3 2.8 -2.8
v 1.3 3 -1.5
v 1.3 3 -2.6
v 1.3 3.6 -2.8
v 1.3 3.7 -2.6
v 1.3 3.7 -2.8
v 2.6 2.7 -1.5
v 2.6 2.7 -1.6
v 2.6 2.8 -1.6
v 2.6 2.8 -2.8
v 2.6 3 -1.5
v 2.6 3 -2.6
v 2.6 3.6 -2.8
v 2.6 3.7 -2.6
v 2.6 3.7 -2.8
v 3.6 2.4 -1.6
v 3.6 2.4 -1.7
v 3.6 2.7 -1.5
v 3.6 2.7 -1.6
v 3.6 2.8 -1.7
v 3.6 2.8 -2.6
v 3.6 3 -1.5
v 3.6 3 -2.6
v 3.7 3.3 -2.6
v 3.7 3.3 -2.8
v 3.7 3.6 -2.8
v 3.7 3.7 -2.6
v 3.7 3.7 -2.8
v 3.8 3.3 -2.8
v 3.8 3.3 -3.1
v 3.8 3.6 -2.8
v 3.8 3.6 -3.1
v 4 2 -1.6
v 4 2 -3.1
v 4 3.3 -1.6
v 4 3.3 -3.1
v 0.4 2.7 -1.5
v 0.4 3 -1.5
v 1.3 2.7 -1.5
v 1.3 3 -1.5
v 1.4 2.7 -1.5
v 1.4 3 -1.5
v 2.6 2.7 -1.5
v 2.6 3 -1.5
v 2.7 2.7 -1.5
v 2.7 3 -1.5
v 3.6 2.7 -1.5
v 3.6 3 -1.5
v 0 2 -1.6
v 0 3.3 -1.6
v 0.3 2 -1.6
v 0.3 2.4 -1.6
v 0.3 2.8 -1.6
v 0.3 3.3 -1.6
v 0.4 2.7 -1.6
v 0.4 2.8 -1.6
v 1.3 2.7 -1.6
v 1.3 2.8 -1.6
v 1.4 2.7 -1.6
v 1.4 2.8 -1.6
v 2.6 2.7 -1.6
v 2.6 2.8 -1.6
v 2.7 2.7 -1.6
v 2.7 2.8 -1.6
v 3.6 2.4 -1.6
v 3.6 2.7 -1.6
v 3.7 2 -1.6
v 3.7 3.3 -1.6
v 4 2 -1.6
v 4 3.3 -1.6
v 3.6 2.4 -1.7
v 3.6 2.8 -1.7
v 3.7 2.4 -1.7
v 3.7 2.8 -1.7
v 0.3 2.8 -2.6
v 0.3 3.3 -2.6
v 0.3 3.7 -2.6
v 0.4 2.8 -2.6
v 0.4 3 -2.6
v 1.3 3 -2.6
v 1.3 3.7 -2.6
v 1.4 3 -2.6
v 1.4 3.7 -2.6
v 2.6 3 -2.6
v 2.6 3.7 -2.6
v 2.7 3 -2.6
v 2.7 3.7 -2.6
v 3.6 2.8 -2.6
v 3.6 3 -2.6
v 3.7 2.8 -2.6
v 3.7 3.3 -2.6
v 3.7 3.7 -2.6
v 0.2 3.3 -2.8
v 0.2 3.6 -2.8
v 0.3 3.3 -2.8
v 0.3 3.6 -2.8
v 1.3 2.8 -2.8
v 1.3 3.6 -2.8
v 1.4 2.8 -2.8
v 1.4 3.6 -2.8
v 2.6 2.8 -2.8
v 2.6 3.6 -2.8
v 2.7 2.8 -2.8
v 2.7 3.6 -2.8
v 3.7 3.3 -2.8
v 3.7 3.6 -2.8
v 3.8 3.3 -2.8
v 3.8 3.6 -2.8
v 0.3 2 -2.9
v 0.3 2.4 -2.9
v 3.7 2 -2.9
v 3.7 2.4 -2.9
v 0.3 3.6 -2.8
v 0.3 3.7 -2.8
v 1.3 3.6 -2.8
v 1.3 3.7 -2.8
v 1.4 3.6 -2.8
v 1.4 3.7 -2.8
v 2.6 3.6 -2.8
v 2.6 3.7 -2.8
v 2.7 3.6 -2.8
v 2.7 3.7 -2.8
v 3.7 3.6 -2.8
v 3.7 3.7 -2.8
v 0 2 -3.1
v 0 3.3 -3.1
v 0.2 3.3 -3.1
v 0.2 3.6 -3.1
v 3.8 3.3 -3.1
v 3.8 3.6 -3.1
v 4 2 -3.1
v 4 3.3 -3.1
v 0 2 -1.6
v 0.3 2 -1.6
v 3.7 2 -1.6
v 4 2 -1.6
v 0.3 2 -2.9
v 3.7 2 -2.9
v 0 2 -3.1
v 4 2 -3.1
v 0.3 2.4 -1.6
v 3.6 2.4 -1.6
v 3.6 2.4 -1.7
v 3.7 2.4 -1.7
v 0.3 2.4 -1.8
v 3.7 2.4 -1.8
v 0.3 2.4 -2.9
v 3.7 2.4 -2.9
v 0.4 2.7 -1.5
v 1.3 2.7 -1.5
v 1.4 2.7 -1.5
v 2.6 2.7 -1.5
v 2.7 2.7 -1.5
v 3.6 2.7 -1.5
v 0.4 2.7 -1.6
v 1.3 2.7 -1.6
v 1.4 2.7 -1.6
v 2.6 2.7 -1.6
v 2.7 2.7 -1.6
v 3.6 2.7 -1.6
v 0.3 2.8 -1.6
v 0.4 2.8 -1.6
v 1.3 2.8 -1.6
v 1.4 2.8 -1.6
v 2.6 2.8 -1.6
v 2.7 2.8 -1.6
v 3.6 2.8 -1.7
v 3.7 2.8 -1.7
v 0.3 2.8 -2.6
v 0.4 2.8 -2.6
v 3.6 2.8 -2.6
v 3.7 2.8 -2.6
v 1.3 2.8 -2.8
v 1.4 2.8 -2.8
v 2.6 2.8 -2.8
v 2.7 2.8 -2.8
v 0.4 3 -1.5
v 1.3 3 -1.5
v 1.4 3 -1.5
v 2.6 3 -1.5
v 2.7 3 -1.5
v 3.6 3 -1.5
v 0.4 3 -2.6
v 1.3 3 -2.6
v 1.4 3 -2.6
v 2.6 3 -2.6
v 2.7 3 -2.6
v 3.6 3 -2.6
v 0 3.3 -1.6
v 0.3 3.3 -1.6
v 3.7 3.3 -1.6
v 4 3.3 -1.6
v 0.3 3.3 -2.6
v 3.7 3.3 -2.6
v 0.2 3.3 -2.8
v 0.3 3.3 -2.8
v 3.7 3.3 -2.8
v 3.8 3.3 -2.8
v 0 3.3 -3.1
v 0.2 3.3 -3.1
v 3.8 3.3 -3.1
v 4 3.3 -3.1
v 0.2 3.6 -2.8
v 0.3 3.6 -2.8
v 1.3 3.6 -2.8
v 1.4 3.6 -2.8
v 2.6 3.6 -2.8
v 2.7 3.6 -2.8
v 3.7 3.6 -2.8
v 3.8 3.6 -2.8
v 0.2 3.6 -3.1
v 3.8 3.6 -3.1
v 0.3 3.7 -2.6
v 1.3 3.7 -2.6
v 1.4 3.7 -2.6
v 2.6 3.7 -2.6
v 2.7 3.7 -2.6
v 3.7 3.7 -2.6
v 0.3 3.7 -2.8
v 1.3 3.7 -2.8
v 1.4 3.7 -2.8
v 2.6 3.7 -2.8
v 2.7 3.7 -2.8
v 3.7 3.7 -2.8

# faces
f 3/1/1 2/1/1 1/1/1
f 4/1/1 2/1/1 3/1/1
f 7/1/1 6/1/1 5/1/1
f 8/1/1 6/1/1 7/1/1
f 11/1/1 10/1/1 9/1/1
f 12/1/1 11/1/1 9/1/1
f 13/1/1 11/1/1 12/1/1
f 16/1/1 15/1/1 14/1/1
f 18/1/1 16/1/1 14/1/1
f 18/1/1 17/1/1 16/1/1
f 19/1/1 17/1/1 18/1/1
f 22/1/1 21/1/1 20/1/1
f 24/1/1 22/1/1 20/1/1
f 24/1/1 23/1/1 22/1/1
f 25/1/1 23/1/1 24/1/1
f 26/1/1 23/1/1 25/1/1
f 27/1/1 26/1/1 25/1/1
f 28/1/1 26/1/1 27/1/1
f 31/1/1 30/1/1 29/1/1
f 33/1/1 31/1/1 29/1/1
f 33/1/1 32/1/1 31/1/1
f 34/1/1 32/1/1 33/1/1
f 35/1/1 32/1/1 34/1/1
f 36/1/1 35/1/1 34/1/1
f 37/1/1 35/1/1 36/1/1
f 40/1/1 39/1/1 38/1/1
f 41/1/1 39/1/1 40/1/1
f 42/1/1 39/1/1 41/1/1
f 43/1/1 40/1/1 38/1/1
f 45/1/1 43/1/1 38/1/1
f 45/1/1 44/1/1 43/1/1
f 46/1/1 44/1/1 45/1/1
f 47/1/2 48/1/2 49/1/2
f 49/1/2 48/1/2 50/1/2
f 50/1/2 48/1/2 51/1/2
f 52/1/2 53/1/2 54/1/2
f 54/1/2 53/1/2 55/1/2
f 56/1/2 57/1/2 58/1/2
f 56/1/2 58/1/2 60/1/2
f 58/1/2 59/1/2 60/1/2
f 60/1/2 59/1/2 61/1/2
f 61/1/2 59/1/2 62/1/2
f 61/1/2 62/1/2 63/1/2
f 63/1/2 62/1/2 64/1/2
f 65/1/2 66/1/2 67/1/2
f 65/1/2 67/1/2 69/1/2
f 67/1/2 68/1/2 69/1/2
f 69/1/2 68/1/2 70/1/2
f 70/1/2 68/1/2 71/1/2
f 70/1/2 71/1/2 72/1/2
f 72/1/2 71/1/2 73/1/2
f 74/1/2 75/1/2 77/1/2
f 77/1/2 75/1/2 78/1/2
f 76/1/2 77/1/2 78/1/2
f 76/1/2 78/1/2 80/1/2
f 78/1/2 79/1/2 80/1/2
f 80/1/2 79/1/2 81/1/2
f 82/1/2 83/1/2 84/1/2
f 82/1/2 84/1/2 85/1/2
f 85/1/2 84/1/2 86/1/2
f 87/1/2 88/1/2 89/1/2
f 89/1/2 88/1/2 90/1/2
f 91/1/2 92/1/2 93/1/2
f 93/1/2 92/1/2 94/1/2
f 97/1/3 96/1/3 95/1/3
f 98/1/3 96/1/3 97/1/3
f 101/1/3 100/1/3 99/1/3
f 102/1/3 100/1/3 101/1/3
f 105/1/3 104/1/3 103/1/3
f 106/1/3 104/1/3 105/1/3
f 109/1/3 108/1/3 107/1/3
f 110/1/3 108/1/3 109/1/3
f 111/1/3 108/1/3 110/1/3
f 112/1/3 108/1/3 111/1/3
f 113/1/3 111/1/3 110/1/3
f 114/1/3 111/1/3 113/1/3
f 115/1/3 113/1/3 110/1/3
f 117/1/3 115/1/3 110/1/3
f 117/1/3 116/1/3 115/1/3
f 118/1/3 116/1/3 117/1/3
f 119/1/3 117/1/3 110/1/3
f 121/1/3 119/1/3 110/1/3
f 121/1/3 120/1/3 119/1/3
f 122/1/3 120/1/3 121/1/3
f 123/1/3 121/1/3 110/1/3
f 124/1/3 121/1/3 123/1/3
f 127/1/3 126/1/3 125/1/3
f 128/1/3 126/1/3 127/1/3
f 131/1/3 130/1/3 129/1/3
f 132/1/3 130/1/3 131/1/3
f 136/1/3 134/1/3 133/1/3
f 136/1/3 135/1/3 134/1/3
f 137/1/3 135/1/3 136/1/3
f 138/1/3 135/1/3 137/1/3
f 139/1/3 135/1/3 138/1/3
f 142/1/3 141/1/3 140/1/3
f 143/1/3 141/1/3 142/1/3
f 147/1/3 145/1/3 144/1/3
f 148/1/3 147/1/3 146/1/3
f 149/1/3 145/1/3 147/1/3
f 149/1/3 147/1/3 148/1/3
f 150/1/3 145/1/3 149/1/3
f 153/1/3 152/1/3 151/1/3
f 154/1/3 152/1/3 153/1/3
f 157/1/3 156/1/3 155/1/3
f 158/1/3 156/1/3 157/1/3
f 161/1/3 160/1/3 159/1/3
f 162/1/3 160/1/3 161/1/3
f 165/1/3 164/1/3 163/1/3
f 166/1/3 164/1/3 165/1/3
f 169/1/3 168/1/3 167/1/3
f 170/1/3 168/1/3 169/1/3
f 171/1/4 172/1/4 173/1/4
f 173/1/4 172/1/4 174/1/4
f 175/1/4 176/1/4 177/1/4
f 177/1/4 176/1/4 178/1/4
f 179/1/4 180/1/4 181/1/4
f 181/1/4 180/1/4 182/1/4
f 183/1/4 184/1/4 185/1/4
f 183/1/4 185/1/4 187/1/4
f 185/1/4 186/1/4 187/1/4
f 187/1/4 186/1/4 188/1/4
f 183/1/4 187/1/4 189/1/4
f 189/1/4 187/1/4 190/1/4
f 195/1/5 192/1/5 191/1/5
f 196/1/5 194/1/5 193/1/5
f 197/1/5 195/1/5 191/1/5
f 197/1/5 196/1/5 195/1/5
f 198/1/5 194/1/5 196/1/5
f 198/1/5 196/1/5 197/1/5
f 201/1/5 200/1/5 199/1/5
f 203/1/5 201/1/5 199/1/5
f 203/1/5 202/1/5 201/1/5
f 204/1/5 202/1/5 203/1/5
f 205/2/5 204/2/5 203/2/5
f 206/2/5 204/2/5 205/2/5
f 213/1/5 208/1/5 207/1/5
f 214/1/5 208/1/5 213/1/5
f 215/1/5 210/1/5 209/1/5
f 216/1/5 210/1/5 215/1/5
f 217/1/5 212/1/5 211/1/5
f 218/1/5 212/1/5 217/1/5
f 219/1/6 220/1/6 227/1/6
f 227/1/6 220/1/6 228/1/6
f 225/1/6 226/1/6 229/1/6
f 229/1/6 226/1/6 230/1/6
f 221/1/6 222/1/6 231/1/6
f 231/1/6 222/1/6 232/1/6
f 223/1/6 224/1/6 233/1/6
f 233/1/6 224/1/6 234/1/6
f 235/1/6 236/1/6 241/1/6
f 241/1/6 236/1/6 242/1/6
f 237/1/6 238/1/6 243/1/6
f 243/1/6 238/1/6 244/1/6
f 239/1/6 240/1/6 245/1/6
f 245/1/6 240/1/6 246/1/6
f 247/1/6 248/1/6 251/1/6
f 249/1/6 250/1/6 252/1/6
f 247/1/6 251/1/6 253/1/6
f 253/1/6 251/1/6 254/1/6
f 252/1/6 250/1/6 255/1/6
f 255/1/6 250/1/6 256/1/6
f 247/1/6 253/1/6 257/1/6
f 257/1/6 253/1/6 258/1/6
f 256/1/6 250/1/6 259/1/6
f 259/1/6 250/1/6 260/1/6
f 261/1/6 262/1/6 269/1/6
f 267/1/6 268/1/6 269/1/6
f 266/1/6 267/1/6 269/1/6
f 265/1/6 266/1/6 269/1/6
f 264/1/6 265/1/6 269/1/6
f 263/1/6 264/1/6 269/1/6
f 262/1/6 263/1/6 269/1/6
f 269/1/6 268/1/6 270/1/6
f 271/1/6 272/1/6 277/1/6
f 277/1/6 272/1/6 278/1/6
f 273/1/6 274/1/6 279/1/6
f 279/1/6 274/1/6 280/1/6
f 275/1/6 276/1/6 281/1/6
f 281/1/6 276/1/6 282/1/6
