# MagicaVoxel @ Ephtracy

# group
o 

# material
mtllib table.mtl
usemtl palette

# normals
vn -1 0 0
vn 1 0 0
vn 0 0 1
vn 0 0 -1
vn 0 -1 0
vn 0 1 0

# texcoords
vt 0.0449219 0.5
vt 0.974609 0.5
vt 0.978516 0.5

# verts
v 0.3 2 0
v 0.3 2 -4
v 0.3 3.8 0
v 0.3 3.8 -4
v 0.3 4 0
v 0.3 4 -4
v 0.5 2 -0.2
v 0.5 2 -2.7
v 0.5 3.8 -0.2
v 0.5 3.8 -2.7
v 2.7 3.1 -2.7
v 2.7 3.1 -4
v 2.7 3.2 -2.7
v 2.7 3.2 -4
v 2.7 3.7 -2.7
v 2.7 3.7 -4
v 2.7 3.8 -2.7
v 2.7 3.8 -4
v 2.8 2 0
v 2.8 2 -0.2
v 2.8 2 -2.7
v 2.8 2 -4
v 2.8 2.9 -3.1
v 2.8 2.9 -3.6
v 2.8 3 -3.1
v 2.8 3 -3.6
v 2.8 3.1 -2.7
v 2.8 3.1 -4
v 2.8 3.2 -2.7
v 2.8 3.2 -4
v 2.8 3.5 -3.1
v 2.8 3.5 -3.6
v 2.8 3.6 -3.1
v 2.8 3.6 -3.6
v 2.8 3.7 -2.7
v 2.8 3.7 -4
v 2.8 3.8 0
v 2.8 3.8 -0.2
v 2.8 3.8 -4
v 2.8 4 0
v 2.8 4 -4
v 2.9 2.9 -3.1
v 2.9 2.9 -3.6
v 2.9 3 -3.1
v 2.9 3 -3.6
v 2.9 3.5 -3.1
v 2.9 3.5 -3.6
v 2.9 3.6 -3.1
v 2.9 3.6 -3.6
v 0.3 2 0
v 0.3 3.8 0
v 0.3 4 0
v 2.8 2 0
v 2.8 3.8 0
v 2.8 4 0
v 0.5 2 -2.7
v 0.5 3.8 -2.7
v 2.7 2 -2.7
v 2.7 3.1 -2.7
v 2.7 3.2 -2.7
v 2.7 3.7 -2.7
v 2.7 3.8 -2.7
v 2.8 2 -2.7
v 2.8 3.1 -2.7
v 2.8 3.2 -2.7
v 2.8 3.7 -2.7
v 2.8 2.9 -3.1
v 2.8 3 -3.1
v 2.8 3.5 -3.1
v 2.8 3.6 -3.1
v 2.9 2.9 -3.1
v 2.9 3 -3.1
v 2.9 3.5 -3.1
v 2.9 3.6 -3.1
v 0.5 2 -0.2
v 0.5 3.8 -0.2
v 2.8 2 -0.2
v 2.8 3.8 -0.2
v 2.8 2.9 -3.6
v 2.8 3 -3.6
v 2.8 3.5 -3.6
v 2.8 3.6 -3.6
v 2.9 2.9 -3.6
v 2.9 3 -3.6
v 2.9 3.5 -3.6
v 2.9 3.6 -3.6
v 0.3 2 -4
v 0.3 3.8 -4
v 0.3 4 -4
v 2.7 2 -4
v 2.7 3.1 -4
v 2.7 3.2 -4
v 2.7 3.7 -4
v 2.7 3.8 -4
v 2.8 2 -4
v 2.8 3.1 -4
v 2.8 3.2 -4
v 2.8 3.7 -4
v 2.8 3.8 -4
v 2.8 4 -4
v 0.3 2 0
v 2.8 2 0
v 0.5 2 -0.2
v 2.8 2 -0.2
v 0.5 2 -2.7
v 2.7 2 -2.7
v 2.8 2 -2.7
v 0.4 2 -2.8
v 2.7 2 -2.8
v 0.4 2 -3.9
v 2.7 2 -3.9
v 0.3 2 -4
v 2.7 2 -4
v 2.8 2 -4
v 2.8 2.9 -3.1
v 2.9 2.9 -3.1
v 2.8 2.9 -3.6
v 2.9 2.9 -3.6
v 2.7 3.2 -2.7
v 2.8 3.2 -2.7
v 2.7 3.2 -4
v 2.8 3.2 -4
v 2.8 3.5 -3.1
v 2.9 3.5 -3.1
v 2.8 3.5 -3.6
v 2.9 3.5 -3.6
v 0.5 3.8 -0.2
v 2.8 3.8 -0.2
v 0.5 3.8 -2.7
v 2.7 3.8 -2.7
v 2.7 3.8 -4
v 2.8 3.8 -4
v 2.8 3 -3.1
v 2.9 3 -3.1
v 2.8 3 -3.6
v 2.9 3 -3.6
v 2.7 3.1 -2.7
v 2.8 3.1 -2.7
v 2.7 3.1 -4
v 2.8 3.1 -4
v 2.8 3.6 -3.1
v 2.9 3.6 -3.1
v 2.8 3.6 -3.6
v 2.9 3.6 -3.6
v 2.7 3.7 -2.7
v 2.8 3.7 -2.7
v 2.7 3.7 -4
v 2.8 3.7 -4
v 0.3 4 0
v 2.8 4 0
v 0.3 4 -4
v 2.8 4 -4

# faces
f 3/3/1 2/3/1 1/3/1
f 4/3/1 2/3/1 3/3/1
f 5/1/1 4/1/1 3/1/1
f 6/1/1 4/1/1 5/1/1
f 7/3/2 8/3/2 9/3/2
f 9/3/2 8/3/2 10/3/2
f 11/3/2 12/3/2 13/3/2
f 13/3/2 12/3/2 14/3/2
f 15/3/2 16/3/2 17/3/2
f 17/3/2 16/3/2 18/3/2
f 21/1/2 22/1/2 23/1/2
f 23/1/2 22/1/2 24/1/2
f 21/1/2 23/1/2 25/1/2
f 24/1/2 22/1/2 26/1/2
f 21/1/2 25/1/2 27/1/2
f 25/1/2 26/1/2 27/1/2
f 26/1/2 22/1/2 28/1/2
f 27/1/2 26/1/2 28/1/2
f 29/1/2 30/1/2 31/1/2
f 31/1/2 30/1/2 32/1/2
f 29/1/2 31/1/2 33/1/2
f 32/1/2 30/1/2 34/1/2
f 29/1/2 33/1/2 35/1/2
f 33/1/2 34/1/2 35/1/2
f 34/1/2 30/1/2 36/1/2
f 35/1/2 34/1/2 36/1/2
f 19/3/2 20/3/2 37/3/2
f 37/3/2 20/3/2 38/3/2
f 37/1/2 38/1/2 40/1/2
f 38/1/2 39/1/2 40/1/2
f 40/1/2 39/1/2 41/1/2
f 42/2/2 43/2/2 44/2/2
f 44/2/2 43/2/2 45/2/2
f 46/2/2 47/2/2 48/2/2
f 48/2/2 47/2/2 49/2/2
f 53/3/3 51/3/3 50/3/3
f 54/1/3 52/1/3 51/1/3
f 54/3/3 51/3/3 53/3/3
f 55/1/3 52/1/3 54/1/3
f 58/3/3 57/3/3 56/3/3
f 59/3/3 57/3/3 58/3/3
f 60/3/3 57/3/3 59/3/3
f 61/3/3 57/3/3 60/3/3
f 62/3/3 57/3/3 61/3/3
f 63/1/3 59/1/3 58/1/3
f 64/1/3 59/1/3 63/1/3
f 65/1/3 61/1/3 60/1/3
f 66/1/3 61/1/3 65/1/3
f 71/2/3 68/2/3 67/2/3
f 72/2/3 68/2/3 71/2/3
f 73/2/3 70/2/3 69/2/3
f 74/2/3 70/2/3 73/2/3
f 75/3/4 76/3/4 77/3/4
f 77/3/4 76/3/4 78/3/4
f 79/2/4 80/2/4 83/2/4
f 83/2/4 80/2/4 84/2/4
f 81/2/4 82/2/4 85/2/4
f 85/2/4 82/2/4 86/2/4
f 87/3/4 88/3/4 90/3/4
f 90/3/4 88/3/4 91/3/4
f 91/3/4 88/3/4 92/3/4
f 92/3/4 88/3/4 93/3/4
f 88/1/4 89/1/4 94/1/4
f 93/3/4 88/3/4 94/3/4
f 90/1/4 91/1/4 95/1/4
f 95/1/4 91/1/4 96/1/4
f 92/1/4 93/1/4 97/1/4
f 97/1/4 93/1/4 98/1/4
f 94/1/4 89/1/4 99/1/4
f 99/1/4 89/1/4 100/1/4
f 103/3/5 102/3/5 101/3/5
f 104/3/5 102/3/5 103/3/5
f 105/3/5 103/3/5 101/3/5
f 108/3/5 105/3/5 101/3/5
f 108/3/5 106/3/5 105/3/5
f 109/1/5 107/1/5 106/1/5
f 109/3/5 106/3/5 108/3/5
f 110/3/5 108/3/5 101/3/5
f 110/1/5 109/1/5 108/1/5
f 111/1/5 107/1/5 109/1/5
f 111/1/5 109/1/5 110/1/5
f 112/3/5 110/3/5 101/3/5
f 112/3/5 111/3/5 110/3/5
f 113/1/5 107/1/5 111/1/5
f 113/3/5 111/3/5 112/3/5
f 114/1/5 107/1/5 113/1/5
f 117/2/5 116/2/5 115/2/5
f 118/2/5 116/2/5 117/2/5
f 121/1/5 120/1/5 119/1/5
f 122/1/5 120/1/5 121/1/5
f 125/2/5 124/2/5 123/2/5
f 126/2/5 124/2/5 125/2/5
f 129/1/5 128/1/5 127/1/5
f 130/1/5 128/1/5 129/1/5
f 131/1/5 128/1/5 130/1/5
f 132/1/5 128/1/5 131/1/5
f 133/2/6 134/2/6 135/2/6
f 135/2/6 134/2/6 136/2/6
f 137/1/6 138/1/6 139/1/6
f 139/1/6 138/1/6 140/1/6
f 141/2/6 142/2/6 143/2/6
f 143/2/6 142/2/6 144/2/6
f 145/1/6 146/1/6 147/1/6
f 147/1/6 146/1/6 148/1/6
f 149/1/6 150/1/6 151/1/6
f 151/1/6 150/1/6 152/1/6
