# MagicaVoxel @ Ephtracy

# group
o 

# material
mtllib trashcanv2.mtl
usemtl palette

# normals
vn -1 0 0
vn 1 0 0
vn 0 0 1
vn 0 0 -1
vn 0 -1 0
vn 0 1 0

# texcoords
vt 0.529297 0.5
vt 0.693359 0.5
vt 0.869141 0.5
vt 0.904297 0.5
vt 0.958984 0.5
vt 0.974609 0.5
vt 0.982422 0.5

# verts
v 0.1 3.5 -0.4
v 0.1 3.5 -1.6
v 0.1 3.7 -0.4
v 0.1 3.7 -1.6
v 0.2 2 -0.5
v 0.2 2 -1.5
v 0.2 3.5 -0.5
v 0.2 3.5 -1.5
v 0.3 3.7 -1
v 0.3 3.7 -1.3
v 0.3 3.8 -1
v 0.3 3.8 -1.3
v 0.5 3 -1
v 0.5 3 -1.1
v 0.5 3.1 -1
v 0.5 3.1 -1.1
v 0.5 3.1 -1.2
v 0.5 3.3 -1.1
v 0.5 3.3 -1.2
v 0.5 3.6 -0.6
v 0.5 3.6 -0.7
v 0.5 3.6 -0.9
v 0.5 3.7 -0.6
v 0.5 3.7 -0.9
v 0.6 3.7 -1.3
v 0.6 3.7 -1.4
v 0.6 3.8 -1.3
v 0.6 3.8 -1.4
v 0.8 3.1 -1.2
v 0.8 3.1 -1.3
v 0.8 3.3 -1.2
v 0.8 3.3 -1.3
v 0.9 2.8 -0.7
v 0.9 2.8 -0.9
v 0.9 3 -0.7
v 0.9 3 -0.9
v 0.9 3 -1.1
v 0.9 3 -1.3
v 0.9 3.1 -1.1
v 0.9 3.1 -1.3
v 1 2.8 -0.9
v 1 2.8 -1
v 1 3 -0.7
v 1 3 -0.9
v 1 3 -1
v 1 3.1 -0.8
v 1 3.1 -0.9
v 1 3.2 -0.7
v 1 3.2 -0.8
v 1 3.5 -0.7
v 1 3.5 -0.8
v 1 3.6 -0.7
v 1 3.6 -0.8
v 1.2 3.1 -0.9
v 1.2 3.1 -1
v 1.2 3.2 -0.9
v 1.2 3.2 -1
v 1.2 3.5 -0.9
v 1.2 3.5 -1
v 1.2 3.5 -1.1
v 1.2 3.5 -1.2
v 1.2 3.6 -0.9
v 1.2 3.6 -1.2
v 1.3 2.8 -1
v 1.3 2.8 -1.2
v 1.3 3 -1
v 1.3 3 -1.2
v 1.3 3.5 -1.2
v 1.3 3.5 -1.3
v 1.3 3.6 -1.2
v 1.3 3.6 -1.3
v 1.4 2.8 -1.2
v 1.4 2.8 -1.3
v 1.4 3 -0.7
v 1.4 3 -1.2
v 1.4 3 -1.3
v 1.4 3.1 -0.7
v 1.4 3.1 -0.9
v 1.4 3.1 -1.2
v 1.4 3.6 -1.1
v 1.4 3.6 -1.3
v 1.4 3.6 -1.4
v 1.4 3.7 -1.1
v 1.4 3.7 -1.4
v 1.6 2.8 -0.7
v 1.6 2.8 -0.8
v 1.6 3 -0.7
v 1.6 3 -0.8
v 1.6 3 -1.2
v 1.6 3 -1.3
v 1.6 3.1 -1
v 1.6 3.1 -1.2
v 1.6 3.2 -1
v 1.6 3.2 -1.1
v 1.6 3.2 -1.3
v 1.6 3.5 -0.7
v 1.6 3.5 -0.9
v 1.6 3.5 -1
v 1.6 3.6 -0.7
v 1.6 3.6 -1
v 1.7 3.6 -0.6
v 1.7 3.6 -1.1
v 1.7 3.7 -0.6
v 1.7 3.7 -1.1
v 0.3 3.6 -0.6
v 0.3 3.6 -0.9
v 0.3 3.7 -0.6
v 0.3 3.7 -0.9
v 0.4 2.8 -0.9
v 0.4 2.8 -1
v 0.4 2.9 -0.9
v 0.4 2.9 -1
v 0.4 3 -1
v 0.4 3 -1.1
v 0.4 3.1 -1
v 0.4 3.1 -1.1
v 0.4 3.1 -1.3
v 0.4 3.3 -1.1
v 0.4 3.3 -1.3
v 0.6 3.6 -0.9
v 0.6 3.6 -1
v 0.6 3.7 -0.9
v 0.6 3.7 -1
v 0.6 3.7 -1.1
v 0.6 3.8 -1
v 0.6 3.8 -1.1
v 0.7 2.8 -0.7
v 0.7 2.8 -0.9
v 0.7 2.8 -1
v 0.7 2.8 -1.1
v 0.7 2.9 -0.7
v 0.7 2.9 -0.9
v 0.7 2.9 -1
v 0.7 3 -0.9
v 0.7 3 -1.1
v 0.7 3 -1.3
v 0.7 3.1 -1.1
v 0.7 3.1 -1.2
v 0.7 3.1 -1.3
v 0.8 2.8 -1.1
v 0.8 2.8 -1.3
v 0.8 2.9 -0.7
v 0.8 2.9 -0.9
v 0.8 3 -0.9
v 0.8 3 -1.1
v 0.8 3 -1.3
v 0.8 3.1 -0.8
v 0.8 3.1 -1.1
v 0.8 3.2 -0.7
v 0.8 3.2 -0.8
v 0.8 3.6 -0.6
v 0.8 3.6 -0.7
v 0.8 3.6 -0.8
v 0.8 3.6 -0.9
v 0.8 3.7 -0.6
v 0.8 3.7 -0.9
v 0.9 3.5 -0.7
v 0.9 3.5 -0.8
v 0.9 3.6 -0.7
v 0.9 3.6 -0.8
v 0.9 3.6 -1
v 0.9 3.6 -1.1
v 0.9 3.7 -1
v 0.9 3.7 -1.1
v 0.9 3.7 -1.4
v 0.9 3.8 -1.1
v 0.9 3.8 -1.4
v 1 3.5 -1.1
v 1 3.5 -1.3
v 1 3.6 -1.1
v 1 3.6 -1.3
v 1 3.6 -1.4
v 1 3.7 -1.1
v 1 3.7 -1.4
v 1.1 3.1 -0.9
v 1.1 3.1 -1
v 1.1 3.2 -0.9
v 1.1 3.2 -1
v 1.1 3.5 -0.9
v 1.1 3.5 -1
v 1.1 3.5 -1.1
v 1.1 3.6 -0.9
v 1.1 3.6 -1.1
v 1.2 3 -1.1
v 1.2 3 -1.3
v 1.2 3.1 -1.1
v 1.2 3.1 -1.3
v 1.3 3 -0.7
v 1.3 3 -0.9
v 1.3 3.1 -0.7
v 1.3 3.1 -0.9
v 1.3 3.1 -1.2
v 1.3 3.1 -1.3
v 1.3 3.2 -1.2
v 1.3 3.2 -1.3
v 1.3 3.5 -0.7
v 1.3 3.5 -0.9
v 1.3 3.6 -0.7
v 1.3 3.6 -0.9
v 1.4 2.8 -0.7
v 1.4 2.8 -0.8
v 1.4 3 -0.7
v 1.4 3 -0.8
v 1.5 3.1 -1
v 1.5 3.1 -1.2
v 1.5 3.2 -1
v 1.5 3.2 -1.1
v 1.5 3.2 -1.2
v 1.5 3.5 -0.9
v 1.5 3.5 -1
v 1.5 3.6 -0.9
v 1.5 3.6 -1
v 1.8 2 -0.5
v 1.8 2 -1.5
v 1.8 3.5 -0.5
v 1.8 3.5 -1.5
v 1.9 3.5 -0.4
v 1.9 3.5 -1.6
v 1.9 3.7 -0.4
v 1.9 3.7 -1.6
v 0.1 3.5 -0.4
v 0.1 3.7 -0.4
v 1.9 3.5 -0.4
v 1.9 3.7 -0.4
v 0.2 2 -0.5
v 0.2 3.5 -0.5
v 1.8 2 -0.5
v 1.8 3.5 -0.5
v 0.8 3.1 -0.8
v 0.8 3.2 -0.8
v 0.9 3.1 -0.8
v 0.9 3.2 -0.8
v 0.9 3.5 -0.8
v 0.9 3.6 -0.8
v 1 3.1 -0.8
v 1 3.2 -0.8
v 1 3.5 -0.8
v 1 3.6 -0.8
v 1.4 2.8 -0.8
v 1.4 3 -0.8
v 1.6 2.8 -0.8
v 1.6 3 -0.8
v 0.3 3.6 -0.9
v 0.3 3.7 -0.9
v 0.4 3.6 -0.9
v 0.5 3.6 -0.9
v 0.5 3.7 -0.9
v 1.3 3.5 -0.9
v 1.3 3.6 -0.9
v 1.5 3.5 -0.9
v 1.5 3.6 -0.9
v 0.3 3.7 -1
v 0.3 3.8 -1
v 0.4 2.8 -1
v 0.4 2.9 -1
v 0.6 3.6 -1
v 0.6 3.7 -1
v 0.6 3.8 -1
v 0.7 2.8 -1
v 0.7 2.9 -1
v 0.7 3.6 -1
v 0.7 3.7 -1
v 0.8 3.6 -1
v 0.9 3.6 -1
v 0.9 3.7 -1
v 1.1 3.1 -1
v 1.1 3.2 -1
v 1.2 3.1 -1
v 1.2 3.2 -1
v 1.5 3.5 -1
v 1.5 3.6 -1
v 1.6 3.5 -1
v 1.6 3.6 -1
v 0.4 3 -1.1
v 0.4 3.1 -1.1
v 0.5 3 -1.1
v 0.5 3.1 -1.1
v 0.6 3.7 -1.1
v 0.6 3.8 -1.1
v 0.7 2.8 -1.1
v 0.7 3 -1.1
v 0.7 3.7 -1.1
v 0.8 2.8 -1.1
v 0.8 3 -1.1
v 0.9 3 -1.1
v 0.9 3.1 -1.1
v 0.9 3.6 -1.1
v 0.9 3.7 -1.1
v 0.9 3.8 -1.1
v 1 3.6 -1.1
v 1 3.7 -1.1
v 1.2 3 -1.1
v 1.2 3.1 -1.1
v 1.4 3.6 -1.1
v 1.4 3.7 -1.1
v 1.6 3.6 -1.1
v 1.7 3.6 -1.1
v 1.7 3.7 -1.1
v 0.4 3.1 -1.3
v 0.4 3.3 -1.3
v 0.6 3.3 -1.3
v 0.7 3 -1.3
v 0.7 3.1 -1.3
v 0.8 2.8 -1.3
v 0.8 3 -1.3
v 0.8 3.1 -1.3
v 0.8 3.3 -1.3
v 0.9 3 -1.3
v 0.9 3.1 -1.3
v 1 3.5 -1.3
v 1 3.6 -1.3
v 1.2 3 -1.3
v 1.2 3.1 -1.3
v 1.2 3.5 -1.3
v 1.3 3.1 -1.3
v 1.3 3.2 -1.3
v 1.3 3.5 -1.3
v 1.3 3.6 -1.3
v 1.4 2.8 -1.3
v 1.4 3 -1.3
v 1.4 3.2 -1.3
v 1.6 3 -1.3
v 1.6 3.2 -1.3
v 1 3.6 -1.4
v 1 3.7 -1.4
v 1.4 3.6 -1.4
v 1.4 3.7 -1.4
v 0.3 3.6 -0.6
v 0.3 3.7 -0.6
v 0.5 3.6 -0.6
v 0.5 3.7 -0.6
v 0.8 3.6 -0.6
v 0.8 3.7 -0.6
v 1.7 3.6 -0.6
v 1.7 3.7 -0.6
v 0.7 2.8 -0.7
v 0.7 2.9 -0.7
v 0.8 2.9 -0.7
v 0.8 3.2 -0.7
v 0.9 2.8 -0.7
v 0.9 3 -0.7
v 0.9 3.2 -0.7
v 0.9 3.5 -0.7
v 0.9 3.6 -0.7
v 1 3 -0.7
v 1 3.2 -0.7
v 1 3.5 -0.7
v 1 3.6 -0.7
v 1.3 3 -0.7
v 1.3 3.1 -0.7
v 1.3 3.5 -0.7
v 1.3 3.6 -0.7
v 1.4 2.8 -0.7
v 1.4 3 -0.7
v 1.4 3.1 -0.7
v 1.6 2.8 -0.7
v 1.6 3 -0.7
v 1.6 3.5 -0.7
v 1.6 3.6 -0.7
v 0.4 2.8 -0.9
v 0.4 2.9 -0.9
v 0.6 3.6 -0.9
v 0.6 3.7 -0.9
v 0.7 2.8 -0.9
v 0.7 2.9 -0.9
v 0.7 3 -0.9
v 0.8 2.9 -0.9
v 0.8 3 -0.9
v 0.8 3.6 -0.9
v 0.8 3.7 -0.9
v 0.9 2.8 -0.9
v 0.9 3 -0.9
v 1 2.8 -0.9
v 1 3 -0.9
v 1 3.1 -0.9
v 1.1 3.1 -0.9
v 1.1 3.2 -0.9
v 1.1 3.5 -0.9
v 1.1 3.6 -0.9
v 1.2 3.1 -0.9
v 1.2 3.2 -0.9
v 1.2 3.5 -0.9
v 1.2 3.6 -0.9
v 1.3 3 -0.9
v 1.3 3.1 -0.9
v 0.4 3 -1
v 0.4 3.1 -1
v 0.5 3 -1
v 0.5 3.1 -1
v 1 2.8 -1
v 1 3 -1
v 1.3 2.8 -1
v 1.3 3 -1
v 1.5 3.1 -1
v 1.5 3.2 -1
v 1.6 3.1 -1
v 1.6 3.2 -1
v 0.4 3.1 -1.1
v 0.4 3.3 -1.1
v 0.5 3.1 -1.1
v 0.5 3.3 -1.1
v 0.7 3 -1.1
v 0.7 3.1 -1.1
v 0.8 3 -1.1
v 0.8 3.1 -1.1
v 1 3.5 -1.1
v 1 3.6 -1.1
v 1.1 3.5 -1.1
v 1.1 3.6 -1.1
v 0.5 3.1 -1.2
v 0.5 3.3 -1.2
v 0.6 3.3 -1.2
v 0.7 3.1 -1.2
v 0.8 3.1 -1.2
v 0.8 3.3 -1.2
v 1.2 3.5 -1.2
v 1.2 3.6 -1.2
v 1.3 2.8 -1.2
v 1.3 3 -1.2
v 1.3 3.1 -1.2
v 1.3 3.2 -1.2
v 1.3 3.5 -1.2
v 1.3 3.6 -1.2
v 1.4 2.8 -1.2
v 1.4 3 -1.2
v 1.4 3.1 -1.2
v 1.4 3.2 -1.2
v 1.5 3.1 -1.2
v 1.5 3.2 -1.2
v 1.6 3 -1.2
v 1.6 3.1 -1.2
v 0.3 3.7 -1.3
v 0.3 3.8 -1.3
v 0.6 3.7 -1.3
v 0.6 3.8 -1.3
v 0.6 3.7 -1.4
v 0.6 3.8 -1.4
v 0.9 3.7 -1.4
v 0.9 3.8 -1.4
v 0.2 2 -1.5
v 0.2 3.5 -1.5
v 1.8 2 -1.5
v 1.8 3.5 -1.5
v 0.1 3.5 -1.6
v 0.1 3.7 -1.6
v 1.9 3.5 -1.6
v 1.9 3.7 -1.6
v 0.2 2 -0.5
v 1.8 2 -0.5
v 0.2 2 -1.5
v 1.8 2 -1.5
v 0.7 2.9 -0.7
v 0.8 2.9 -0.7
v 0.4 2.9 -0.9
v 0.7 2.9 -0.9
v 0.8 2.9 -0.9
v 0.4 2.9 -1
v 0.7 2.9 -1
v 1.4 3 -0.7
v 1.6 3 -0.7
v 1.4 3 -0.8
v 1.6 3 -0.8
v 0.7 3 -0.9
v 0.8 3 -0.9
v 0.7 3 -1.1
v 0.8 3 -1.1
v 0.9 3 -1.1
v 1.2 3 -1.1
v 0.9 3 -1.3
v 1.2 3 -1.3
v 1.3 3.1 -0.7
v 1.4 3.1 -0.7
v 0.8 3.1 -0.8
v 0.9 3.1 -0.8
v 1 3.1 -0.8
v 1 3.1 -0.9
v 1.1 3.1 -0.9
v 1.2 3.1 -0.9
v 1.3 3.1 -0.9
v 1.4 3.1 -0.9
v 0.4 3.1 -1
v 0.5 3.1 -1
v 0.9 3.1 -1
v 1.1 3.1 -1
v 1.2 3.1 -1
v 0.4 3.1 -1.1
v 0.5 3.1 -1.1
v 0.7 3.1 -1.1
v 0.8 3.1 -1.1
v 0.9 3.1 -1.1
v 1.2 3.1 -1.1
v 1.3 3.1 -1.1
v 0.7 3.1 -1.2
v 0.8 3.1 -1.2
v 1.3 3.1 -1.2
v 1.4 3.1 -1.2
v 0.8 3.1 -1.3
v 0.9 3.1 -1.3
v 1.2 3.1 -1.3
v 1.3 3.1 -1.3
v 0.8 3.2 -0.7
v 0.9 3.2 -0.7
v 1 3.2 -0.7
v 0.8 3.2 -0.8
v 0.9 3.2 -0.8
v 1 3.2 -0.8
v 1.1 3.2 -0.9
v 1.2 3.2 -0.9
v 1.1 3.2 -1
v 1.2 3.2 -1
v 1.5 3.2 -1
v 1.6 3.2 -1
v 1.5 3.2 -1.1
v 1.6 3.2 -1.1
v 1.3 3.2 -1.2
v 1.4 3.2 -1.2
v 1.5 3.2 -1.2
v 1.3 3.2 -1.3
v 1.4 3.2 -1.3
v 1.6 3.2 -1.3
v 0.4 3.3 -1.1
v 0.5 3.3 -1.1
v 0.5 3.3 -1.2
v 0.6 3.3 -1.2
v 0.8 3.3 -1.2
v 0.4 3.3 -1.3
v 0.6 3.3 -1.3
v 0.8 3.3 -1.3
v 0.1 3.5 -0.4
v 1.9 3.5 -0.4
v 0.2 3.5 -0.5
v 1.8 3.5 -0.5
v 0.2 3.5 -1.5
v 1.8 3.5 -1.5
v 0.1 3.5 -1.6
v 1.9 3.5 -1.6
v 0.7 2.8 -0.7
v 0.9 2.8 -0.7
v 1.4 2.8 -0.7
v 1.6 2.8 -0.7
v 1.4 2.8 -0.8
v 1.6 2.8 -0.8
v 0.4 2.8 -0.9
v 0.7 2.8 -0.9
v 0.9 2.8 -0.9
v 1 2.8 -0.9
v 0.4 2.8 -1
v 0.7 2.8 -1
v 1 2.8 -1
v 1.3 2.8 -1
v 0.7 2.8 -1.1
v 0.8 2.8 -1.1
v 1.3 2.8 -1.2
v 1.4 2.8 -1.2
v 0.8 2.8 -1.3
v 1.4 2.8 -1.3
v 0.9 3 -0.7
v 1 3 -0.7
v 1.3 3 -0.7
v 1.4 3 -0.7
v 0.9 3 -0.9
v 1 3 -0.9
v 1.3 3 -0.9
v 0.4 3 -1
v 0.5 3 -1
v 1 3 -1
v 1.3 3 -1
v 0.4 3 -1.1
v 0.5 3 -1.1
v 0.7 3 -1.1
v 0.8 3 -1.1
v 1.3 3 -1.2
v 1.4 3 -1.2
v 1.6 3 -1.2
v 0.7 3 -1.3
v 0.8 3 -1.3
v 1.4 3 -1.3
v 1.6 3 -1.3
v 1.5 3.1 -1
v 1.6 3.1 -1
v 0.4 3.1 -1.1
v 0.5 3.1 -1.1
v 0.5 3.1 -1.2
v 0.7 3.1 -1.2
v 1.5 3.1 -1.2
v 1.6 3.1 -1.2
v 0.4 3.1 -1.3
v 0.7 3.1 -1.3
v 0.9 3.5 -0.7
v 1 3.5 -0.7
v 1.3 3.5 -0.7
v 1.6 3.5 -0.7
v 0.9 3.5 -0.8
v 1 3.5 -0.8
v 1.1 3.5 -0.9
v 1.2 3.5 -0.9
v 1.3 3.5 -0.9
v 1.5 3.5 -0.9
v 1.6 3.5 -0.9
v 1.1 3.5 -1
v 1.2 3.5 -1
v 1.5 3.5 -1
v 1.6 3.5 -1
v 1 3.5 -1.1
v 1.1 3.5 -1.1
v 1.2 3.5 -1.1
v 1.2 3.5 -1.2
v 1.3 3.5 -1.2
v 1 3.5 -1.3
v 1.2 3.5 -1.3
v 1.3 3.5 -1.3
v 0.3 3.6 -0.6
v 0.5 3.6 -0.6
v 0.8 3.6 -0.6
v 1.7 3.6 -0.6
v 0.4 3.6 -0.7
v 0.5 3.6 -0.7
v 0.8 3.6 -0.7
v 0.9 3.6 -0.7
v 1 3.6 -0.7
v 1.3 3.6 -0.7
v 1.6 3.6 -0.7
v 0.8 3.6 -0.8
v 0.9 3.6 -0.8
v 1 3.6 -0.8
v 0.3 3.6 -0.9
v 0.4 3.6 -0.9
v 0.5 3.6 -0.9
v 0.6 3.6 -0.9
v 0.8 3.6 -0.9
v 1 3.6 -0.9
v 1.1 3.6 -0.9
v 1.2 3.6 -0.9
v 1.3 3.6 -0.9
v 1.5 3.6 -0.9
v 0.6 3.6 -1
v 0.7 3.6 -1
v 0.8 3.6 -1
v 0.9 3.6 -1
v 1.4 3.6 -1
v 1.5 3.6 -1
v 1.6 3.6 -1
v 0.9 3.6 -1.1
v 1 3.6 -1.1
v 1.1 3.6 -1.1
v 1.3 3.6 -1.1
v 1.4 3.6 -1.1
v 1.6 3.6 -1.1
v 1.7 3.6 -1.1
v 1.2 3.6 -1.2
v 1.3 3.6 -1.2
v 1 3.6 -1.3
v 1.3 3.6 -1.3
v 1.4 3.6 -1.3
v 1 3.6 -1.4
v 1.4 3.6 -1.4
v 0.1 3.7 -0.4
v 1.9 3.7 -0.4
v 0.3 3.7 -0.6
v 0.5 3.7 -0.6
v 0.8 3.7 -0.6
v 1.7 3.7 -0.6
v 0.3 3.7 -0.9
v 0.5 3.7 -0.9
v 0.6 3.7 -0.9
v 0.8 3.7 -0.9
v 0.3 3.7 -1
v 0.6 3.7 -1
v 0.7 3.7 -1
v 0.9 3.7 -1
v 0.6 3.7 -1.1
v 0.7 3.7 -1.1
v 0.9 3.7 -1.1
v 1 3.7 -1.1
v 1.4 3.7 -1.1
v 1.7 3.7 -1.1
v 0.3 3.7 -1.3
v 0.6 3.7 -1.3
v 0.3 3.7 -1.4
v 0.6 3.7 -1.4
v 0.9 3.7 -1.4
v 1 3.7 -1.4
v 1.4 3.7 -1.4
v 1.7 3.7 -1.4
v 0.1 3.7 -1.6
v 1.9 3.7 -1.6
v 0.3 3.8 -1
v 0.6 3.8 -1
v 0.6 3.8 -1.1
v 0.9 3.8 -1.1
v 0.3 3.8 -1.3
v 0.6 3.8 -1.3
v 0.6 3.8 -1.4
v 0.9 3.8 -1.4

# faces
f 3/5/1 2/5/1 1/5/1
f 4/5/1 2/5/1 3/5/1
f 7/7/1 6/7/1 5/7/1
f 8/7/1 6/7/1 7/7/1
f 11/6/1 10/6/1 9/6/1
f 12/6/1 10/6/1 11/6/1
f 15/6/1 14/6/1 13/6/1
f 16/6/1 14/6/1 15/6/1
f 18/6/1 17/6/1 16/6/1
f 19/6/1 17/6/1 18/6/1
f 23/2/1 21/2/1 20/2/1
f 23/2/1 22/2/1 21/2/1
f 24/2/1 22/2/1 23/2/1
f 27/1/1 26/1/1 25/1/1
f 28/1/1 26/1/1 27/1/1
f 31/6/1 30/6/1 29/6/1
f 32/6/1 30/6/1 31/6/1
f 35/6/1 34/6/1 33/6/1
f 36/6/1 34/6/1 35/6/1
f 39/6/1 38/6/1 37/6/1
f 40/6/1 38/6/1 39/6/1
f 44/6/1 42/6/1 41/6/1
f 45/6/1 42/6/1 44/6/1
f 46/6/1 44/6/1 43/6/1
f 47/6/1 44/6/1 46/6/1
f 48/6/1 46/6/1 43/6/1
f 49/6/1 46/6/1 48/6/1
f 52/6/1 51/6/1 50/6/1
f 53/6/1 51/6/1 52/6/1
f 56/4/1 55/4/1 54/4/1
f 57/4/1 55/4/1 56/4/1
f 62/4/1 59/4/1 58/4/1
f 62/4/1 61/4/1 60/4/1
f 62/4/1 60/4/1 59/4/1
f 63/4/1 61/4/1 62/4/1
f 66/6/1 65/6/1 64/6/1
f 67/6/1 65/6/1 66/6/1
f 70/6/1 69/6/1 68/6/1
f 71/6/1 69/6/1 70/6/1
f 75/6/1 73/6/1 72/6/1
f 76/6/1 73/6/1 75/6/1
f 77/6/1 75/6/1 74/6/1
f 78/6/1 75/6/1 77/6/1
f 79/6/1 75/6/1 78/6/1
f 83/6/1 81/6/1 80/6/1
f 83/6/1 82/6/1 81/6/1
f 84/6/1 82/6/1 83/6/1
f 87/5/1 86/5/1 85/5/1
f 88/5/1 86/5/1 87/5/1
f 92/5/1 90/5/1 89/5/1
f 93/5/1 92/5/1 91/5/1
f 94/5/1 92/5/1 93/5/1
f 95/5/1 90/5/1 92/5/1
f 95/5/1 92/5/1 94/5/1
f 99/5/1 97/5/1 96/5/1
f 99/5/1 98/5/1 97/5/1
f 100/5/1 98/5/1 99/5/1
f 103/5/1 102/5/1 101/5/1
f 104/5/1 102/5/1 103/5/1
f 105/5/2 106/5/2 107/5/2
f 107/5/2 106/5/2 108/5/2
f 109/5/2 110/5/2 111/5/2
f 111/5/2 110/5/2 112/5/2
f 113/5/2 114/5/2 115/5/2
f 115/5/2 114/5/2 116/5/2
f 116/5/2 117/5/2 118/5/2
f 118/5/2 117/5/2 119/5/2
f 120/6/2 121/6/2 122/6/2
f 122/6/2 121/6/2 123/6/2
f 123/6/2 124/6/2 125/6/2
f 125/6/2 124/6/2 126/6/2
f 127/6/2 128/6/2 131/6/2
f 131/6/2 128/6/2 132/6/2
f 129/6/2 130/6/2 133/6/2
f 132/6/2 133/6/2 134/6/2
f 133/6/2 130/6/2 135/6/2
f 134/6/2 133/6/2 135/6/2
f 135/6/2 136/6/2 137/6/2
f 137/6/2 136/6/2 138/6/2
f 138/6/2 136/6/2 139/6/2
f 142/6/2 143/6/2 144/6/2
f 140/6/2 141/6/2 145/6/2
f 145/6/2 141/6/2 146/6/2
f 142/6/2 144/6/2 147/6/2
f 144/6/2 145/6/2 147/6/2
f 147/6/2 145/6/2 148/6/2
f 142/6/2 147/6/2 149/6/2
f 149/6/2 147/6/2 150/6/2
f 152/2/2 153/2/2 155/2/2
f 153/2/2 154/2/2 155/2/2
f 151/2/2 152/2/2 155/2/2
f 155/2/2 154/2/2 156/2/2
f 157/2/2 158/2/2 159/2/2
f 159/2/2 158/2/2 160/2/2
f 161/1/2 162/1/2 163/1/2
f 163/1/2 162/1/2 164/1/2
f 164/1/2 165/1/2 166/1/2
f 166/1/2 165/1/2 167/1/2
f 168/1/2 169/1/2 170/1/2
f 170/1/2 169/1/2 171/1/2
f 170/1/2 171/1/2 173/1/2
f 171/1/2 172/1/2 173/1/2
f 173/1/2 172/1/2 174/1/2
f 175/3/2 176/3/2 177/3/2
f 177/3/2 176/3/2 178/3/2
f 179/3/2 180/3/2 182/3/2
f 180/3/2 181/3/2 182/3/2
f 182/3/2 181/3/2 183/3/2
f 184/6/2 185/6/2 186/6/2
f 186/6/2 185/6/2 187/6/2
f 188/6/2 189/6/2 190/6/2
f 190/6/2 189/6/2 191/6/2
f 192/6/2 193/6/2 194/6/2
f 194/6/2 193/6/2 195/6/2
f 196/6/2 197/6/2 198/6/2
f 198/6/2 197/6/2 199/6/2
f 200/6/2 201/6/2 202/6/2
f 202/6/2 201/6/2 203/6/2
f 204/4/2 205/4/2 206/4/2
f 206/4/2 205/4/2 207/4/2
f 207/4/2 205/4/2 208/4/2
f 209/4/2 210/4/2 211/4/2
f 211/4/2 210/4/2 212/4/2
f 213/7/2 214/7/2 215/7/2
f 215/7/2 214/7/2 216/7/2
f 217/5/2 218/5/2 219/5/2
f 219/5/2 218/5/2 220/5/2
f 223/5/3 222/5/3 221/5/3
f 224/5/3 222/5/3 223/5/3
f 227/7/3 226/7/3 225/7/3
f 228/7/3 226/7/3 227/7/3
f 231/6/3 230/6/3 229/6/3
f 232/6/3 230/6/3 231/6/3
f 235/3/3 232/3/3 231/3/3
f 236/3/3 232/3/3 235/3/3
f 237/3/3 234/3/3 233/3/3
f 238/3/3 234/3/3 237/3/3
f 241/6/3 240/6/3 239/6/3
f 242/6/3 240/6/3 241/6/3
f 245/6/3 244/6/3 243/6/3
f 246/6/3 244/6/3 245/6/3
f 247/6/3 244/6/3 246/6/3
f 250/4/3 249/4/3 248/4/3
f 251/4/3 249/4/3 250/4/3
f 257/6/3 253/6/3 252/6/3
f 258/6/3 253/6/3 257/6/3
f 259/6/3 255/6/3 254/6/3
f 260/6/3 255/6/3 259/6/3
f 261/6/3 257/6/3 256/6/3
f 262/6/3 257/6/3 261/6/3
f 263/1/3 262/1/3 261/1/3
f 264/1/3 262/1/3 263/1/3
f 265/1/3 262/1/3 264/1/3
f 268/6/3 267/6/3 266/6/3
f 269/6/3 267/6/3 268/6/3
f 272/6/3 271/6/3 270/6/3
f 273/6/3 271/6/3 272/6/3
f 276/6/3 275/6/3 274/6/3
f 277/6/3 275/6/3 276/6/3
f 282/1/3 279/1/3 278/1/3
f 283/6/3 281/6/3 280/6/3
f 284/6/3 281/6/3 283/6/3
f 288/1/3 279/1/3 282/1/3
f 289/1/3 279/1/3 288/1/3
f 290/1/3 288/1/3 287/1/3
f 291/1/3 288/1/3 290/1/3
f 292/6/3 286/6/3 285/6/3
f 293/6/3 286/6/3 292/6/3
f 296/6/3 295/6/3 294/6/3
f 297/6/3 295/6/3 296/6/3
f 298/6/3 295/6/3 297/6/3
f 301/5/3 300/5/3 299/5/3
f 303/5/3 301/5/3 299/5/3
f 305/5/3 303/5/3 302/5/3
f 306/5/3 301/5/3 303/5/3
f 306/5/3 303/5/3 305/5/3
f 307/5/3 301/5/3 306/5/3
f 308/5/3 305/5/3 304/5/3
f 308/5/3 306/5/3 305/5/3
f 309/5/3 306/5/3 308/5/3
f 312/5/3 308/5/3 304/5/3
f 314/5/3 311/5/3 310/5/3
f 315/5/3 313/5/3 312/5/3
f 317/5/3 311/5/3 314/5/3
f 318/5/3 311/5/3 317/5/3
f 319/5/3 316/5/3 315/5/3
f 319/5/3 312/5/3 304/5/3
f 319/5/3 315/5/3 312/5/3
f 320/5/3 316/5/3 319/5/3
f 321/5/3 316/5/3 320/5/3
f 322/5/3 321/5/3 320/5/3
f 323/5/3 321/5/3 322/5/3
f 326/5/3 325/5/3 324/5/3
f 327/5/3 325/5/3 326/5/3
f 328/5/4 329/5/4 330/5/4
f 330/5/4 329/5/4 331/5/4
f 332/5/4 333/5/4 334/5/4
f 334/5/4 333/5/4 335/5/4
f 336/5/4 337/5/4 338/5/4
f 336/5/4 338/5/4 340/5/4
f 338/5/4 339/5/4 340/5/4
f 340/5/4 339/5/4 341/5/4
f 341/5/4 339/5/4 342/5/4
f 341/5/4 342/5/4 345/5/4
f 345/5/4 342/5/4 346/5/4
f 343/5/4 344/5/4 347/5/4
f 347/5/4 344/5/4 348/5/4
f 349/5/4 350/5/4 354/5/4
f 354/5/4 350/5/4 355/5/4
f 353/5/4 354/5/4 356/5/4
f 356/5/4 354/5/4 357/5/4
f 351/5/4 352/5/4 358/5/4
f 358/5/4 352/5/4 359/5/4
f 360/6/4 361/6/4 364/6/4
f 364/6/4 361/6/4 365/6/4
f 365/6/4 366/6/4 367/6/4
f 367/6/4 366/6/4 368/6/4
f 362/2/4 363/2/4 369/2/4
f 369/2/4 363/2/4 370/2/4
f 371/6/4 372/6/4 373/6/4
f 373/6/4 372/6/4 374/6/4
f 374/6/4 375/6/4 376/6/4
f 374/6/4 376/6/4 380/6/4
f 376/6/4 377/6/4 380/6/4
f 380/6/4 377/6/4 381/6/4
f 378/6/4 379/6/4 382/6/4
f 382/6/4 379/6/4 383/6/4
f 374/6/4 380/6/4 384/6/4
f 384/6/4 380/6/4 385/6/4
f 386/6/4 387/6/4 388/6/4
f 388/6/4 387/6/4 389/6/4
f 390/6/4 391/6/4 392/6/4
f 392/6/4 391/6/4 393/6/4
f 394/6/4 395/6/4 396/6/4
f 396/6/4 395/6/4 397/6/4
f 398/6/4 399/6/4 400/6/4
f 400/6/4 399/6/4 401/6/4
f 402/6/4 403/6/4 404/6/4
f 404/6/4 403/6/4 405/6/4
f 406/3/4 407/3/4 408/3/4
f 408/3/4 407/3/4 409/3/4
f 410/6/4 411/6/4 412/6/4
f 410/6/4 412/6/4 413/6/4
f 413/6/4 412/6/4 414/6/4
f 414/6/4 412/6/4 415/6/4
f 416/4/4 417/4/4 422/4/4
f 422/4/4 417/4/4 423/4/4
f 418/6/4 419/6/4 424/6/4
f 424/6/4 419/6/4 425/6/4
f 420/4/4 421/4/4 426/4/4
f 426/4/4 421/4/4 427/4/4
f 425/6/4 426/6/4 428/6/4
f 426/4/4 427/4/4 428/4/4
f 428/4/4 427/4/4 429/4/4
f 425/6/4 428/6/4 430/6/4
f 430/6/4 428/6/4 431/6/4
f 432/6/4 433/6/4 434/6/4
f 434/6/4 433/6/4 435/6/4
f 436/1/4 437/1/4 438/1/4
f 438/1/4 437/1/4 439/1/4
f 440/7/4 441/7/4 442/7/4
f 442/7/4 441/7/4 443/7/4
f 444/5/4 445/5/4 446/5/4
f 446/5/4 445/5/4 447/5/4
f 450/7/5 449/7/5 448/7/5
f 451/7/5 449/7/5 450/7/5
f 455/6/5 453/6/5 452/6/5
f 456/6/5 453/6/5 455/6/5
f 457/6/5 455/6/5 454/6/5
f 458/6/5 455/6/5 457/6/5
f 461/6/5 460/6/5 459/6/5
f 462/6/5 460/6/5 461/6/5
f 465/6/5 464/6/5 463/6/5
f 466/6/5 464/6/5 465/6/5
f 469/6/5 468/6/5 467/6/5
f 470/6/5 468/6/5 469/6/5
f 476/3/5 475/3/5 474/3/5
f 479/6/5 472/6/5 471/6/5
f 480/6/5 472/6/5 479/6/5
f 483/3/5 477/3/5 476/3/5
f 483/6/5 474/6/5 473/6/5
f 483/3/5 476/3/5 474/3/5
f 484/3/5 477/3/5 483/3/5
f 485/4/5 480/4/5 479/4/5
f 485/4/5 479/4/5 478/4/5
f 486/6/5 482/6/5 481/6/5
f 487/6/5 482/6/5 486/6/5
f 489/6/5 485/6/5 484/6/5
f 489/6/5 484/6/5 483/6/5
f 489/6/5 483/6/5 473/6/5
f 490/6/5 485/6/5 489/6/5
f 491/4/5 480/4/5 485/4/5
f 491/6/5 485/6/5 490/6/5
f 492/4/5 480/4/5 491/4/5
f 493/6/5 490/6/5 489/6/5
f 493/6/5 489/6/5 488/6/5
f 494/6/5 490/6/5 493/6/5
f 495/4/5 480/4/5 492/4/5
f 495/6/5 492/6/5 491/6/5
f 496/4/5 480/4/5 495/4/5
f 497/6/5 490/6/5 494/6/5
f 498/6/5 490/6/5 497/6/5
f 499/6/5 495/6/5 491/6/5
f 500/6/5 495/6/5 499/6/5
f 504/3/5 502/3/5 501/3/5
f 505/6/5 503/6/5 502/6/5
f 505/3/5 502/3/5 504/3/5
f 506/6/5 503/6/5 505/6/5
f 509/6/5 508/6/5 507/6/5
f 510/6/5 508/6/5 509/6/5
f 513/4/5 512/4/5 511/4/5
f 514/4/5 512/4/5 513/4/5
f 517/6/5 514/6/5 513/6/5
f 518/4/5 516/4/5 515/4/5
f 519/6/5 517/6/5 516/6/5
f 519/4/5 516/4/5 518/4/5
f 520/6/5 514/6/5 517/6/5
f 520/6/5 517/6/5 519/6/5
f 523/6/5 522/6/5 521/6/5
f 526/6/5 523/6/5 521/6/5
f 526/6/5 524/6/5 523/6/5
f 527/1/5 525/1/5 524/1/5
f 527/6/5 524/6/5 526/6/5
f 528/1/5 525/1/5 527/1/5
f 531/5/5 530/5/5 529/5/5
f 532/5/5 530/5/5 531/5/5
f 533/5/5 531/5/5 529/5/5
f 534/5/5 530/5/5 532/5/5
f 535/5/5 533/5/5 529/5/5
f 535/5/5 534/5/5 533/5/5
f 536/5/5 530/5/5 534/5/5
f 536/5/5 534/5/5 535/5/5
f 539/7/6 540/7/6 541/7/6
f 541/7/6 540/7/6 542/7/6
f 537/7/6 538/7/6 544/7/6
f 544/7/6 538/7/6 545/7/6
f 543/7/6 544/7/6 547/7/6
f 545/7/6 546/7/6 547/7/6
f 544/7/6 545/7/6 547/7/6
f 547/7/6 546/7/6 548/7/6
f 548/7/6 546/7/6 549/7/6
f 549/7/6 550/7/6 551/7/6
f 548/7/6 549/7/6 551/7/6
f 551/7/6 550/7/6 552/7/6
f 552/7/6 550/7/6 553/7/6
f 552/7/6 553/7/6 555/7/6
f 553/7/6 554/7/6 555/7/6
f 555/7/6 554/7/6 556/7/6
f 557/6/6 558/6/6 561/6/6
f 561/6/6 558/6/6 562/6/6
f 559/6/6 560/6/6 563/6/6
f 562/6/6 563/6/6 566/6/6
f 563/6/6 560/6/6 567/6/6
f 566/6/6 563/6/6 567/6/6
f 564/6/6 565/6/6 568/6/6
f 568/6/6 565/6/6 569/6/6
f 567/6/6 560/6/6 572/6/6
f 572/6/6 560/6/6 573/6/6
f 570/6/6 571/6/6 575/6/6
f 575/6/6 571/6/6 576/6/6
f 573/6/6 574/6/6 577/6/6
f 577/6/6 574/6/6 578/6/6
f 581/6/6 582/6/6 583/6/6
f 579/6/6 580/6/6 585/6/6
f 585/6/6 580/6/6 586/6/6
f 583/6/6 584/6/6 587/6/6
f 581/6/6 583/6/6 587/6/6
f 587/6/6 584/6/6 588/6/6
f 589/6/6 590/6/6 593/6/6
f 593/6/6 590/6/6 594/6/6
f 591/6/6 592/6/6 597/6/6
f 597/6/6 592/6/6 598/6/6
f 598/6/6 592/6/6 599/6/6
f 595/6/6 596/6/6 600/6/6
f 600/6/6 596/6/6 601/6/6
f 598/4/6 599/4/6 602/4/6
f 602/4/6 599/4/6 603/4/6
f 600/3/6 601/3/6 605/3/6
f 605/3/6 601/3/6 606/3/6
f 604/6/6 605/6/6 607/6/6
f 605/6/6 606/6/6 607/6/6
f 604/6/6 607/6/6 609/6/6
f 607/4/6 608/4/6 610/4/6
f 609/6/6 607/6/6 610/6/6
f 610/4/6 608/4/6 611/4/6
f 612/5/6 613/5/6 616/5/6
f 616/5/6 613/5/6 617/5/6
f 614/5/6 615/5/6 618/5/6
f 618/5/6 615/5/6 619/5/6
f 619/5/6 615/5/6 620/5/6
f 620/5/6 615/5/6 621/5/6
f 621/5/6 615/5/6 622/5/6
f 618/2/6 619/2/6 623/2/6
f 623/2/6 619/2/6 624/2/6
f 620/6/6 621/6/6 625/6/6
f 612/5/6 616/5/6 626/5/6
f 616/2/6 617/2/6 627/2/6
f 626/5/6 616/5/6 627/5/6
f 627/2/6 617/2/6 628/2/6
f 624/3/6 625/3/6 630/3/6
f 623/3/6 624/3/6 630/3/6
f 625/6/6 621/6/6 631/6/6
f 630/3/6 625/3/6 631/3/6
f 631/6/6 621/6/6 632/6/6
f 632/6/6 621/6/6 633/6/6
f 633/6/6 621/6/6 634/6/6
f 629/2/6 630/2/6 636/2/6
f 636/2/6 630/2/6 637/2/6
f 631/3/6 632/3/6 638/3/6
f 637/2/6 630/2/6 638/2/6
f 630/3/6 631/3/6 638/3/6
f 638/3/6 632/3/6 639/3/6
f 634/4/6 635/4/6 640/4/6
f 633/4/6 634/4/6 640/4/6
f 640/4/6 635/4/6 641/4/6
f 622/5/6 615/5/6 642/5/6
f 639/3/6 632/3/6 643/3/6
f 643/3/6 632/3/6 644/3/6
f 644/3/6 632/3/6 645/3/6
f 633/4/6 640/4/6 646/4/6
f 641/6/6 642/6/6 647/6/6
f 646/4/6 640/4/6 647/4/6
f 640/6/6 641/6/6 647/6/6
f 642/5/6 615/5/6 648/5/6
f 647/6/6 642/6/6 648/6/6
f 648/5/6 615/5/6 649/5/6
f 633/4/6 646/4/6 650/4/6
f 646/6/6 647/6/6 651/6/6
f 650/4/6 646/4/6 651/4/6
f 651/6/6 647/6/6 653/6/6
f 653/6/6 647/6/6 654/6/6
f 652/5/6 653/5/6 655/5/6
f 653/5/6 654/5/6 655/5/6
f 655/5/6 654/5/6 656/5/6
f 657/5/6 658/5/6 659/5/6
f 659/5/6 658/5/6 660/5/6
f 660/5/6 658/5/6 661/5/6
f 661/5/6 658/5/6 662/5/6
f 657/5/6 659/5/6 663/5/6
f 660/2/6 661/2/6 664/2/6
f 664/2/6 661/2/6 665/2/6
f 665/2/6 661/2/6 666/2/6
f 657/5/6 663/5/6 667/5/6
f 663/6/6 664/6/6 667/6/6
f 664/6/6 665/6/6 667/6/6
f 667/6/6 665/6/6 668/6/6
f 668/6/6 669/6/6 671/6/6
f 669/1/6 670/1/6 672/1/6
f 671/6/6 669/6/6 672/6/6
f 672/1/6 670/1/6 673/1/6
f 662/5/6 658/5/6 676/5/6
f 657/5/6 667/5/6 677/5/6
f 657/5/6 677/5/6 679/5/6
f 677/6/6 678/6/6 679/6/6
f 679/6/6 678/6/6 680/6/6
f 673/1/6 674/1/6 681/1/6
f 681/1/6 674/1/6 682/1/6
f 675/6/6 676/6/6 683/6/6
f 676/5/6 658/5/6 684/5/6
f 683/6/6 676/6/6 684/6/6
f 679/5/6 680/5/6 685/5/6
f 681/5/6 682/5/6 685/5/6
f 683/5/6 684/5/6 685/5/6
f 682/5/6 683/5/6 685/5/6
f 680/5/6 681/5/6 685/5/6
f 657/5/6 679/5/6 685/5/6
f 684/5/6 658/5/6 686/5/6
f 685/5/6 684/5/6 686/5/6
f 687/6/6 688/6/6 689/6/6
f 687/6/6 689/6/6 691/6/6
f 689/1/6 690/1/6 692/1/6
f 691/6/6 689/6/6 692/6/6
f 692/1/6 690/1/6 693/1/6
f 693/1/6 690/1/6 694/1/6
