# MagicaVoxel @ Ephtracy

# material
mtllib chr_langley.mtl
usemtl palette

# normals
vn -1 0 0
vn 1 0 0
vn 0 0 1
vn 0 0 -1
vn 0 -1 0
vn 0 1 0

# texcoords
vt 0.0292969 0.5
vt 0.0332031 0.5
vt 0.0527344 0.5
vt 0.0566406 0.5
vt 0.0605469 0.5
vt 0.384766 0.5
vt 0.404297 0.5
vt 0.416016 0.5
vt 0.505859 0.5
vt 0.525391 0.5
vt 0.529297 0.5
vt 0.677734 0.5
vt 0.708984 0.5
vt 0.845703 0.5
vt 0.865234 0.5
vt 0.908203 0.5
vt 0.982422 0.5
vt 0.990234 0.5
vt 0.994141 0.5

# verts
v -12 6 2.5
v -12 6 -0.5
v -12 12 -0.5
v -12 12 -3.5
v -12 14 2.5
v -12 14 -0.5
v -12 18 2.5
v -12 18 -0.5
v -12 21 5.5
v -12 21 2.5
v -12 21 -0.5
v -12 24 2.5
v -12 24 -0.5
v -12 30 5.5
v -12 30 2.5
v -12 30 -0.5
v -12 30 -3.5
v -12 33 2.5
v -12 33 -0.5
v -9 3 5.5
v -9 3 -3.5
v -9 6 8.5
v -9 6 5.5
v -9 6 2.5
v -9 6 -0.5
v -9 6 -3.5
v -9 6 -6.5
v -9 9 8.5
v -9 9 2.5
v -9 9 -0.5
v -9 9 -6.5
v -9 12 -0.5
v -9 12 -3.5
v -9 12 -6.5
v -9 14 2.5
v -9 18 8.5
v -9 18 5.5
v -9 18 2.5
v -9 18 0.5
v -9 18 -0.5
v -9 21 5.5
v -9 21 2.5
v -9 21 0.5
v -9 21 -0.5
v -9 23 6.5
v -9 23 5.5
v -9 24 6.5
v -9 24 5.5
v -9 27 6.5
v -9 27 5.5
v -9 30 6.5
v -9 30 5.5
v -9 30 2.5
v -9 30 -0.5
v -9 30 -3.5
v -9 33 5.5
v -9 33 2.5
v -9 33 -0.5
v -9 33 -3.5
v -9 33 -6.5
v -9 36 2.5
v -9 36 -3.5
v -7 20 6.5
v -7 20 5.5
v -7 23 6.5
v -7 23 5.5
v -7 24 6.5
v -7 24 5.5
v -7 25 6.5
v -7 25 5.5
v -6 0 2.5
v -6 0 -0.5
v -6 3 2.5
v -6 3 -0.5
v -6 12 -6.5
v -6 12 -9.5
v -6 30 6.5
v -6 30 5.5
v -6 33 6.5
v -6 33 5.5
v -6 33 2.5
v -6 33 -3.5
v -6 33 -6.5
v -6 33 -9.5
v -6 36 5.5
v -6 36 2.5
v -6 36 -3.5
v -6 36 -6.5
v -3 21 6.5
v -3 21 5.5
v -3 24 6.5
v -3 24 5.5
v -1 24 6.5
v -1 24 5.5
v -1 25 6.5
v -1 25 5.5
v 1 23 6.5
v 1 23 5.5
v 1 24 6.5
v 1 24 5.5
v 2 20 6.5
v 2 20 5.5
v 2 21 5.5
v 2 23 6.5
v 2 23 5.5
v 2 24 6.5
v 2 24 5.5
v 2 25 6.5
v 2 25 5.5
v 3 0 2.5
v 3 0 -0.5
v 3 3 5.5
v 3 3 2.5
v 3 3 -0.5
v 3 3 -3.5
v 3 6 5.5
v 3 6 -3.5
v 3 27 6.5
v 3 27 5.5
v 3 29 6.5
v 3 29 5.5
v 6 21 6.5
v 6 21 5.5
v 6 24 6.5
v 6 24 5.5
v -6 21 6.5
v -6 21 5.5
v -6 24 6.5
v -6 24 5.5
v -3 0 2.5
v -3 0 -0.5
v -3 3 5.5
v -3 3 2.5
v -3 3 -0.5
v -3 3 -3.5
v -3 6 5.5
v -3 6 -3.5
v -3 27 6.5
v -3 27 5.5
v -3 29 6.5
v -3 29 5.5
v -2 20 6.5
v -2 20 5.5
v -2 21 5.5
v -2 23 6.5
v -2 23 5.5
v -2 24 6.5
v -2 24 5.5
v -2 25 6.5
v -2 25 5.5
v -1 23 6.5
v -1 23 5.5
v -1 24 6.5
v -1 24 5.5
v 1 24 6.5
v 1 24 5.5
v 1 25 6.5
v 1 25 5.5
v 3 21 6.5
v 3 21 5.5
v 3 24 6.5
v 3 24 5.5
v 6 0 2.5
v 6 0 -0.5
v 6 3 2.5
v 6 3 -0.5
v 6 12 -6.5
v 6 12 -9.5
v 6 30 6.5
v 6 30 5.5
v 6 33 6.5
v 6 33 5.5
v 6 33 2.5
v 6 33 -3.5
v 6 33 -6.5
v 6 33 -9.5
v 6 36 5.5
v 6 36 2.5
v 6 36 -3.5
v 6 36 -6.5
v 7 20 6.5
v 7 20 5.5
v 7 23 6.5
v 7 23 5.5
v 7 24 6.5
v 7 24 5.5
v 7 25 6.5
v 7 25 5.5
v 9 3 5.5
v 9 3 -3.5
v 9 6 8.5
v 9 6 5.5
v 9 6 2.5
v 9 6 -0.5
v 9 6 -3.5
v 9 6 -6.5
v 9 9 8.5
v 9 9 2.5
v 9 9 -0.5
v 9 9 -6.5
v 9 12 -0.5
v 9 12 -3.5
v 9 12 -6.5
v 9 14 2.5
v 9 18 8.5
v 9 18 5.5
v 9 18 2.5
v 9 18 0.5
v 9 18 -0.5
v 9 21 5.5
v 9 21 2.5
v 9 21 0.5
v 9 21 -0.5
v 9 23 6.5
v 9 23 5.5
v 9 24 6.5
v 9 24 5.5
v 9 27 6.5
v 9 27 5.5
v 9 30 6.5
v 9 30 5.5
v 9 30 2.5
v 9 33 5.5
v 9 33 2.5
v 9 33 -3.5
v 9 33 -6.5
v 9 36 2.5
v 9 36 -3.5
v 12 6 2.5
v 12 6 -0.5
v 12 12 -0.5
v 12 12 -3.5
v 12 14 2.5
v 12 14 -0.5
v 12 18 2.5
v 12 18 -0.5
v 12 21 5.5
v 12 21 2.5
v 12 21 -0.5
v 12 24 2.5
v 12 24 -0.5
v 12 30 5.5
v 12 30 2.5
v 12 33 2.5
v 12 33 -3.5
v -9 6 8.5
v -9 9 8.5
v -9 18 8.5
v -7 14 8.5
v -7 16 8.5
v -6 14 8.5
v -6 15 8.5
v -6 16 8.5
v -6 17 8.5
v -5 14 8.5
v -5 15 8.5
v -5 17 8.5
v -4 14 8.5
v -4 15 8.5
v -3 14 8.5
v -3 16 8.5
v -2 15 8.5
v -2 16 8.5
v -2 17 8.5
v -1 15 8.5
v -1 16 8.5
v 0 14 8.5
v 0 17 8.5
v 1 14 8.5
v 1 17 8.5
v 2 15 8.5
v 2 16 8.5
v 3 14 8.5
v 3 15 8.5
v 3 16 8.5
v 4 15 8.5
v 4 17 8.5
v 5 14 8.5
v 5 15 8.5
v 6 15 8.5
v 6 17 8.5
v 7 14 8.5
v 7 16 8.5
v 8 16 8.5
v 8 17 8.5
v 9 6 8.5
v 9 9 8.5
v 9 18 8.5
v -9 23 6.5
v -9 24 6.5
v -9 27 6.5
v -9 30 6.5
v -7 20 6.5
v -7 23 6.5
v -7 24 6.5
v -7 25 6.5
v -6 21 6.5
v -6 24 6.5
v -6 30 6.5
v -6 33 6.5
v -3 21 6.5
v -3 24 6.5
v -3 27 6.5
v -3 29 6.5
v -2 20 6.5
v -2 23 6.5
v -2 24 6.5
v -2 25 6.5
v -1 23 6.5
v -1 24 6.5
v -1 25 6.5
v 1 23 6.5
v 1 24 6.5
v 1 25 6.5
v 2 20 6.5
v 2 23 6.5
v 2 24 6.5
v 2 25 6.5
v 3 21 6.5
v 3 24 6.5
v 3 27 6.5
v 3 29 6.5
v 6 21 6.5
v 6 24 6.5
v 6 30 6.5
v 6 33 6.5
v 7 20 6.5
v 7 23 6.5
v 7 24 6.5
v 7 25 6.5
v 9 23 6.5
v 9 24 6.5
v 9 27 6.5
v 9 30 6.5
v -12 21 5.5
v -12 30 5.5
v -10 23 5.5
v -10 24 5.5
v -9 3 5.5
v -9 6 5.5
v -9 18 5.5
v -9 21 5.5
v -9 23 5.5
v -9 24 5.5
v -9 27 5.5
v -9 30 5.5
v -9 33 5.5
v -7 20 5.5
v -7 23 5.5
v -7 24 5.5
v -7 25 5.5
v -6 21 5.5
v -6 24 5.5
v -6 30 5.5
v -6 33 5.5
v -6 36 5.5
v -3 3 5.5
v -3 6 5.5
v -3 18 5.5
v -3 20 5.5
v -3 21 5.5
v -3 24 5.5
v -3 27 5.5
v -3 29 5.5
v -2 20 5.5
v -2 21 5.5
v -2 23 5.5
v -2 24 5.5
v -2 25 5.5
v -1 23 5.5
v -1 24 5.5
v -1 25 5.5
v 1 23 5.5
v 1 24 5.5
v 1 25 5.5
v 2 20 5.5
v 2 21 5.5
v 2 23 5.5
v 2 24 5.5
v 2 25 5.5
v 3 3 5.5
v 3 6 5.5
v 3 18 5.5
v 3 20 5.5
v 3 21 5.5
v 3 24 5.5
v 3 27 5.5
v 3 29 5.5
v 6 21 5.5
v 6 24 5.5
v 6 30 5.5
v 6 33 5.5
v 6 36 5.5
v 7 20 5.5
v 7 23 5.5
v 7 24 5.5
v 7 25 5.5
v 9 3 5.5
v 9 6 5.5
v 9 18 5.5
v 9 21 5.5
v 9 23 5.5
v 9 24 5.5
v 9 27 5.5
v 9 30 5.5
v 9 33 5.5
v 10 23 5.5
v 10 24 5.5
v 12 21 5.5
v 12 30 5.5
v -12 6 2.5
v -12 14 2.5
v -12 18 2.5
v -12 30 2.5
v -12 33 2.5
v -9 6 2.5
v -9 9 2.5
v -9 14 2.5
v -9 18 2.5
v -9 30 2.5
v -9 33 2.5
v -9 36 2.5
v -6 0 2.5
v -6 3 2.5
v -6 33 2.5
v -6 36 2.5
v -3 0 2.5
v -3 3 2.5
v 3 0 2.5
v 3 3 2.5
v 6 0 2.5
v 6 3 2.5
v 6 33 2.5
v 6 36 2.5
v 9 6 2.5
v 9 9 2.5
v 9 14 2.5
v 9 18 2.5
v 9 30 2.5
v 9 33 2.5
v 9 36 2.5
v 12 6 2.5
v 12 14 2.5
v 12 18 2.5
v 12 30 2.5
v 12 33 2.5
v -12 18 -0.5
v -12 21 -0.5
v -9 18 -0.5
v -9 21 -0.5
v 9 18 -0.5
v 9 21 -0.5
v 12 18 -0.5
v 12 21 -0.5
v -12 6 -0.5
v -12 12 -0.5
v -12 30 -0.5
v -12 33 -0.5
v -9 6 -0.5
v -9 9 -0.5
v -9 12 -0.5
v -9 30 -0.5
v -9 33 -0.5
v -6 0 -0.5
v -6 3 -0.5
v -3 0 -0.5
v -3 3 -0.5
v 3 0 -0.5
v 3 3 -0.5
v 6 0 -0.5
v 6 3 -0.5
v 9 6 -0.5
v 9 9 -0.5
v 9 12 -0.5
v 12 6 -0.5
v 12 12 -0.5
v -12 12 -3.5
v -12 30 -3.5
v -9 3 -3.5
v -9 6 -3.5
v -9 12 -3.5
v -9 30 -3.5
v -9 33 -3.5
v -9 36 -3.5
v -6 33 -3.5
v -6 36 -3.5
v -3 3 -3.5
v -3 6 -3.5
v 3 3 -3.5
v 3 6 -3.5
v 6 33 -3.5
v 6 36 -3.5
v 9 3 -3.5
v 9 6 -3.5
v 9 12 -3.5
v 9 33 -3.5
v 9 36 -3.5
v 12 12 -3.5
v 12 33 -3.5
v -9 6 -6.5
v -9 9 -6.5
v -9 12 -6.5
v -9 33 -6.5
v -6 12 -6.5
v -6 33 -6.5
v -6 36 -6.5
v 6 12 -6.5
v 6 33 -6.5
v 6 36 -6.5
v 9 6 -6.5
v 9 9 -6.5
v 9 12 -6.5
v 9 33 -6.5
v -6 12 -9.5
v -6 33 -9.5
v 6 12 -9.5
v 6 33 -9.5
v -6 0 2.5
v -3 0 2.5
v 3 0 2.5
v 6 0 2.5
v -6 0 -0.5
v -3 0 -0.5
v 3 0 -0.5
v 6 0 -0.5
v -9 3 5.5
v -3 3 5.5
v 3 3 5.5
v 9 3 5.5
v -6 3 2.5
v -3 3 2.5
v 3 3 2.5
v 6 3 2.5
v -6 3 -0.5
v -3 3 -0.5
v 3 3 -0.5
v 6 3 -0.5
v -9 3 -3.5
v -3 3 -3.5
v 3 3 -3.5
v 9 3 -3.5
v -9 6 8.5
v 9 6 8.5
v -9 6 5.5
v -3 6 5.5
v 3 6 5.5
v 9 6 5.5
v -12 6 2.5
v -9 6 2.5
v 9 6 2.5
v 12 6 2.5
v -12 6 -0.5
v -9 6 -0.5
v 9 6 -0.5
v 12 6 -0.5
v -9 6 -3.5
v -3 6 -3.5
v 3 6 -3.5
v 9 6 -3.5
v -9 6 -6.5
v 9 6 -6.5
v -12 12 -0.5
v -9 12 -0.5
v 9 12 -0.5
v 12 12 -0.5
v -12 12 -3.5
v -9 12 -3.5
v 9 12 -3.5
v 12 12 -3.5
v -6 12 -6.5
v 6 12 -6.5
v -6 12 -9.5
v 6 12 -9.5
v -7 20 6.5
v -2 20 6.5
v 2 20 6.5
v 7 20 6.5
v -7 20 5.5
v -3 20 5.5
v -2 20 5.5
v 2 20 5.5
v 3 20 5.5
v 7 20 5.5
v -12 21 5.5
v -9 21 5.5
v 9 21 5.5
v 12 21 5.5
v -12 21 2.5
v -9 21 2.5
v 9 21 2.5
v 12 21 2.5
v -9 21 0.5
v 9 21 0.5
v -12 21 -0.5
v -9 21 -0.5
v 9 21 -0.5
v 12 21 -0.5
v -9 23 6.5
v -7 23 6.5
v -2 23 6.5
v -1 23 6.5
v 1 23 6.5
v 2 23 6.5
v 7 23 6.5
v 9 23 6.5
v -9 23 5.5
v -7 23 5.5
v -2 23 5.5
v -1 23 5.5
v 1 23 5.5
v 2 23 5.5
v 7 23 5.5
v 9 23 5.5
v -6 24 6.5
v -3 24 6.5
v -1 24 6.5
v 1 24 6.5
v 3 24 6.5
v 6 24 6.5
v -6 24 5.5
v -3 24 5.5
v -1 24 5.5
v 1 24 5.5
v 3 24 5.5
v 6 24 5.5
v -9 27 6.5
v -3 27 6.5
v 3 27 6.5
v 9 27 6.5
v -9 27 5.5
v -3 27 5.5
v 3 27 5.5
v 9 27 5.5
v -3 29 6.5
v 3 29 6.5
v -3 29 5.5
v 3 29 5.5
v -9 18 8.5
v 9 18 8.5
v -9 18 5.5
v -3 18 5.5
v 3 18 5.5
v 9 18 5.5
v -12 18 2.5
v -9 18 2.5
v 9 18 2.5
v 12 18 2.5
v -9 18 0.5
v 9 18 0.5
v -12 18 -0.5
v -9 18 -0.5
v 9 18 -0.5
v 12 18 -0.5
v -6 21 6.5
v -3 21 6.5
v 3 21 6.5
v 6 21 6.5
v -6 21 5.5
v -3 21 5.5
v 3 21 5.5
v 6 21 5.5
v -9 24 6.5
v -7 24 6.5
v -2 24 6.5
v -1 24 6.5
v 1 24 6.5
v 2 24 6.5
v 7 24 6.5
v 9 24 6.5
v -9 24 5.5
v -7 24 5.5
v -2 24 5.5
v -1 24 5.5
v 1 24 5.5
v 2 24 5.5
v 7 24 5.5
v 9 24 5.5
v -7 25 6.5
v -2 25 6.5
v -1 25 6.5
v 1 25 6.5
v 2 25 6.5
v 7 25 6.5
v -7 25 5.5
v -2 25 5.5
v -1 25 5.5
v 1 25 5.5
v 2 25 5.5
v 7 25 5.5
v -9 30 6.5
v -6 30 6.5
v 6 30 6.5
v 9 30 6.5
v -12 30 5.5
v -9 30 5.5
v -6 30 5.5
v 6 30 5.5
v 9 30 5.5
v 12 30 5.5
v -12 30 2.5
v -9 30 2.5
v 9 30 2.5
v 12 30 2.5
v -12 30 -0.5
v -9 30 -0.5
v -12 30 -3.5
v -9 30 -3.5
v -6 33 6.5
v 6 33 6.5
v -9 33 5.5
v -6 33 5.5
v 6 33 5.5
v 9 33 5.5
v -12 33 2.5
v -9 33 2.5
v -6 33 2.5
v 6 33 2.5
v 9 33 2.5
v 12 33 2.5
v -12 33 -0.5
v -9 33 -0.5
v -9 33 -3.5
v -6 33 -3.5
v 6 33 -3.5
v 9 33 -3.5
v 12 33 -3.5
v -9 33 -6.5
v -6 33 -6.5
v 6 33 -6.5
v 9 33 -6.5
v -6 33 -9.5
v 6 33 -9.5
v -6 36 5.5
v 6 36 5.5
v -9 36 2.5
v -6 36 2.5
v 6 36 2.5
v 9 36 2.5
v -9 36 -3.5
v -6 36 -3.5
v 6 36 -3.5
v 9 36 -3.5
v -6 36 -6.5
v 6 36 -6.5

# faces
f 3/9/1 2/9/1 1/9/1
f 5/9/1 3/9/1 1/9/1
f 6/8/1 4/8/1 3/8/1
f 6/9/1 3/9/1 5/9/1
f 7/3/1 6/3/1 5/3/1
f 8/8/1 4/8/1 6/8/1
f 8/3/1 6/3/1 7/3/1
f 11/8/1 4/8/1 8/8/1
f 12/8/1 10/8/1 9/8/1
f 12/9/1 11/9/1 10/9/1
f 13/8/1 4/8/1 11/8/1
f 13/9/1 11/9/1 12/9/1
f 14/8/1 12/8/1 9/8/1
f 14/8/1 13/8/1 12/8/1
f 15/8/1 13/8/1 14/8/1
f 16/8/1 4/8/1 13/8/1
f 16/8/1 13/8/1 15/8/1
f 17/8/1 4/8/1 16/8/1
f 18/8/1 16/8/1 15/8/1
f 19/8/1 16/8/1 18/8/1
f 23/13/1 21/13/1 20/13/1
f 24/13/1 21/13/1 23/13/1
f 25/13/1 21/13/1 24/13/1
f 26/13/1 21/13/1 25/13/1
f 28/13/1 23/13/1 22/13/1
f 28/13/1 24/13/1 23/13/1
f 29/13/1 24/13/1 28/13/1
f 30/13/1 27/13/1 26/13/1
f 30/13/1 26/13/1 25/13/1
f 31/13/1 27/13/1 30/13/1
f 32/3/1 31/3/1 30/3/1
f 33/3/1 31/3/1 32/3/1
f 34/3/1 31/3/1 33/3/1
f 35/3/1 29/3/1 28/3/1
f 36/3/1 35/3/1 28/3/1
f 37/3/1 35/3/1 36/3/1
f 38/3/1 35/3/1 37/3/1
f 41/9/1 38/9/1 37/9/1
f 41/9/1 39/9/1 38/9/1
f 42/9/1 39/9/1 41/9/1
f 43/8/1 40/8/1 39/8/1
f 43/9/1 39/9/1 42/9/1
f 44/8/1 40/8/1 43/8/1
f 47/4/1 46/4/1 45/4/1
f 48/4/1 46/4/1 47/4/1
f 51/8/1 50/8/1 49/8/1
f 52/8/1 50/8/1 51/8/1
f 55/8/1 34/8/1 33/8/1
f 56/8/1 53/8/1 52/8/1
f 57/8/1 53/8/1 56/8/1
f 58/8/1 55/8/1 54/8/1
f 59/8/1 34/8/1 55/8/1
f 59/8/1 55/8/1 58/8/1
f 60/8/1 34/8/1 59/8/1
f 61/8/1 58/8/1 57/8/1
f 61/8/1 59/8/1 58/8/1
f 62/8/1 59/8/1 61/8/1
f 65/4/1 64/4/1 63/4/1
f 66/4/1 64/4/1 65/4/1
f 69/4/1 68/4/1 67/4/1
f 70/4/1 68/4/1 69/4/1
f 73/19/1 72/19/1 71/19/1
f 74/19/1 72/19/1 73/19/1
f 79/8/1 78/8/1 77/8/1
f 80/8/1 78/8/1 79/8/1
f 83/8/1 76/8/1 75/8/1
f 84/8/1 76/8/1 83/8/1
f 85/8/1 81/8/1 80/8/1
f 86/8/1 81/8/1 85/8/1
f 87/8/1 83/8/1 82/8/1
f 88/8/1 83/8/1 87/8/1
f 91/4/1 90/4/1 89/4/1
f 92/4/1 90/4/1 91/4/1
f 95/4/1 94/4/1 93/4/1
f 96/4/1 94/4/1 95/4/1
f 99/4/1 98/4/1 97/4/1
f 100/4/1 98/4/1 99/4/1
f 103/4/1 102/4/1 101/4/1
f 104/4/1 103/4/1 101/4/1
f 105/4/1 103/4/1 104/4/1
f 108/4/1 107/4/1 106/4/1
f 109/4/1 107/4/1 108/4/1
f 113/19/1 111/19/1 110/19/1
f 114/19/1 111/19/1 113/19/1
f 116/13/1 113/13/1 112/13/1
f 116/13/1 115/13/1 114/13/1
f 116/13/1 114/13/1 113/13/1
f 117/13/1 115/13/1 116/13/1
f 120/8/1 119/8/1 118/8/1
f 121/8/1 119/8/1 120/8/1
f 124/4/1 123/4/1 122/4/1
f 125/4/1 123/4/1 124/4/1
f 126/4/2 127/4/2 128/4/2
f 128/4/2 127/4/2 129/4/2
f 130/19/2 131/19/2 133/19/2
f 133/19/2 131/19/2 134/19/2
f 132/13/2 133/13/2 136/13/2
f 134/13/2 135/13/2 136/13/2
f 133/13/2 134/13/2 136/13/2
f 136/13/2 135/13/2 137/13/2
f 138/8/2 139/8/2 140/8/2
f 140/8/2 139/8/2 141/8/2
f 142/4/2 143/4/2 144/4/2
f 142/4/2 144/4/2 145/4/2
f 145/4/2 144/4/2 146/4/2
f 147/4/2 148/4/2 149/4/2
f 149/4/2 148/4/2 150/4/2
f 151/4/2 152/4/2 153/4/2
f 153/4/2 152/4/2 154/4/2
f 155/4/2 156/4/2 157/4/2
f 157/4/2 156/4/2 158/4/2
f 159/4/2 160/4/2 161/4/2
f 161/4/2 160/4/2 162/4/2
f 163/19/2 164/19/2 165/19/2
f 165/19/2 164/19/2 166/19/2
f 169/8/2 170/8/2 171/8/2
f 171/8/2 170/8/2 172/8/2
f 167/8/2 168/8/2 175/8/2
f 175/8/2 168/8/2 176/8/2
f 172/8/2 173/8/2 177/8/2
f 177/8/2 173/8/2 178/8/2
f 174/8/2 175/8/2 179/8/2
f 179/8/2 175/8/2 180/8/2
f 181/4/2 182/4/2 183/4/2
f 183/4/2 182/4/2 184/4/2
f 185/4/2 186/4/2 187/4/2
f 187/4/2 186/4/2 188/4/2
f 189/13/2 190/13/2 192/13/2
f 192/13/2 190/13/2 193/13/2
f 193/13/2 190/13/2 194/13/2
f 194/13/2 190/13/2 195/13/2
f 191/13/2 192/13/2 197/13/2
f 192/13/2 193/13/2 197/13/2
f 197/13/2 193/13/2 198/13/2
f 195/13/2 196/13/2 199/13/2
f 194/13/2 195/13/2 199/13/2
f 199/13/2 196/13/2 200/13/2
f 199/3/2 200/3/2 201/3/2
f 201/3/2 200/3/2 202/3/2
f 202/3/2 200/3/2 203/3/2
f 197/3/2 198/3/2 204/3/2
f 197/3/2 204/3/2 205/3/2
f 205/3/2 204/3/2 206/3/2
f 206/3/2 204/3/2 207/3/2
f 206/9/2 207/9/2 210/9/2
f 207/9/2 208/9/2 210/9/2
f 210/9/2 208/9/2 211/9/2
f 208/8/2 209/8/2 212/8/2
f 211/9/2 208/9/2 212/9/2
f 212/8/2 209/8/2 213/8/2
f 214/4/2 215/4/2 216/4/2
f 216/4/2 215/4/2 217/4/2
f 218/8/2 219/8/2 220/8/2
f 220/8/2 219/8/2 221/8/2
f 221/8/2 222/8/2 223/8/2
f 223/8/2 222/8/2 224/8/2
f 202/8/2 203/8/2 225/8/2
f 225/8/2 203/8/2 226/8/2
f 224/8/2 225/8/2 227/8/2
f 227/8/2 225/8/2 228/8/2
f 229/9/2 230/9/2 231/9/2
f 229/9/2 231/9/2 233/9/2
f 231/8/2 232/8/2 234/8/2
f 233/9/2 231/9/2 234/9/2
f 233/3/2 234/3/2 235/3/2
f 234/8/2 232/8/2 236/8/2
f 235/3/2 234/3/2 236/3/2
f 236/8/2 232/8/2 239/8/2
f 237/8/2 238/8/2 240/8/2
f 238/9/2 239/9/2 240/9/2
f 239/8/2 232/8/2 241/8/2
f 240/9/2 239/9/2 241/9/2
f 237/8/2 240/8/2 242/8/2
f 240/8/2 241/8/2 242/8/2
f 242/8/2 241/8/2 243/8/2
f 243/8/2 241/8/2 244/8/2
f 241/8/2 232/8/2 245/8/2
f 244/8/2 241/8/2 245/8/2
f 249/3/3 248/3/3 247/3/3
f 250/3/3 248/3/3 249/3/3
f 251/3/3 249/3/3 247/3/3
f 251/12/3 250/12/3 249/12/3
f 252/12/3 250/12/3 251/12/3
f 253/3/3 248/3/3 250/3/3
f 253/12/3 250/12/3 252/12/3
f 254/3/3 248/3/3 253/3/3
f 255/3/3 252/3/3 251/3/3
f 255/3/3 251/3/3 247/3/3
f 256/12/3 254/12/3 253/12/3
f 256/3/3 252/3/3 255/3/3
f 256/12/3 253/12/3 252/12/3
f 257/3/3 248/3/3 254/3/3
f 257/12/3 254/12/3 256/12/3
f 258/12/3 256/12/3 255/12/3
f 258/3/3 255/3/3 247/3/3
f 259/3/3 257/3/3 256/3/3
f 259/12/3 256/12/3 258/12/3
f 260/3/3 258/3/3 247/3/3
f 260/3/3 259/3/3 258/3/3
f 261/3/3 257/3/3 259/3/3
f 261/3/3 259/3/3 260/3/3
f 262/12/3 261/12/3 260/12/3
f 263/3/3 257/3/3 261/3/3
f 263/12/3 261/12/3 262/12/3
f 264/3/3 248/3/3 257/3/3
f 264/3/3 257/3/3 263/3/3
f 265/3/3 263/3/3 262/3/3
f 265/12/3 262/12/3 260/12/3
f 266/12/3 264/12/3 263/12/3
f 266/3/3 263/3/3 265/3/3
f 267/3/3 260/3/3 247/3/3
f 267/12/3 265/12/3 260/12/3
f 267/12/3 266/12/3 265/12/3
f 268/3/3 248/3/3 264/3/3
f 268/12/3 266/12/3 267/12/3
f 268/12/3 264/12/3 266/12/3
f 269/3/3 267/3/3 247/3/3
f 269/3/3 268/3/3 267/3/3
f 270/3/3 248/3/3 268/3/3
f 270/3/3 268/3/3 269/3/3
f 271/12/3 270/12/3 269/12/3
f 272/12/3 270/12/3 271/12/3
f 273/3/3 269/3/3 247/3/3
f 273/12/3 271/12/3 269/12/3
f 274/3/3 272/3/3 271/3/3
f 274/12/3 271/12/3 273/12/3
f 275/12/3 270/12/3 272/12/3
f 275/3/3 272/3/3 274/3/3
f 276/3/3 274/3/3 273/3/3
f 276/12/3 275/12/3 274/12/3
f 277/12/3 270/12/3 275/12/3
f 277/12/3 275/12/3 276/12/3
f 277/3/3 248/3/3 270/3/3
f 278/3/3 276/3/3 273/3/3
f 278/3/3 273/3/3 247/3/3
f 278/3/3 277/3/3 276/3/3
f 279/3/3 277/3/3 278/3/3
f 280/12/3 279/12/3 278/12/3
f 280/3/3 277/3/3 279/3/3
f 281/3/3 248/3/3 277/3/3
f 281/3/3 277/3/3 280/3/3
f 282/12/3 280/12/3 278/12/3
f 282/3/3 278/3/3 247/3/3
f 282/12/3 281/12/3 280/12/3
f 283/12/3 281/12/3 282/12/3
f 284/3/3 283/3/3 282/3/3
f 284/12/3 281/12/3 283/12/3
f 285/3/3 248/3/3 281/3/3
f 285/12/3 281/12/3 284/12/3
f 286/13/3 247/13/3 246/13/3
f 287/3/3 284/3/3 282/3/3
f 287/13/3 247/13/3 286/13/3
f 287/3/3 282/3/3 247/3/3
f 287/3/3 285/3/3 284/3/3
f 288/3/3 248/3/3 285/3/3
f 288/3/3 285/3/3 287/3/3
f 294/4/3 290/4/3 289/4/3
f 295/4/3 290/4/3 294/4/3
f 297/4/3 294/4/3 293/4/3
f 297/4/3 296/4/3 295/4/3
f 297/4/3 295/4/3 294/4/3
f 298/4/3 296/4/3 297/4/3
f 299/8/3 292/8/3 291/8/3
f 301/4/3 297/4/3 293/4/3
f 302/4/3 296/4/3 298/4/3
f 303/8/3 300/8/3 299/8/3
f 303/8/3 299/8/3 291/8/3
f 304/8/3 300/8/3 303/8/3
f 305/4/3 301/4/3 293/4/3
f 305/4/3 302/4/3 301/4/3
f 306/4/3 302/4/3 305/4/3
f 307/4/3 296/4/3 302/4/3
f 307/4/3 302/4/3 306/4/3
f 308/4/3 296/4/3 307/4/3
f 309/4/3 307/4/3 306/4/3
f 310/4/3 307/4/3 309/4/3
f 313/4/3 311/4/3 310/4/3
f 314/4/3 311/4/3 313/4/3
f 316/4/3 313/4/3 312/4/3
f 317/4/3 313/4/3 316/4/3
f 319/4/3 316/4/3 315/4/3
f 319/4/3 318/4/3 317/4/3
f 319/4/3 317/4/3 316/4/3
f 320/4/3 318/4/3 319/4/3
f 322/8/3 300/8/3 304/8/3
f 323/4/3 319/4/3 315/4/3
f 324/4/3 318/4/3 320/4/3
f 325/8/3 322/8/3 321/8/3
f 325/8/3 300/8/3 322/8/3
f 326/8/3 300/8/3 325/8/3
f 327/4/3 324/4/3 323/4/3
f 327/4/3 323/4/3 315/4/3
f 328/4/3 324/4/3 327/4/3
f 329/4/3 318/4/3 324/4/3
f 329/4/3 324/4/3 328/4/3
f 330/4/3 318/4/3 329/4/3
f 331/4/3 329/4/3 328/4/3
f 332/4/3 329/4/3 331/4/3
f 333/8/3 325/8/3 321/8/3
f 334/8/3 325/8/3 333/8/3
f 337/8/3 336/8/3 335/8/3
f 338/8/3 336/8/3 337/8/3
f 342/8/3 337/8/3 335/8/3
f 343/4/3 338/4/3 337/4/3
f 343/8/3 337/8/3 342/8/3
f 344/8/3 336/8/3 338/8/3
f 344/4/3 338/4/3 343/4/3
f 345/8/3 336/8/3 344/8/3
f 346/8/3 336/8/3 345/8/3
f 348/9/3 342/9/3 341/9/3
f 348/9/3 343/9/3 342/9/3
f 349/9/3 343/9/3 348/9/3
f 350/9/3 345/9/3 344/9/3
f 351/9/3 345/9/3 350/9/3
f 354/8/3 347/8/3 346/8/3
f 355/8/3 347/8/3 354/8/3
f 357/13/3 340/13/3 339/13/3
f 358/13/3 340/13/3 357/13/3
f 359/9/3 348/9/3 341/9/3
f 360/9/3 348/9/3 359/9/3
f 361/1/3 353/1/3 352/1/3
f 362/1/3 353/1/3 361/1/3
f 363/9/3 345/9/3 351/9/3
f 365/7/3 360/7/3 359/7/3
f 369/9/3 364/9/3 363/9/3
f 369/9/3 363/9/3 351/9/3
f 370/9/3 367/9/3 366/9/3
f 371/9/3 369/9/3 368/9/3
f 372/9/3 364/9/3 369/9/3
f 372/9/3 369/9/3 371/9/3
f 373/9/3 370/9/3 366/9/3
f 373/9/3 371/9/3 370/9/3
f 374/9/3 371/9/3 373/9/3
f 375/9/3 364/9/3 372/9/3
f 376/7/3 366/7/3 365/7/3
f 376/7/3 365/7/3 359/7/3
f 377/9/3 373/9/3 366/9/3
f 377/7/3 366/7/3 376/7/3
f 378/9/3 373/9/3 377/9/3
f 379/9/3 375/9/3 374/9/3
f 380/9/3 364/9/3 375/9/3
f 380/9/3 375/9/3 379/9/3
f 383/7/3 376/7/3 359/7/3
f 384/7/3 376/7/3 383/7/3
f 387/9/3 364/9/3 380/9/3
f 388/9/3 364/9/3 387/9/3
f 389/1/3 386/1/3 385/1/3
f 390/1/3 386/1/3 389/1/3
f 392/8/3 356/8/3 355/8/3
f 393/8/3 356/8/3 392/8/3
f 394/9/3 384/9/3 383/9/3
f 397/9/3 387/9/3 380/9/3
f 398/13/3 382/13/3 381/13/3
f 399/13/3 382/13/3 398/13/3
f 400/9/3 395/9/3 394/9/3
f 400/9/3 394/9/3 383/9/3
f 401/9/3 395/9/3 400/9/3
f 402/9/3 395/9/3 401/9/3
f 403/9/3 397/9/3 396/9/3
f 404/9/3 387/9/3 397/9/3
f 404/9/3 397/9/3 403/9/3
f 405/8/3 392/8/3 391/8/3
f 406/8/3 392/8/3 405/8/3
f 407/8/3 402/8/3 401/8/3
f 407/4/3 403/4/3 402/4/3
f 408/8/3 404/8/3 403/8/3
f 408/4/3 403/4/3 407/4/3
f 408/8/3 405/8/3 404/8/3
f 409/8/3 407/8/3 401/8/3
f 409/8/3 408/8/3 407/8/3
f 410/8/3 405/8/3 408/8/3
f 410/8/3 408/8/3 409/8/3
f 416/9/3 412/9/3 411/9/3
f 417/9/3 412/9/3 416/9/3
f 418/3/3 413/3/3 412/3/3
f 418/9/3 412/9/3 417/9/3
f 419/3/3 413/3/3 418/3/3
f 420/8/3 415/8/3 414/8/3
f 421/8/3 415/8/3 420/8/3
f 425/8/3 422/8/3 421/8/3
f 426/8/3 422/8/3 425/8/3
f 427/19/3 424/19/3 423/19/3
f 428/19/3 424/19/3 427/19/3
f 431/19/3 430/19/3 429/19/3
f 432/19/3 430/19/3 431/19/3
f 440/8/3 434/8/3 433/8/3
f 441/8/3 434/8/3 440/8/3
f 442/9/3 436/9/3 435/9/3
f 442/9/3 437/9/3 436/9/3
f 443/3/3 438/3/3 437/3/3
f 443/9/3 437/9/3 442/9/3
f 444/3/3 438/3/3 443/3/3
f 445/8/3 440/8/3 439/8/3
f 446/8/3 440/8/3 445/8/3
f 449/8/3 448/8/3 447/8/3
f 450/8/3 448/8/3 449/8/3
f 453/8/3 452/8/3 451/8/3
f 454/8/3 452/8/3 453/8/3
f 455/9/4 456/9/4 459/9/4
f 459/9/4 456/9/4 460/9/4
f 460/9/4 456/9/4 461/9/4
f 457/8/4 458/8/4 462/8/4
f 462/8/4 458/8/4 463/8/4
f 464/19/4 465/19/4 466/19/4
f 466/19/4 465/19/4 467/19/4
f 468/19/4 469/19/4 470/19/4
f 470/19/4 469/19/4 471/19/4
f 472/9/4 473/9/4 475/9/4
f 473/9/4 474/9/4 475/9/4
f 475/9/4 474/9/4 476/9/4
f 477/8/4 478/8/4 481/8/4
f 481/8/4 478/8/4 482/8/4
f 483/8/4 484/8/4 485/8/4
f 485/8/4 484/8/4 486/8/4
f 479/13/4 480/13/4 487/13/4
f 487/13/4 480/13/4 488/13/4
f 489/13/4 490/13/4 493/13/4
f 493/13/4 490/13/4 494/13/4
f 491/8/4 492/8/4 496/8/4
f 496/8/4 492/8/4 497/8/4
f 495/8/4 496/8/4 498/8/4
f 498/8/4 496/8/4 499/8/4
f 501/3/4 502/3/4 504/3/4
f 502/8/4 503/8/4 504/8/4
f 504/8/4 503/8/4 505/8/4
f 501/3/4 504/3/4 507/3/4
f 505/8/4 506/8/4 508/8/4
f 508/8/4 506/8/4 509/8/4
f 500/13/4 501/13/4 510/13/4
f 501/3/4 507/3/4 511/3/4
f 510/13/4 501/13/4 511/13/4
f 507/8/4 508/8/4 512/8/4
f 511/3/4 507/3/4 512/3/4
f 512/8/4 508/8/4 513/8/4
f 514/8/4 515/8/4 516/8/4
f 516/8/4 515/8/4 517/8/4
f 522/19/5 519/19/5 518/19/5
f 523/19/5 519/19/5 522/19/5
f 524/19/5 521/19/5 520/19/5
f 525/19/5 521/19/5 524/19/5
f 530/13/5 527/13/5 526/13/5
f 531/13/5 527/13/5 530/13/5
f 532/13/5 529/13/5 528/13/5
f 533/13/5 529/13/5 532/13/5
f 534/13/5 530/13/5 526/13/5
f 537/13/5 529/13/5 533/13/5
f 538/13/5 535/13/5 534/13/5
f 538/13/5 534/13/5 526/13/5
f 539/13/5 535/13/5 538/13/5
f 540/13/5 537/13/5 536/13/5
f 541/13/5 529/13/5 537/13/5
f 541/13/5 537/13/5 540/13/5
f 544/13/5 543/13/5 542/13/5
f 545/13/5 543/13/5 544/13/5
f 546/13/5 543/13/5 545/13/5
f 547/13/5 543/13/5 546/13/5
f 552/9/5 549/9/5 548/9/5
f 553/9/5 549/9/5 552/9/5
f 554/9/5 551/9/5 550/9/5
f 555/9/5 551/9/5 554/9/5
f 557/13/5 546/13/5 545/13/5
f 558/13/5 546/13/5 557/13/5
f 560/13/5 557/13/5 556/13/5
f 560/13/5 559/13/5 558/13/5
f 560/13/5 558/13/5 557/13/5
f 561/13/5 559/13/5 560/13/5
f 566/8/5 563/8/5 562/8/5
f 567/8/5 563/8/5 566/8/5
f 568/8/5 565/8/5 564/8/5
f 569/8/5 565/8/5 568/8/5
f 572/8/5 571/8/5 570/8/5
f 573/8/5 571/8/5 572/8/5
f 578/4/5 575/4/5 574/4/5
f 579/4/5 575/4/5 578/4/5
f 580/4/5 575/4/5 579/4/5
f 581/4/5 577/4/5 576/4/5
f 582/4/5 577/4/5 581/4/5
f 583/4/5 577/4/5 582/4/5
f 588/8/5 585/8/5 584/8/5
f 589/8/5 585/8/5 588/8/5
f 590/8/5 587/8/5 586/8/5
f 591/8/5 587/8/5 590/8/5
f 592/9/5 589/9/5 588/9/5
f 593/9/5 591/9/5 590/9/5
f 594/9/5 592/9/5 588/9/5
f 595/9/5 592/9/5 594/9/5
f 596/9/5 591/9/5 593/9/5
f 597/9/5 591/9/5 596/9/5
f 606/4/5 599/4/5 598/4/5
f 607/4/5 599/4/5 606/4/5
f 608/4/5 601/4/5 600/4/5
f 609/4/5 601/4/5 608/4/5
f 610/4/5 603/4/5 602/4/5
f 611/4/5 603/4/5 610/4/5
f 612/4/5 605/4/5 604/4/5
f 613/4/5 605/4/5 612/4/5
f 620/4/5 615/4/5 614/4/5
f 621/4/5 615/4/5 620/4/5
f 622/4/5 617/4/5 616/4/5
f 623/4/5 617/4/5 622/4/5
f 624/4/5 619/4/5 618/4/5
f 625/4/5 619/4/5 624/4/5
f 630/8/5 627/8/5 626/8/5
f 631/8/5 627/8/5 630/8/5
f 632/8/5 629/8/5 628/8/5
f 633/8/5 629/8/5 632/8/5
f 636/8/5 635/8/5 634/8/5
f 637/8/5 635/8/5 636/8/5
f 638/3/6 639/3/6 640/3/6
f 640/3/6 639/3/6 641/3/6
f 641/3/6 639/3/6 642/3/6
f 642/3/6 639/3/6 643/3/6
f 644/3/6 645/3/6 648/3/6
f 646/3/6 647/3/6 649/3/6
f 644/3/6 648/3/6 650/3/6
f 650/3/6 648/3/6 651/3/6
f 649/3/6 647/3/6 652/3/6
f 652/3/6 647/3/6 653/3/6
f 654/4/6 655/4/6 658/4/6
f 658/4/6 655/4/6 659/4/6
f 656/4/6 657/4/6 660/4/6
f 660/4/6 657/4/6 661/4/6
f 662/4/6 663/4/6 670/4/6
f 670/4/6 663/4/6 671/4/6
f 664/4/6 665/4/6 672/4/6
f 672/4/6 665/4/6 673/4/6
f 666/4/6 667/4/6 674/4/6
f 674/4/6 667/4/6 675/4/6
f 668/4/6 669/4/6 676/4/6
f 676/4/6 669/4/6 677/4/6
f 678/4/6 679/4/6 684/4/6
f 684/4/6 679/4/6 685/4/6
f 680/4/6 681/4/6 686/4/6
f 686/4/6 681/4/6 687/4/6
f 682/4/6 683/4/6 688/4/6
f 688/4/6 683/4/6 689/4/6
f 690/8/6 691/8/6 695/8/6
f 695/8/6 691/8/6 696/8/6
f 692/8/6 693/8/6 697/8/6
f 697/8/6 693/8/6 698/8/6
f 694/8/6 695/8/6 700/8/6
f 700/8/6 695/8/6 701/8/6
f 698/8/6 699/8/6 702/8/6
f 702/8/6 699/8/6 703/8/6
f 704/8/6 705/8/6 706/8/6
f 706/8/6 705/8/6 707/8/6
f 708/8/6 709/8/6 711/8/6
f 711/8/6 709/8/6 712/8/6
f 710/8/6 711/8/6 715/8/6
f 715/8/6 711/8/6 716/8/6
f 712/8/6 713/8/6 717/8/6
f 717/8/6 713/8/6 718/8/6
f 714/8/6 715/8/6 720/8/6
f 720/8/6 715/8/6 721/8/6
f 718/8/6 719/8/6 725/8/6
f 725/8/6 719/8/6 726/8/6
f 722/8/6 723/8/6 727/8/6
f 727/8/6 723/8/6 728/8/6
f 724/8/6 725/8/6 729/8/6
f 729/8/6 725/8/6 730/8/6
f 728/8/6 729/8/6 731/8/6
f 731/8/6 729/8/6 732/8/6
f 733/8/6 734/8/6 736/8/6
f 736/8/6 734/8/6 737/8/6
f 735/8/6 736/8/6 739/8/6
f 737/8/6 738/8/6 739/8/6
f 736/8/6 737/8/6 739/8/6
f 739/8/6 738/8/6 740/8/6
f 740/8/6 738/8/6 741/8/6
f 741/8/6 738/8/6 742/8/6
f 740/8/6 741/8/6 743/8/6
f 743/8/6 741/8/6 744/8/6
