# MagicaVoxel @ Ephtracy

# material
mtllib chr_mulder.mtl
usemtl palette

# normals
vn -1 0 0
vn 1 0 0
vn 0 0 1
vn 0 0 -1
vn 0 -1 0
vn 0 1 0

# texcoords
vt 0.0253906 0.5
vt 0.0292969 0.5
vt 0.0332031 0.5
vt 0.0410156 0.5
vt 0.0527344 0.5
vt 0.0566406 0.5
vt 0.0605469 0.5
vt 0.150391 0.5
vt 0.318359 0.5
vt 0.373047 0.5
vt 0.384766 0.5
vt 0.396484 0.5
vt 0.462891 0.5
vt 0.466797 0.5
vt 0.505859 0.5
vt 0.517578 0.5
vt 0.529297 0.5
vt 0.623047 0.5
vt 0.642578 0.5
vt 0.677734 0.5
vt 0.705078 0.5
vt 0.708984 0.5
vt 0.712891 0.5
vt 0.806641 0.5
vt 0.818359 0.5
vt 0.865234 0.5
vt 0.990234 0.5
vt 0.994141 0.5

# verts
v -12 6 2.5
v -12 6 -0.5
v -12 9 2.5
v -12 9 -0.5
v -12 18 2.5
v -12 18 -0.5
v -12 18 -3.5
v -12 21 5.5
v -12 21 2.5
v -12 21 -0.5
v -12 24 2.5
v -12 24 -0.5
v -12 30 5.5
v -12 30 2.5
v -12 30 -0.5
v -12 30 -3.5
v -12 33 2.5
v -12 33 -0.5
v -9 3 5.5
v -9 3 -3.5
v -9 6 8.5
v -9 6 5.5
v -9 6 2.5
v -9 6 -0.5
v -9 6 -3.5
v -9 6 -6.5
v -9 9 8.5
v -9 9 2.5
v -9 9 -0.5
v -9 9 -6.5
v -9 18 8.5
v -9 18 5.5
v -9 18 2.5
v -9 18 -0.5
v -9 18 -3.5
v -9 18 -6.5
v -9 21 5.5
v -9 21 2.5
v -9 21 -0.5
v -9 27 8.5
v -9 27 5.5
v -9 30 8.5
v -9 30 5.5
v -9 30 2.5
v -9 30 -0.5
v -9 30 -3.5
v -9 33 5.5
v -9 33 2.5
v -9 33 -0.5
v -9 33 -3.5
v -9 33 -6.5
v -9 36 2.5
v -9 36 -3.5
v -6 0 2.5
v -6 0 -0.5
v -6 3 2.5
v -6 3 -0.5
v -6 18 -6.5
v -6 18 -9.5
v -6 30 8.5
v -6 30 5.5
v -6 33 8.5
v -6 33 5.5
v -6 33 2.5
v -6 33 -3.5
v -6 33 -6.5
v -6 33 -9.5
v -6 36 5.5
v -6 36 2.5
v -6 36 -3.5
v -6 36 -6.5
v 3 0 2.5
v 3 0 -0.5
v 3 3 5.5
v 3 3 2.5
v 3 3 -0.5
v 3 3 -3.5
v 3 6 5.5
v 3 6 -3.5
v -3 0 2.5
v -3 0 -0.5
v -3 3 5.5
v -3 3 2.5
v -3 3 -0.5
v -3 3 -3.5
v -3 6 5.5
v -3 6 -3.5
v 6 0 2.5
v 6 0 -0.5
v 6 3 2.5
v 6 3 -0.5
v 6 18 -6.5
v 6 18 -9.5
v 6 33 5.5
v 6 33 2.5
v 6 33 -3.5
v 6 33 -6.5
v 6 33 -9.5
v 6 36 5.5
v 6 36 2.5
v 6 36 -3.5
v 6 36 -6.5
v 9 3 5.5
v 9 3 -3.5
v 9 6 8.5
v 9 6 5.5
v 9 6 2.5
v 9 6 -0.5
v 9 6 -3.5
v 9 6 -6.5
v 9 9 8.5
v 9 9 2.5
v 9 9 -0.5
v 9 9 -6.5
v 9 12 8.5
v 9 12 7.5
v 9 17 8.5
v 9 17 7.5
v 9 18 8.5
v 9 18 5.5
v 9 18 2.5
v 9 18 -0.5
v 9 18 -3.5
v 9 18 -6.5
v 9 21 5.5
v 9 21 2.5
v 9 21 -0.5
v 9 30 8.5
v 9 30 5.5
v 9 33 8.5
v 9 33 5.5
v 9 33 2.5
v 9 33 -3.5
v 9 33 -6.5
v 9 36 2.5
v 9 36 -3.5
v 12 6 2.5
v 12 6 -0.5
v 12 9 2.5
v 12 9 -0.5
v 12 18 2.5
v 12 18 -0.5
v 12 18 -3.5
v 12 21 5.5
v 12 21 2.5
v 12 21 -0.5
v 12 24 2.5
v 12 24 -0.5
v 12 27 8.5
v 12 27 5.5
v 12 30 8.5
v 12 30 5.5
v 12 33 5.5
v 12 33 -3.5
v -9 6 8.5
v -9 9 8.5
v -9 18 8.5
v -9 27 8.5
v -9 30 8.5
v -7 15 8.5
v -7 16 8.5
v -6 14 8.5
v -6 15 8.5
v -6 16 8.5
v -6 17 8.5
v -6 30 8.5
v -6 33 8.5
v -5 10 8.5
v -5 14 8.5
v -5 15 8.5
v -5 16 8.5
v -5 17 8.5
v -5 18 8.5
v -4 9 8.5
v -4 10 8.5
v -4 14 8.5
v -4 17 8.5
v -4 18 8.5
v -3 10 8.5
v -3 14 8.5
v -3 16 8.5
v -3 18 8.5
v -2 9 8.5
v -2 14 8.5
v -2 16 8.5
v -2 17 8.5
v -2 18 8.5
v -1 9 8.5
v -1 14 8.5
v -1 16 8.5
v -1 17 8.5
v 1 9 8.5
v 1 14 8.5
v 1 16 8.5
v 1 17 8.5
v 2 9 8.5
v 2 14 8.5
v 2 16 8.5
v 2 17 8.5
v 2 18 8.5
v 3 10 8.5
v 3 14 8.5
v 3 16 8.5
v 3 18 8.5
v 4 9 8.5
v 4 10 8.5
v 4 12 8.5
v 4 17 8.5
v 4 18 8.5
v 5 10 8.5
v 5 12 8.5
v 5 13 8.5
v 5 14 8.5
v 5 15 8.5
v 5 16 8.5
v 5 17 8.5
v 5 18 8.5
v 6 13 8.5
v 6 14 8.5
v 6 15 8.5
v 6 16 8.5
v 6 17 8.5
v 7 13 8.5
v 7 14 8.5
v 7 15 8.5
v 7 16 8.5
v 7 17 8.5
v 8 13 8.5
v 8 14 8.5
v 8 15 8.5
v 8 16 8.5
v 8 17 8.5
v 8 18 8.5
v 9 6 8.5
v 9 9 8.5
v 9 12 8.5
v 9 17 8.5
v 9 18 8.5
v 9 30 8.5
v 9 33 8.5
v 12 27 8.5
v 12 30 8.5
v -12 21 5.5
v -12 30 5.5
v -9 3 5.5
v -9 6 5.5
v -9 18 5.5
v -9 21 5.5
v -9 27 5.5
v -9 30 5.5
v -9 33 5.5
v -6 21 5.5
v -6 24 5.5
v -6 30 5.5
v -6 33 5.5
v -6 36 5.5
v -5 18 5.5
v -4 18 5.5
v -3 3 5.5
v -3 6 5.5
v -3 18 5.5
v -3 21 5.5
v -3 24 5.5
v -2 18 5.5
v 2 18 5.5
v 3 3 5.5
v 3 6 5.5
v 3 18 5.5
v 3 21 5.5
v 3 24 5.5
v 4 18 5.5
v 5 18 5.5
v 6 21 5.5
v 6 24 5.5
v 6 33 5.5
v 6 36 5.5
v 9 3 5.5
v 9 6 5.5
v 9 18 5.5
v 9 21 5.5
v 9 27 5.5
v 9 30 5.5
v 9 33 5.5
v 12 21 5.5
v 12 27 5.5
v 12 30 5.5
v 12 33 5.5
v -12 6 2.5
v -12 9 2.5
v -12 18 2.5
v -12 30 2.5
v -12 33 2.5
v -9 6 2.5
v -9 9 2.5
v -9 18 2.5
v -9 30 2.5
v -9 33 2.5
v -9 36 2.5
v -6 0 2.5
v -6 3 2.5
v -6 33 2.5
v -6 36 2.5
v -3 0 2.5
v -3 3 2.5
v 3 0 2.5
v 3 3 2.5
v 6 0 2.5
v 6 3 2.5
v 6 33 2.5
v 6 36 2.5
v 9 6 2.5
v 9 9 2.5
v 9 18 2.5
v 9 33 2.5
v 9 36 2.5
v 12 6 2.5
v 12 9 2.5
v 12 18 2.5
v -12 18 -0.5
v -12 21 -0.5
v -9 18 -0.5
v -9 21 -0.5
v 9 18 -0.5
v 9 21 -0.5
v 12 18 -0.5
v 12 21 -0.5
v -12 6 -0.5
v -12 9 -0.5
v -12 18 -0.5
v -12 30 -0.5
v -12 33 -0.5
v -9 6 -0.5
v -9 9 -0.5
v -9 18 -0.5
v -9 30 -0.5
v -9 33 -0.5
v -6 0 -0.5
v -6 3 -0.5
v -3 0 -0.5
v -3 3 -0.5
v 3 0 -0.5
v 3 3 -0.5
v 6 0 -0.5
v 6 3 -0.5
v 9 6 -0.5
v 9 9 -0.5
v 9 18 -0.5
v 12 6 -0.5
v 12 9 -0.5
v 12 18 -0.5
v -12 18 -3.5
v -12 30 -3.5
v -9 3 -3.5
v -9 6 -3.5
v -9 18 -3.5
v -9 30 -3.5
v -9 33 -3.5
v -9 36 -3.5
v -6 33 -3.5
v -6 36 -3.5
v -3 3 -3.5
v -3 6 -3.5
v 3 3 -3.5
v 3 6 -3.5
v 6 33 -3.5
v 6 36 -3.5
v 9 3 -3.5
v 9 6 -3.5
v 9 18 -3.5
v 9 33 -3.5
v 9 36 -3.5
v 12 18 -3.5
v 12 33 -3.5
v -9 6 -6.5
v -9 9 -6.5
v -9 18 -6.5
v -9 33 -6.5
v -6 18 -6.5
v -6 33 -6.5
v -6 36 -6.5
v 6 18 -6.5
v 6 33 -6.5
v 6 36 -6.5
v 9 6 -6.5
v 9 9 -6.5
v 9 18 -6.5
v 9 33 -6.5
v -6 18 -9.5
v -6 33 -9.5
v 6 18 -9.5
v 6 33 -9.5
v -6 0 2.5
v -3 0 2.5
v 3 0 2.5
v 6 0 2.5
v -6 0 -0.5
v -3 0 -0.5
v 3 0 -0.5
v 6 0 -0.5
v -9 3 5.5
v -3 3 5.5
v 3 3 5.5
v 9 3 5.5
v -6 3 2.5
v -3 3 2.5
v 3 3 2.5
v 6 3 2.5
v -6 3 -0.5
v -3 3 -0.5
v 3 3 -0.5
v 6 3 -0.5
v -9 3 -3.5
v -3 3 -3.5
v 3 3 -3.5
v 9 3 -3.5
v -9 6 8.5
v 9 6 8.5
v -9 6 5.5
v -3 6 5.5
v 3 6 5.5
v 9 6 5.5
v -12 6 2.5
v -9 6 2.5
v 9 6 2.5
v 12 6 2.5
v -12 6 -0.5
v -9 6 -0.5
v 9 6 -0.5
v 12 6 -0.5
v -9 6 -3.5
v -3 6 -3.5
v 3 6 -3.5
v 9 6 -3.5
v -9 6 -6.5
v 9 6 -6.5
v -12 18 -0.5
v -9 18 -0.5
v 9 18 -0.5
v 12 18 -0.5
v -12 18 -3.5
v -9 18 -3.5
v 9 18 -3.5
v 12 18 -3.5
v -6 18 -6.5
v 6 18 -6.5
v -6 18 -9.5
v 6 18 -9.5
v -12 21 5.5
v -9 21 5.5
v 9 21 5.5
v 12 21 5.5
v -12 21 2.5
v -9 21 2.5
v 9 21 2.5
v 12 21 2.5
v -12 21 -0.5
v -9 21 -0.5
v 9 21 -0.5
v 12 21 -0.5
v -9 27 8.5
v 12 27 8.5
v -9 27 5.5
v 9 27 5.5
v 12 27 5.5
v -9 18 8.5
v -5 18 8.5
v -4 18 8.5
v -3 18 8.5
v -2 18 8.5
v 2 18 8.5
v 3 18 8.5
v 4 18 8.5
v 5 18 8.5
v 8 18 8.5
v 9 18 8.5
v -6 18 7.5
v -5 18 7.5
v -4 18 7.5
v 4 18 7.5
v 5 18 7.5
v 6 18 7.5
v 8 18 7.5
v -6 18 6.5
v -5 18 6.5
v -4 18 6.5
v 4 18 6.5
v 5 18 6.5
v 6 18 6.5
v -9 18 5.5
v -5 18 5.5
v -4 18 5.5
v -3 18 5.5
v -2 18 5.5
v 2 18 5.5
v 3 18 5.5
v 4 18 5.5
v 5 18 5.5
v 9 18 5.5
v -12 18 2.5
v -9 18 2.5
v 9 18 2.5
v 12 18 2.5
v -12 18 -0.5
v -9 18 -0.5
v 9 18 -0.5
v 12 18 -0.5
v -9 30 8.5
v -6 30 8.5
v 9 30 8.5
v 12 30 8.5
v -12 30 5.5
v -9 30 5.5
v -6 30 5.5
v 9 30 5.5
v 12 30 5.5
v -12 30 2.5
v -9 30 2.5
v -12 30 -0.5
v -9 30 -0.5
v -12 30 -3.5
v -9 30 -3.5
v -6 33 8.5
v 9 33 8.5
v -9 33 5.5
v -6 33 5.5
v 6 33 5.5
v 9 33 5.5
v 12 33 5.5
v -12 33 2.5
v -9 33 2.5
v -6 33 2.5
v 6 33 2.5
v 9 33 2.5
v -12 33 -0.5
v -9 33 -0.5
v -9 33 -3.5
v -6 33 -3.5
v 6 33 -3.5
v 9 33 -3.5
v 12 33 -3.5
v -9 33 -6.5
v -6 33 -6.5
v 6 33 -6.5
v 9 33 -6.5
v -6 33 -9.5
v 6 33 -9.5
v -6 36 5.5
v 6 36 5.5
v -9 36 2.5
v -6 36 2.5
v 6 36 2.5
v 9 36 2.5
v -9 36 -3.5
v -6 36 -3.5
v 6 36 -3.5
v 9 36 -3.5
v -6 36 -6.5
v 6 36 -6.5

# faces
f 3/15/1 2/15/1 1/15/1
f 4/15/1 2/15/1 3/15/1
f 5/23/1 4/23/1 3/23/1
f 6/23/1 4/23/1 5/23/1
f 10/28/1 7/28/1 6/28/1
f 11/28/1 9/28/1 8/28/1
f 11/15/1 10/15/1 9/15/1
f 12/28/1 7/28/1 10/28/1
f 12/15/1 10/15/1 11/15/1
f 13/28/1 11/28/1 8/28/1
f 13/28/1 12/28/1 11/28/1
f 14/28/1 12/28/1 13/28/1
f 15/28/1 7/28/1 12/28/1
f 15/28/1 12/28/1 14/28/1
f 16/28/1 7/28/1 15/28/1
f 17/28/1 15/28/1 14/28/1
f 18/28/1 15/28/1 17/28/1
f 22/5/1 20/5/1 19/5/1
f 23/5/1 20/5/1 22/5/1
f 24/5/1 20/5/1 23/5/1
f 25/5/1 20/5/1 24/5/1
f 27/5/1 22/5/1 21/5/1
f 27/5/1 23/5/1 22/5/1
f 28/5/1 23/5/1 27/5/1
f 29/5/1 26/5/1 25/5/1
f 29/5/1 25/5/1 24/5/1
f 30/5/1 26/5/1 29/5/1
f 31/23/1 28/23/1 27/23/1
f 32/23/1 28/23/1 31/23/1
f 33/23/1 28/23/1 32/23/1
f 34/23/1 30/23/1 29/23/1
f 35/23/1 30/23/1 34/23/1
f 36/23/1 30/23/1 35/23/1
f 37/15/1 33/15/1 32/15/1
f 37/15/1 34/15/1 33/15/1
f 38/15/1 34/15/1 37/15/1
f 39/15/1 34/15/1 38/15/1
f 42/28/1 41/28/1 40/28/1
f 43/28/1 41/28/1 42/28/1
f 46/28/1 36/28/1 35/28/1
f 47/28/1 44/28/1 43/28/1
f 48/28/1 44/28/1 47/28/1
f 49/28/1 46/28/1 45/28/1
f 50/28/1 36/28/1 46/28/1
f 50/28/1 46/28/1 49/28/1
f 51/28/1 36/28/1 50/28/1
f 52/28/1 49/28/1 48/28/1
f 52/28/1 50/28/1 49/28/1
f 53/28/1 50/28/1 52/28/1
f 56/28/1 55/28/1 54/28/1
f 57/28/1 55/28/1 56/28/1
f 62/28/1 61/28/1 60/28/1
f 63/28/1 61/28/1 62/28/1
f 66/28/1 59/28/1 58/28/1
f 67/28/1 59/28/1 66/28/1
f 68/28/1 64/28/1 63/28/1
f 69/28/1 64/28/1 68/28/1
f 70/28/1 66/28/1 65/28/1
f 71/28/1 66/28/1 70/28/1
f 75/28/1 73/28/1 72/28/1
f 76/28/1 73/28/1 75/28/1
f 78/5/1 75/5/1 74/5/1
f 78/5/1 77/5/1 76/5/1
f 78/5/1 76/5/1 75/5/1
f 79/5/1 77/5/1 78/5/1
f 80/28/2 81/28/2 83/28/2
f 83/28/2 81/28/2 84/28/2
f 82/5/2 83/5/2 86/5/2
f 84/5/2 85/5/2 86/5/2
f 83/5/2 84/5/2 86/5/2
f 86/5/2 85/5/2 87/5/2
f 88/28/2 89/28/2 90/28/2
f 90/28/2 89/28/2 91/28/2
f 92/28/2 93/28/2 97/28/2
f 97/28/2 93/28/2 98/28/2
f 94/28/2 95/28/2 99/28/2
f 99/28/2 95/28/2 100/28/2
f 96/28/2 97/28/2 101/28/2
f 101/28/2 97/28/2 102/28/2
f 103/5/2 104/5/2 106/5/2
f 106/5/2 104/5/2 107/5/2
f 107/5/2 104/5/2 108/5/2
f 108/5/2 104/5/2 109/5/2
f 105/5/2 106/5/2 111/5/2
f 106/5/2 107/5/2 111/5/2
f 111/5/2 107/5/2 112/5/2
f 109/5/2 110/5/2 113/5/2
f 108/5/2 109/5/2 113/5/2
f 113/5/2 110/5/2 114/5/2
f 111/23/2 112/23/2 115/23/2
f 115/23/2 112/23/2 116/23/2
f 115/14/2 116/14/2 117/14/2
f 116/23/2 112/23/2 118/23/2
f 117/14/2 116/14/2 118/14/2
f 117/23/2 118/23/2 119/23/2
f 118/23/2 112/23/2 120/23/2
f 119/23/2 118/23/2 120/23/2
f 120/23/2 112/23/2 121/23/2
f 113/23/2 114/23/2 122/23/2
f 122/23/2 114/23/2 123/23/2
f 123/23/2 114/23/2 124/23/2
f 120/15/2 121/15/2 125/15/2
f 121/15/2 122/15/2 125/15/2
f 125/15/2 122/15/2 126/15/2
f 126/15/2 122/15/2 127/15/2
f 128/28/2 129/28/2 130/28/2
f 130/28/2 129/28/2 131/28/2
f 123/28/2 124/28/2 133/28/2
f 133/28/2 124/28/2 134/28/2
f 132/28/2 133/28/2 135/28/2
f 135/28/2 133/28/2 136/28/2
f 137/15/2 138/15/2 139/15/2
f 139/15/2 138/15/2 140/15/2
f 139/23/2 140/23/2 141/23/2
f 141/23/2 140/23/2 142/23/2
f 142/28/2 143/28/2 146/28/2
f 144/28/2 145/28/2 147/28/2
f 145/15/2 146/15/2 147/15/2
f 146/28/2 143/28/2 148/28/2
f 147/15/2 146/15/2 148/15/2
f 144/28/2 147/28/2 150/28/2
f 147/28/2 148/28/2 150/28/2
f 149/28/2 150/28/2 151/28/2
f 150/28/2 148/28/2 152/28/2
f 151/28/2 150/28/2 152/28/2
f 152/28/2 148/28/2 153/28/2
f 148/28/2 143/28/2 154/28/2
f 153/28/2 148/28/2 154/28/2
f 160/23/3 157/23/3 156/23/3
f 161/23/3 157/23/3 160/23/3
f 162/23/3 160/23/3 156/23/3
f 163/5/3 161/5/3 160/5/3
f 163/23/3 160/23/3 162/23/3
f 164/23/3 157/23/3 161/23/3
f 164/5/3 161/5/3 163/5/3
f 165/23/3 157/23/3 164/23/3
f 166/28/3 159/28/3 158/28/3
f 168/23/3 162/23/3 156/23/3
f 169/5/3 163/5/3 162/5/3
f 169/23/3 162/23/3 168/23/3
f 170/23/3 164/23/3 163/23/3
f 170/5/3 163/5/3 169/5/3
f 171/5/3 165/5/3 164/5/3
f 171/23/3 164/23/3 170/23/3
f 172/23/3 157/23/3 165/23/3
f 172/5/3 165/5/3 171/5/3
f 173/23/3 157/23/3 172/23/3
f 174/5/3 156/5/3 155/5/3
f 174/23/3 168/23/3 156/23/3
f 175/5/3 169/5/3 168/5/3
f 175/23/3 168/23/3 174/23/3
f 176/23/3 171/23/3 170/23/3
f 176/5/3 169/5/3 175/5/3
f 176/23/3 170/23/3 169/23/3
f 176/23/3 172/23/3 171/23/3
f 177/5/3 173/5/3 172/5/3
f 177/23/3 172/23/3 176/23/3
f 178/5/3 173/5/3 177/5/3
f 179/5/3 175/5/3 174/5/3
f 179/23/3 176/23/3 175/23/3
f 179/23/3 178/23/3 177/23/3
f 179/23/3 177/23/3 176/23/3
f 180/23/3 178/23/3 179/23/3
f 181/23/3 178/23/3 180/23/3
f 182/23/3 178/23/3 181/23/3
f 183/5/3 174/5/3 155/5/3
f 183/5/3 179/5/3 174/5/3
f 183/5/3 180/5/3 179/5/3
f 184/23/3 181/23/3 180/23/3
f 184/5/3 180/5/3 183/5/3
f 185/5/3 182/5/3 181/5/3
f 185/23/3 181/23/3 184/23/3
f 186/5/3 182/5/3 185/5/3
f 187/5/3 182/5/3 186/5/3
f 188/13/3 184/13/3 183/13/3
f 188/5/3 183/5/3 155/5/3
f 189/5/3 185/5/3 184/5/3
f 189/13/3 184/13/3 188/13/3
f 190/13/3 186/13/3 185/13/3
f 190/5/3 185/5/3 189/5/3
f 191/22/3 187/22/3 186/22/3
f 191/13/3 186/13/3 190/13/3
f 192/22/3 190/22/3 189/22/3
f 192/5/3 188/5/3 155/5/3
f 192/22/3 191/22/3 190/22/3
f 192/22/3 189/22/3 188/22/3
f 193/22/3 191/22/3 192/22/3
f 194/22/3 191/22/3 193/22/3
f 195/22/3 187/22/3 191/22/3
f 195/22/3 191/22/3 194/22/3
f 196/5/3 192/5/3 155/5/3
f 196/13/3 193/13/3 192/13/3
f 197/5/3 194/5/3 193/5/3
f 197/13/3 193/13/3 196/13/3
f 198/13/3 195/13/3 194/13/3
f 198/5/3 194/5/3 197/5/3
f 199/22/3 187/22/3 195/22/3
f 199/13/3 195/13/3 198/13/3
f 200/22/3 187/22/3 199/22/3
f 201/5/3 197/5/3 196/5/3
f 202/23/3 198/23/3 197/23/3
f 202/5/3 197/5/3 201/5/3
f 203/5/3 199/5/3 198/5/3
f 203/23/3 198/23/3 202/23/3
f 203/5/3 200/5/3 199/5/3
f 204/5/3 200/5/3 203/5/3
f 205/5/3 196/5/3 155/5/3
f 205/5/3 201/5/3 196/5/3
f 206/23/3 204/23/3 203/23/3
f 206/5/3 201/5/3 205/5/3
f 206/23/3 202/23/3 201/23/3
f 206/23/3 203/23/3 202/23/3
f 207/23/3 204/23/3 206/23/3
f 208/23/3 204/23/3 207/23/3
f 209/23/3 204/23/3 208/23/3
f 210/23/3 206/23/3 205/23/3
f 210/5/3 207/5/3 206/5/3
f 211/14/3 208/14/3 207/14/3
f 211/5/3 207/5/3 210/5/3
f 212/14/3 208/14/3 211/14/3
f 213/14/3 208/14/3 212/14/3
f 214/14/3 208/14/3 213/14/3
f 215/14/3 208/14/3 214/14/3
f 216/5/3 209/5/3 208/5/3
f 216/14/3 208/14/3 215/14/3
f 217/5/3 209/5/3 216/5/3
f 218/14/3 212/14/3 211/14/3
f 218/21/3 213/21/3 212/21/3
f 219/22/3 214/22/3 213/22/3
f 219/21/3 213/21/3 218/21/3
f 220/21/3 215/21/3 214/21/3
f 220/22/3 214/22/3 219/22/3
f 221/14/3 216/14/3 215/14/3
f 221/21/3 215/21/3 220/21/3
f 222/1/3 217/1/3 216/1/3
f 222/14/3 216/14/3 221/14/3
f 223/14/3 219/14/3 218/14/3
f 223/14/3 221/14/3 220/14/3
f 223/14/3 218/14/3 211/14/3
f 223/14/3 220/14/3 219/14/3
f 224/14/3 221/14/3 223/14/3
f 225/14/3 221/14/3 224/14/3
f 226/1/3 222/1/3 221/1/3
f 226/14/3 221/14/3 225/14/3
f 227/1/3 217/1/3 222/1/3
f 227/1/3 222/1/3 226/1/3
f 228/14/3 223/14/3 211/14/3
f 228/22/3 224/22/3 223/22/3
f 229/21/3 225/21/3 224/21/3
f 229/22/3 224/22/3 228/22/3
f 230/22/3 226/22/3 225/22/3
f 230/21/3 225/21/3 229/21/3
f 231/14/3 227/14/3 226/14/3
f 231/22/3 226/22/3 230/22/3
f 232/1/3 217/1/3 227/1/3
f 232/14/3 227/14/3 231/14/3
f 233/1/3 217/1/3 232/1/3
f 234/5/3 205/5/3 155/5/3
f 235/23/3 210/23/3 205/23/3
f 235/5/3 205/5/3 234/5/3
f 235/23/3 211/23/3 210/23/3
f 236/14/3 229/14/3 228/14/3
f 236/23/3 211/23/3 235/23/3
f 236/14/3 228/14/3 211/14/3
f 236/14/3 232/14/3 231/14/3
f 236/14/3 230/14/3 229/14/3
f 236/14/3 231/14/3 230/14/3
f 237/23/3 233/23/3 232/23/3
f 237/14/3 232/14/3 236/14/3
f 238/23/3 233/23/3 237/23/3
f 239/28/3 166/28/3 158/28/3
f 239/28/3 167/28/3 166/28/3
f 240/28/3 167/28/3 239/28/3
f 241/28/3 239/28/3 158/28/3
f 242/28/3 239/28/3 241/28/3
f 248/28/3 244/28/3 243/28/3
f 249/28/3 244/28/3 248/28/3
f 250/28/3 244/28/3 249/28/3
f 252/15/3 248/15/3 247/15/3
f 252/15/3 249/15/3 248/15/3
f 253/15/3 249/15/3 252/15/3
f 254/28/3 251/28/3 250/28/3
f 255/28/3 251/28/3 254/28/3
f 257/15/3 252/15/3 247/15/3
f 258/15/3 252/15/3 257/15/3
f 259/5/3 246/5/3 245/5/3
f 260/5/3 246/5/3 259/5/3
f 261/15/3 252/15/3 258/15/3
f 262/6/3 253/6/3 252/6/3
f 262/15/3 252/15/3 261/15/3
f 263/15/3 249/15/3 253/15/3
f 263/6/3 253/6/3 262/6/3
f 264/12/3 262/12/3 261/12/3
f 265/12/3 262/12/3 264/12/3
f 268/12/3 262/12/3 265/12/3
f 269/15/3 263/15/3 262/15/3
f 269/12/3 262/12/3 268/12/3
f 270/15/3 249/15/3 263/15/3
f 270/15/3 263/15/3 269/15/3
f 271/15/3 269/15/3 268/15/3
f 272/15/3 269/15/3 271/15/3
f 273/6/3 270/6/3 269/6/3
f 273/15/3 269/15/3 272/15/3
f 274/15/3 249/15/3 270/15/3
f 274/6/3 270/6/3 273/6/3
f 275/28/3 256/28/3 255/28/3
f 276/28/3 256/28/3 275/28/3
f 277/5/3 267/5/3 266/5/3
f 278/5/3 267/5/3 277/5/3
f 279/15/3 273/15/3 272/15/3
f 279/15/3 274/15/3 273/15/3
f 280/15/3 274/15/3 279/15/3
f 281/15/3 249/15/3 274/15/3
f 281/15/3 274/15/3 280/15/3
f 284/28/3 281/28/3 280/28/3
f 285/28/3 281/28/3 284/28/3
f 286/28/3 283/28/3 282/28/3
f 287/28/3 283/28/3 286/28/3
f 293/15/3 289/15/3 288/15/3
f 294/23/3 290/23/3 289/23/3
f 294/15/3 289/15/3 293/15/3
f 295/23/3 290/23/3 294/23/3
f 296/28/3 292/28/3 291/28/3
f 297/28/3 292/28/3 296/28/3
f 301/28/3 298/28/3 297/28/3
f 302/28/3 298/28/3 301/28/3
f 303/28/3 300/28/3 299/28/3
f 304/28/3 300/28/3 303/28/3
f 307/28/3 306/28/3 305/28/3
f 308/28/3 306/28/3 307/28/3
f 314/28/3 310/28/3 309/28/3
f 315/28/3 310/28/3 314/28/3
f 316/15/3 312/15/3 311/15/3
f 317/23/3 313/23/3 312/23/3
f 317/15/3 312/15/3 316/15/3
f 318/23/3 313/23/3 317/23/3
f 321/28/3 320/28/3 319/28/3
f 322/28/3 320/28/3 321/28/3
f 325/28/3 324/28/3 323/28/3
f 326/28/3 324/28/3 325/28/3
f 327/15/4 328/15/4 332/15/4
f 328/23/4 329/23/4 333/23/4
f 332/15/4 328/15/4 333/15/4
f 333/23/4 329/23/4 334/23/4
f 330/28/4 331/28/4 335/28/4
f 335/28/4 331/28/4 336/28/4
f 337/28/4 338/28/4 339/28/4
f 339/28/4 338/28/4 340/28/4
f 341/28/4 342/28/4 343/28/4
f 343/28/4 342/28/4 344/28/4
f 345/15/4 346/15/4 348/15/4
f 346/23/4 347/23/4 349/23/4
f 348/15/4 346/15/4 349/15/4
f 349/23/4 347/23/4 350/23/4
f 351/28/4 352/28/4 355/28/4
f 355/28/4 352/28/4 356/28/4
f 357/28/4 358/28/4 359/28/4
f 359/28/4 358/28/4 360/28/4
f 353/5/4 354/5/4 361/5/4
f 361/5/4 354/5/4 362/5/4
f 363/5/4 364/5/4 367/5/4
f 367/5/4 364/5/4 368/5/4
f 365/28/4 366/28/4 370/28/4
f 370/28/4 366/28/4 371/28/4
f 369/28/4 370/28/4 372/28/4
f 372/28/4 370/28/4 373/28/4
f 375/23/4 376/23/4 378/23/4
f 376/28/4 377/28/4 378/28/4
f 378/28/4 377/28/4 379/28/4
f 375/23/4 378/23/4 381/23/4
f 379/28/4 380/28/4 382/28/4
f 382/28/4 380/28/4 383/28/4
f 374/5/4 375/5/4 384/5/4
f 375/23/4 381/23/4 385/23/4
f 384/5/4 375/5/4 385/5/4
f 381/28/4 382/28/4 386/28/4
f 385/23/4 381/23/4 386/23/4
f 386/28/4 382/28/4 387/28/4
f 388/28/4 389/28/4 390/28/4
f 390/28/4 389/28/4 391/28/4
f 396/28/5 393/28/5 392/28/5
f 397/28/5 393/28/5 396/28/5
f 398/28/5 395/28/5 394/28/5
f 399/28/5 395/28/5 398/28/5
f 404/5/5 401/5/5 400/5/5
f 405/5/5 401/5/5 404/5/5
f 406/5/5 403/5/5 402/5/5
f 407/5/5 403/5/5 406/5/5
f 408/5/5 404/5/5 400/5/5
f 411/5/5 403/5/5 407/5/5
f 412/5/5 409/5/5 408/5/5
f 412/5/5 408/5/5 400/5/5
f 413/5/5 409/5/5 412/5/5
f 414/5/5 411/5/5 410/5/5
f 415/5/5 403/5/5 411/5/5
f 415/5/5 411/5/5 414/5/5
f 418/5/5 417/5/5 416/5/5
f 419/5/5 417/5/5 418/5/5
f 420/5/5 417/5/5 419/5/5
f 421/5/5 417/5/5 420/5/5
f 426/15/5 423/15/5 422/15/5
f 427/15/5 423/15/5 426/15/5
f 428/15/5 425/15/5 424/15/5
f 429/15/5 425/15/5 428/15/5
f 431/5/5 420/5/5 419/5/5
f 432/5/5 420/5/5 431/5/5
f 434/5/5 431/5/5 430/5/5
f 434/5/5 433/5/5 432/5/5
f 434/5/5 432/5/5 431/5/5
f 435/5/5 433/5/5 434/5/5
f 440/28/5 437/28/5 436/28/5
f 441/28/5 437/28/5 440/28/5
f 442/28/5 439/28/5 438/28/5
f 443/28/5 439/28/5 442/28/5
f 446/28/5 445/28/5 444/28/5
f 447/28/5 445/28/5 446/28/5
f 452/28/5 449/28/5 448/28/5
f 453/28/5 449/28/5 452/28/5
f 454/28/5 451/28/5 450/28/5
f 455/28/5 451/28/5 454/28/5
f 456/15/5 453/15/5 452/15/5
f 457/15/5 453/15/5 456/15/5
f 458/15/5 455/15/5 454/15/5
f 459/15/5 455/15/5 458/15/5
f 462/28/5 461/28/5 460/28/5
f 463/28/5 461/28/5 462/28/5
f 464/28/5 461/28/5 463/28/5
f 465/23/6 466/23/6 476/23/6
f 466/5/6 467/5/6 477/5/6
f 476/23/6 466/23/6 477/23/6
f 467/23/6 468/23/6 478/23/6
f 477/5/6 467/5/6 478/5/6
f 471/23/6 472/23/6 479/23/6
f 472/5/6 473/5/6 479/5/6
f 473/1/6 474/1/6 480/1/6
f 479/5/6 473/5/6 480/5/6
f 480/1/6 474/1/6 481/1/6
f 474/23/6 475/23/6 482/23/6
f 481/1/6 474/1/6 482/1/6
f 465/23/6 476/23/6 483/23/6
f 476/5/6 477/5/6 483/5/6
f 477/23/6 478/23/6 484/23/6
f 483/5/6 477/5/6 484/5/6
f 478/23/6 468/23/6 485/23/6
f 484/23/6 478/23/6 485/23/6
f 471/23/6 479/23/6 486/23/6
f 479/23/6 480/23/6 486/23/6
f 480/24/6 481/24/6 487/24/6
f 486/23/6 480/23/6 487/23/6
f 481/23/6 482/23/6 488/23/6
f 487/24/6 481/24/6 488/24/6
f 483/23/6 484/23/6 489/23/6
f 465/23/6 483/23/6 489/23/6
f 484/5/6 485/5/6 490/5/6
f 489/23/6 484/23/6 490/23/6
f 485/23/6 468/23/6 491/23/6
f 490/5/6 485/5/6 491/5/6
f 468/5/6 469/5/6 492/5/6
f 491/23/6 468/23/6 492/23/6
f 469/22/6 470/22/6 493/22/6
f 492/5/6 469/5/6 493/5/6
f 470/5/6 471/5/6 494/5/6
f 493/22/6 470/22/6 494/22/6
f 471/23/6 486/23/6 495/23/6
f 494/5/6 471/5/6 495/5/6
f 486/5/6 487/5/6 496/5/6
f 495/23/6 486/23/6 496/23/6
f 487/23/6 488/23/6 497/23/6
f 496/5/6 487/5/6 497/5/6
f 482/23/6 475/23/6 498/23/6
f 497/23/6 488/23/6 498/23/6
f 488/23/6 482/23/6 498/23/6
f 499/23/6 500/23/6 503/23/6
f 503/23/6 500/23/6 504/23/6
f 501/23/6 502/23/6 505/23/6
f 505/23/6 502/23/6 506/23/6
f 507/28/6 508/28/6 512/28/6
f 512/28/6 508/28/6 513/28/6
f 509/28/6 510/28/6 514/28/6
f 514/28/6 510/28/6 515/28/6
f 511/28/6 512/28/6 516/28/6
f 516/28/6 512/28/6 517/28/6
f 518/28/6 519/28/6 520/28/6
f 520/28/6 519/28/6 521/28/6
f 522/28/6 523/28/6 525/28/6
f 525/28/6 523/28/6 526/28/6
f 526/28/6 523/28/6 527/28/6
f 524/28/6 525/28/6 530/28/6
f 530/28/6 525/28/6 531/28/6
f 526/28/6 527/28/6 532/28/6
f 527/28/6 528/28/6 532/28/6
f 532/28/6 528/28/6 533/28/6
f 529/28/6 530/28/6 534/28/6
f 534/28/6 530/28/6 535/28/6
f 533/28/6 528/28/6 539/28/6
f 539/28/6 528/28/6 540/28/6
f 536/28/6 537/28/6 541/28/6
f 541/28/6 537/28/6 542/28/6
f 538/28/6 539/28/6 543/28/6
f 543/28/6 539/28/6 544/28/6
f 542/28/6 543/28/6 545/28/6
f 545/28/6 543/28/6 546/28/6
f 547/28/6 548/28/6 550/28/6
f 550/28/6 548/28/6 551/28/6
f 549/28/6 550/28/6 553/28/6
f 551/28/6 552/28/6 553/28/6
f 550/28/6 551/28/6 553/28/6
f 553/28/6 552/28/6 554/28/6
f 554/28/6 552/28/6 555/28/6
f 555/28/6 552/28/6 556/28/6
f 554/28/6 555/28/6 557/28/6
f 557/28/6 555/28/6 558/28/6
