# MagicaVoxel @ Ephtracy

# material
mtllib chr_byers.mtl
usemtl palette

# normals
vn -1 0 0
vn 1 0 0
vn 0 0 1
vn 0 0 -1
vn 0 -1 0
vn 0 1 0

# texcoords
vt 0.0292969 0.5
vt 0.0332031 0.5
vt 0.0410156 0.5
vt 0.0488281 0.5
vt 0.0527344 0.5
vt 0.0566406 0.5
vt 0.0605469 0.5
vt 0.150391 0.5
vt 0.318359 0.5
vt 0.373047 0.5
vt 0.384766 0.5
vt 0.396484 0.5
vt 0.462891 0.5
vt 0.505859 0.5
vt 0.517578 0.5
vt 0.529297 0.5
vt 0.623047 0.5
vt 0.642578 0.5
vt 0.677734 0.5
vt 0.708984 0.5
vt 0.712891 0.5
vt 0.806641 0.5
vt 0.818359 0.5
vt 0.865234 0.5
vt 0.990234 0.5
vt 0.994141 0.5

# verts
v -12 6 2.5
v -12 6 -0.5
v -12 9 2.5
v -12 9 -0.5
v -12 18 2.5
v -12 18 -0.5
v -12 18 -3.5
v -12 21 5.5
v -12 21 2.5
v -12 21 -0.5
v -12 24 2.5
v -12 24 -0.5
v -12 30 5.5
v -12 30 2.5
v -12 30 -0.5
v -12 30 -3.5
v -12 33 2.5
v -12 33 -0.5
v -11 18 0.5
v -11 18 -0.5
v -11 21 0.5
v -11 21 -0.5
v -10 18 6.5
v -10 18 2.5
v -10 18 0.5
v -10 19 6.5
v -10 19 1.5
v -10 21 1.5
v -10 21 0.5
v -9 3 5.5
v -9 3 -3.5
v -9 6 8.5
v -9 6 5.5
v -9 6 2.5
v -9 6 -0.5
v -9 6 -3.5
v -9 6 -6.5
v -9 9 8.5
v -9 9 2.5
v -9 9 -0.5
v -9 9 -6.5
v -9 18 8.5
v -9 18 6.5
v -9 18 2.5
v -9 18 -0.5
v -9 18 -3.5
v -9 18 -6.5
v -9 19 5.5
v -9 19 1.5
v -9 21 5.5
v -9 21 2.5
v -9 21 1.5
v -9 27 8.5
v -9 27 5.5
v -9 30 8.5
v -9 30 5.5
v -9 30 2.5
v -9 30 -0.5
v -9 30 -3.5
v -9 33 5.5
v -9 33 2.5
v -9 33 -0.5
v -9 33 -3.5
v -9 33 -6.5
v -9 36 2.5
v -9 36 -3.5
v -6 0 2.5
v -6 0 -0.5
v -6 3 2.5
v -6 3 -0.5
v -6 18 -6.5
v -6 18 -9.5
v -6 30 8.5
v -6 30 5.5
v -6 33 8.5
v -6 33 5.5
v -6 33 2.5
v -6 33 -3.5
v -6 33 -6.5
v -6 33 -9.5
v -6 36 5.5
v -6 36 2.5
v -6 36 -3.5
v -6 36 -6.5
v -3 19 6.5
v -3 19 5.5
v -3 21 6.5
v -3 21 5.5
v 2 19 6.5
v 2 19 5.5
v 2 20 6.5
v 2 20 5.5
v 3 0 2.5
v 3 0 -0.5
v 3 3 5.5
v 3 3 2.5
v 3 3 -0.5
v 3 3 -3.5
v 3 6 5.5
v 3 6 -3.5
v -3 0 2.5
v -3 0 -0.5
v -3 3 5.5
v -3 3 2.5
v -3 3 -0.5
v -3 3 -3.5
v -3 6 5.5
v -3 6 -3.5
v -2 19 6.5
v -2 19 5.5
v -2 20 6.5
v -2 20 5.5
v 3 19 6.5
v 3 19 5.5
v 3 21 6.5
v 3 21 5.5
v 6 0 2.5
v 6 0 -0.5
v 6 3 2.5
v 6 3 -0.5
v 6 18 -6.5
v 6 18 -9.5
v 6 33 5.5
v 6 33 2.5
v 6 33 -3.5
v 6 33 -6.5
v 6 33 -9.5
v 6 36 5.5
v 6 36 2.5
v 6 36 -3.5
v 6 36 -6.5
v 9 3 5.5
v 9 3 -3.5
v 9 6 8.5
v 9 6 5.5
v 9 6 2.5
v 9 6 -0.5
v 9 6 -3.5
v 9 6 -6.5
v 9 9 8.5
v 9 9 2.5
v 9 9 -0.5
v 9 9 -6.5
v 9 18 8.5
v 9 18 6.5
v 9 18 2.5
v 9 18 -0.5
v 9 18 -3.5
v 9 18 -6.5
v 9 19 5.5
v 9 19 1.5
v 9 21 5.5
v 9 21 2.5
v 9 21 1.5
v 9 30 8.5
v 9 30 5.5
v 9 33 8.5
v 9 33 5.5
v 9 33 2.5
v 9 33 -3.5
v 9 33 -6.5
v 9 36 2.5
v 9 36 -3.5
v 10 18 6.5
v 10 18 2.5
v 10 18 0.5
v 10 19 6.5
v 10 19 1.5
v 10 21 1.5
v 10 21 0.5
v 11 18 0.5
v 11 18 -0.5
v 11 21 0.5
v 11 21 -0.5
v 12 6 2.5
v 12 6 -0.5
v 12 9 2.5
v 12 9 -0.5
v 12 18 2.5
v 12 18 -0.5
v 12 18 -3.5
v 12 21 5.5
v 12 21 2.5
v 12 21 -0.5
v 12 24 2.5
v 12 24 -0.5
v 12 27 8.5
v 12 27 5.5
v 12 30 8.5
v 12 30 5.5
v 12 33 5.5
v 12 33 -3.5
v -9 6 8.5
v -9 9 8.5
v -9 18 8.5
v -9 27 8.5
v -9 30 8.5
v -7 15 8.5
v -7 16 8.5
v -6 14 8.5
v -6 15 8.5
v -6 16 8.5
v -6 17 8.5
v -6 30 8.5
v -6 33 8.5
v -5 10 8.5
v -5 14 8.5
v -5 15 8.5
v -5 16 8.5
v -5 17 8.5
v -5 18 8.5
v -4 9 8.5
v -4 10 8.5
v -4 14 8.5
v -4 17 8.5
v -4 18 8.5
v -3 10 8.5
v -3 14 8.5
v -3 16 8.5
v -3 18 8.5
v -2 9 8.5
v -2 14 8.5
v -2 16 8.5
v -2 17 8.5
v -2 18 8.5
v -1 9 8.5
v -1 14 8.5
v -1 16 8.5
v -1 17 8.5
v 1 9 8.5
v 1 14 8.5
v 1 16 8.5
v 1 17 8.5
v 2 9 8.5
v 2 14 8.5
v 2 16 8.5
v 2 17 8.5
v 2 18 8.5
v 3 10 8.5
v 3 14 8.5
v 3 16 8.5
v 3 18 8.5
v 4 9 8.5
v 4 10 8.5
v 4 14 8.5
v 4 17 8.5
v 4 18 8.5
v 5 10 8.5
v 5 14 8.5
v 5 15 8.5
v 5 16 8.5
v 5 17 8.5
v 5 18 8.5
v 6 14 8.5
v 6 15 8.5
v 6 16 8.5
v 6 17 8.5
v 7 15 8.5
v 7 16 8.5
v 9 6 8.5
v 9 9 8.5
v 9 18 8.5
v 9 30 8.5
v 9 33 8.5
v 12 27 8.5
v 12 30 8.5
v -10 18 6.5
v -10 19 6.5
v -9 18 6.5
v -6 18 6.5
v -5 18 6.5
v -3 18 6.5
v -3 19 6.5
v -3 21 6.5
v -2 18 6.5
v -2 19 6.5
v -2 20 6.5
v 2 18 6.5
v 2 19 6.5
v 2 20 6.5
v 3 18 6.5
v 3 19 6.5
v 3 21 6.5
v 5 18 6.5
v 6 18 6.5
v 9 18 6.5
v 10 18 6.5
v 10 19 6.5
v -12 21 5.5
v -12 30 5.5
v -9 3 5.5
v -9 6 5.5
v -9 19 5.5
v -9 21 5.5
v -9 27 5.5
v -9 30 5.5
v -9 33 5.5
v -6 21 5.5
v -6 24 5.5
v -6 30 5.5
v -6 33 5.5
v -6 36 5.5
v -3 3 5.5
v -3 6 5.5
v -3 19 5.5
v -3 21 5.5
v -3 24 5.5
v -2 19 5.5
v -2 20 5.5
v 2 19 5.5
v 2 20 5.5
v 3 3 5.5
v 3 6 5.5
v 3 19 5.5
v 3 21 5.5
v 3 24 5.5
v 6 21 5.5
v 6 24 5.5
v 6 33 5.5
v 6 36 5.5
v 9 3 5.5
v 9 6 5.5
v 9 19 5.5
v 9 21 5.5
v 9 27 5.5
v 9 30 5.5
v 9 33 5.5
v 12 21 5.5
v 12 27 5.5
v 12 30 5.5
v 12 33 5.5
v -12 6 2.5
v -12 9 2.5
v -12 18 2.5
v -12 30 2.5
v -12 33 2.5
v -10 18 2.5
v -9 6 2.5
v -9 9 2.5
v -9 18 2.5
v -9 30 2.5
v -9 33 2.5
v -9 36 2.5
v -6 0 2.5
v -6 3 2.5
v -6 33 2.5
v -6 36 2.5
v -3 0 2.5
v -3 3 2.5
v 3 0 2.5
v 3 3 2.5
v 6 0 2.5
v 6 3 2.5
v 6 33 2.5
v 6 36 2.5
v 9 6 2.5
v 9 9 2.5
v 9 18 2.5
v 9 33 2.5
v 9 36 2.5
v 10 18 2.5
v 12 6 2.5
v 12 9 2.5
v 12 18 2.5
v -10 19 1.5
v -10 21 1.5
v -9 19 1.5
v -9 21 1.5
v 9 19 1.5
v 9 21 1.5
v 10 19 1.5
v 10 21 1.5
v -11 18 0.5
v -11 21 0.5
v -10 18 0.5
v -10 21 0.5
v 10 18 0.5
v 10 21 0.5
v 11 18 0.5
v 11 21 0.5
v -12 18 -0.5
v -12 21 -0.5
v -11 18 -0.5
v -11 21 -0.5
v 11 18 -0.5
v 11 21 -0.5
v 12 18 -0.5
v 12 21 -0.5
v -12 6 -0.5
v -12 9 -0.5
v -12 18 -0.5
v -12 30 -0.5
v -12 33 -0.5
v -9 6 -0.5
v -9 9 -0.5
v -9 18 -0.5
v -9 30 -0.5
v -9 33 -0.5
v -6 0 -0.5
v -6 3 -0.5
v -3 0 -0.5
v -3 3 -0.5
v 3 0 -0.5
v 3 3 -0.5
v 6 0 -0.5
v 6 3 -0.5
v 9 6 -0.5
v 9 9 -0.5
v 9 18 -0.5
v 12 6 -0.5
v 12 9 -0.5
v 12 18 -0.5
v -12 18 -3.5
v -12 30 -3.5
v -9 3 -3.5
v -9 6 -3.5
v -9 18 -3.5
v -9 30 -3.5
v -9 33 -3.5
v -9 36 -3.5
v -6 33 -3.5
v -6 36 -3.5
v -3 3 -3.5
v -3 6 -3.5
v 3 3 -3.5
v 3 6 -3.5
v 6 33 -3.5
v 6 36 -3.5
v 9 3 -3.5
v 9 6 -3.5
v 9 18 -3.5
v 9 33 -3.5
v 9 36 -3.5
v 12 18 -3.5
v 12 33 -3.5
v -9 6 -6.5
v -9 9 -6.5
v -9 18 -6.5
v -9 33 -6.5
v -6 18 -6.5
v -6 33 -6.5
v -6 36 -6.5
v 6 18 -6.5
v 6 33 -6.5
v 6 36 -6.5
v 9 6 -6.5
v 9 9 -6.5
v 9 18 -6.5
v 9 33 -6.5
v -6 18 -9.5
v -6 33 -9.5
v 6 18 -9.5
v 6 33 -9.5
v -6 0 2.5
v -3 0 2.5
v 3 0 2.5
v 6 0 2.5
v -6 0 -0.5
v -3 0 -0.5
v 3 0 -0.5
v 6 0 -0.5
v -9 3 5.5
v -3 3 5.5
v 3 3 5.5
v 9 3 5.5
v -6 3 2.5
v -3 3 2.5
v 3 3 2.5
v 6 3 2.5
v -6 3 -0.5
v -3 3 -0.5
v 3 3 -0.5
v 6 3 -0.5
v -9 3 -3.5
v -3 3 -3.5
v 3 3 -3.5
v 9 3 -3.5
v -9 6 8.5
v 9 6 8.5
v -9 6 5.5
v -3 6 5.5
v 3 6 5.5
v 9 6 5.5
v -12 6 2.5
v -9 6 2.5
v 9 6 2.5
v 12 6 2.5
v -12 6 -0.5
v -9 6 -0.5
v 9 6 -0.5
v 12 6 -0.5
v -9 6 -3.5
v -3 6 -3.5
v 3 6 -3.5
v 9 6 -3.5
v -9 6 -6.5
v 9 6 -6.5
v -10 18 6.5
v -9 18 6.5
v 9 18 6.5
v 10 18 6.5
v -10 18 2.5
v -9 18 2.5
v 9 18 2.5
v 10 18 2.5
v -12 18 -0.5
v -9 18 -0.5
v 9 18 -0.5
v 12 18 -0.5
v -12 18 -3.5
v -9 18 -3.5
v 9 18 -3.5
v 12 18 -3.5
v -6 18 -6.5
v 6 18 -6.5
v -6 18 -9.5
v 6 18 -9.5
v -2 20 6.5
v 2 20 6.5
v -2 20 5.5
v 2 20 5.5
v -12 21 5.5
v -9 21 5.5
v 9 21 5.5
v 12 21 5.5
v -12 21 2.5
v -9 21 2.5
v 9 21 2.5
v 12 21 2.5
v -10 21 1.5
v -9 21 1.5
v 9 21 1.5
v 10 21 1.5
v -11 21 0.5
v -10 21 0.5
v 10 21 0.5
v 11 21 0.5
v -12 21 -0.5
v -11 21 -0.5
v 11 21 -0.5
v 12 21 -0.5
v -9 27 8.5
v 12 27 8.5
v -9 27 5.5
v 9 27 5.5
v 12 27 5.5
v -9 18 8.5
v -5 18 8.5
v -4 18 8.5
v -3 18 8.5
v -2 18 8.5
v 2 18 8.5
v 3 18 8.5
v 4 18 8.5
v 5 18 8.5
v 9 18 8.5
v -6 18 7.5
v -5 18 7.5
v -4 18 7.5
v 4 18 7.5
v 5 18 7.5
v 6 18 7.5
v -9 18 6.5
v -6 18 6.5
v -5 18 6.5
v -3 18 6.5
v -2 18 6.5
v 2 18 6.5
v 3 18 6.5
v 5 18 6.5
v 6 18 6.5
v 9 18 6.5
v -12 18 2.5
v -10 18 2.5
v 10 18 2.5
v 12 18 2.5
v -11 18 0.5
v -10 18 0.5
v 10 18 0.5
v 11 18 0.5
v -12 18 -0.5
v -11 18 -0.5
v 11 18 -0.5
v 12 18 -0.5
v -10 19 6.5
v -3 19 6.5
v -2 19 6.5
v 2 19 6.5
v 3 19 6.5
v 10 19 6.5
v -9 19 5.5
v -3 19 5.5
v -2 19 5.5
v 2 19 5.5
v 3 19 5.5
v 9 19 5.5
v -10 19 1.5
v -9 19 1.5
v 9 19 1.5
v 10 19 1.5
v -3 21 6.5
v 3 21 6.5
v -3 21 5.5
v 3 21 5.5
v -9 30 8.5
v -6 30 8.5
v 9 30 8.5
v 12 30 8.5
v -12 30 5.5
v -9 30 5.5
v -6 30 5.5
v 9 30 5.5
v 12 30 5.5
v -12 30 2.5
v -9 30 2.5
v -12 30 -0.5
v -9 30 -0.5
v -12 30 -3.5
v -9 30 -3.5
v -6 33 8.5
v 9 33 8.5
v -9 33 5.5
v -6 33 5.5
v 6 33 5.5
v 9 33 5.5
v 12 33 5.5
v -12 33 2.5
v -9 33 2.5
v -6 33 2.5
v 6 33 2.5
v 9 33 2.5
v -12 33 -0.5
v -9 33 -0.5
v -9 33 -3.5
v -6 33 -3.5
v 6 33 -3.5
v 9 33 -3.5
v 12 33 -3.5
v -9 33 -6.5
v -6 33 -6.5
v 6 33 -6.5
v 9 33 -6.5
v -6 33 -9.5
v 6 33 -9.5
v -6 36 5.5
v 6 36 5.5
v -9 36 2.5
v -6 36 2.5
v 6 36 2.5
v 9 36 2.5
v -9 36 -3.5
v -6 36 -3.5
v 6 36 -3.5
v 9 36 -3.5
v -6 36 -6.5
v 6 36 -6.5

# faces
f 3/14/1 2/14/1 1/14/1
f 4/14/1 2/14/1 3/14/1
f 5/21/1 4/21/1 3/21/1
f 6/21/1 4/21/1 5/21/1
f 10/26/1 7/26/1 6/26/1
f 11/26/1 9/26/1 8/26/1
f 11/14/1 10/14/1 9/14/1
f 12/26/1 7/26/1 10/26/1
f 12/14/1 10/14/1 11/14/1
f 13/26/1 11/26/1 8/26/1
f 13/26/1 12/26/1 11/26/1
f 14/26/1 12/26/1 13/26/1
f 15/26/1 7/26/1 12/26/1
f 15/26/1 12/26/1 14/26/1
f 16/26/1 7/26/1 15/26/1
f 17/26/1 15/26/1 14/26/1
f 18/26/1 15/26/1 17/26/1
f 21/26/1 20/26/1 19/26/1
f 22/26/1 20/26/1 21/26/1
f 26/26/1 24/26/1 23/26/1
f 26/26/1 25/26/1 24/26/1
f 27/26/1 25/26/1 26/26/1
f 28/26/1 25/26/1 27/26/1
f 29/26/1 25/26/1 28/26/1
f 33/4/1 31/4/1 30/4/1
f 34/4/1 31/4/1 33/4/1
f 35/4/1 31/4/1 34/4/1
f 36/4/1 31/4/1 35/4/1
f 38/4/1 33/4/1 32/4/1
f 38/4/1 34/4/1 33/4/1
f 39/4/1 34/4/1 38/4/1
f 40/4/1 37/4/1 36/4/1
f 40/4/1 36/4/1 35/4/1
f 41/4/1 37/4/1 40/4/1
f 42/21/1 39/21/1 38/21/1
f 43/21/1 39/21/1 42/21/1
f 44/21/1 39/21/1 43/21/1
f 45/21/1 41/21/1 40/21/1
f 46/21/1 41/21/1 45/21/1
f 47/21/1 41/21/1 46/21/1
f 50/14/1 49/14/1 48/14/1
f 51/14/1 49/14/1 50/14/1
f 52/14/1 49/14/1 51/14/1
f 55/26/1 54/26/1 53/26/1
f 56/26/1 54/26/1 55/26/1
f 59/26/1 47/26/1 46/26/1
f 60/26/1 57/26/1 56/26/1
f 61/26/1 57/26/1 60/26/1
f 62/26/1 59/26/1 58/26/1
f 63/26/1 47/26/1 59/26/1
f 63/26/1 59/26/1 62/26/1
f 64/26/1 47/26/1 63/26/1
f 65/26/1 62/26/1 61/26/1
f 65/26/1 63/26/1 62/26/1
f 66/26/1 63/26/1 65/26/1
f 69/26/1 68/26/1 67/26/1
f 70/26/1 68/26/1 69/26/1
f 75/26/1 74/26/1 73/26/1
f 76/26/1 74/26/1 75/26/1
f 79/26/1 72/26/1 71/26/1
f 80/26/1 72/26/1 79/26/1
f 81/26/1 77/26/1 76/26/1
f 82/26/1 77/26/1 81/26/1
f 83/26/1 79/26/1 78/26/1
f 84/26/1 79/26/1 83/26/1
f 87/26/1 86/26/1 85/26/1
f 88/26/1 86/26/1 87/26/1
f 91/26/1 90/26/1 89/26/1
f 92/26/1 90/26/1 91/26/1
f 96/26/1 94/26/1 93/26/1
f 97/26/1 94/26/1 96/26/1
f 99/4/1 96/4/1 95/4/1
f 99/4/1 98/4/1 97/4/1
f 99/4/1 97/4/1 96/4/1
f 100/4/1 98/4/1 99/4/1
f 101/26/2 102/26/2 104/26/2
f 104/26/2 102/26/2 105/26/2
f 103/4/2 104/4/2 107/4/2
f 105/4/2 106/4/2 107/4/2
f 104/4/2 105/4/2 107/4/2
f 107/4/2 106/4/2 108/4/2
f 109/26/2 110/26/2 111/26/2
f 111/26/2 110/26/2 112/26/2
f 113/26/2 114/26/2 115/26/2
f 115/26/2 114/26/2 116/26/2
f 117/26/2 118/26/2 119/26/2
f 119/26/2 118/26/2 120/26/2
f 121/26/2 122/26/2 126/26/2
f 126/26/2 122/26/2 127/26/2
f 123/26/2 124/26/2 128/26/2
f 128/26/2 124/26/2 129/26/2
f 125/26/2 126/26/2 130/26/2
f 130/26/2 126/26/2 131/26/2
f 132/4/2 133/4/2 135/4/2
f 135/4/2 133/4/2 136/4/2
f 136/4/2 133/4/2 137/4/2
f 137/4/2 133/4/2 138/4/2
f 134/4/2 135/4/2 140/4/2
f 135/4/2 136/4/2 140/4/2
f 140/4/2 136/4/2 141/4/2
f 138/4/2 139/4/2 142/4/2
f 137/4/2 138/4/2 142/4/2
f 142/4/2 139/4/2 143/4/2
f 140/21/2 141/21/2 144/21/2
f 144/21/2 141/21/2 145/21/2
f 145/21/2 141/21/2 146/21/2
f 142/21/2 143/21/2 147/21/2
f 147/21/2 143/21/2 148/21/2
f 148/21/2 143/21/2 149/21/2
f 150/14/2 151/14/2 152/14/2
f 152/14/2 151/14/2 153/14/2
f 153/14/2 151/14/2 154/14/2
f 155/26/2 156/26/2 157/26/2
f 157/26/2 156/26/2 158/26/2
f 148/26/2 149/26/2 160/26/2
f 160/26/2 149/26/2 161/26/2
f 159/26/2 160/26/2 162/26/2
f 162/26/2 160/26/2 163/26/2
f 164/26/2 165/26/2 167/26/2
f 165/26/2 166/26/2 167/26/2
f 167/26/2 166/26/2 168/26/2
f 168/26/2 166/26/2 169/26/2
f 169/26/2 166/26/2 170/26/2
f 171/26/2 172/26/2 173/26/2
f 173/26/2 172/26/2 174/26/2
f 175/14/2 176/14/2 177/14/2
f 177/14/2 176/14/2 178/14/2
f 177/21/2 178/21/2 179/21/2
f 179/21/2 178/21/2 180/21/2
f 180/26/2 181/26/2 184/26/2
f 182/26/2 183/26/2 185/26/2
f 183/14/2 184/14/2 185/14/2
f 184/26/2 181/26/2 186/26/2
f 185/14/2 184/14/2 186/14/2
f 182/26/2 185/26/2 188/26/2
f 185/26/2 186/26/2 188/26/2
f 187/26/2 188/26/2 189/26/2
f 188/26/2 186/26/2 190/26/2
f 189/26/2 188/26/2 190/26/2
f 190/26/2 186/26/2 191/26/2
f 186/26/2 181/26/2 192/26/2
f 191/26/2 186/26/2 192/26/2
f 198/21/3 195/21/3 194/21/3
f 199/21/3 195/21/3 198/21/3
f 200/21/3 198/21/3 194/21/3
f 201/5/3 199/5/3 198/5/3
f 201/21/3 198/21/3 200/21/3
f 202/21/3 195/21/3 199/21/3
f 202/5/3 199/5/3 201/5/3
f 203/21/3 195/21/3 202/21/3
f 204/26/3 197/26/3 196/26/3
f 206/21/3 200/21/3 194/21/3
f 207/5/3 201/5/3 200/5/3
f 207/21/3 200/21/3 206/21/3
f 208/21/3 202/21/3 201/21/3
f 208/5/3 201/5/3 207/5/3
f 209/5/3 203/5/3 202/5/3
f 209/21/3 202/21/3 208/21/3
f 210/21/3 195/21/3 203/21/3
f 210/5/3 203/5/3 209/5/3
f 211/21/3 195/21/3 210/21/3
f 212/4/3 194/4/3 193/4/3
f 212/21/3 206/21/3 194/21/3
f 213/5/3 207/5/3 206/5/3
f 213/21/3 206/21/3 212/21/3
f 214/21/3 209/21/3 208/21/3
f 214/5/3 207/5/3 213/5/3
f 214/21/3 208/21/3 207/21/3
f 214/21/3 210/21/3 209/21/3
f 215/5/3 211/5/3 210/5/3
f 215/21/3 210/21/3 214/21/3
f 216/5/3 211/5/3 215/5/3
f 217/5/3 213/5/3 212/5/3
f 217/21/3 214/21/3 213/21/3
f 217/21/3 216/21/3 215/21/3
f 217/21/3 215/21/3 214/21/3
f 218/21/3 216/21/3 217/21/3
f 219/21/3 216/21/3 218/21/3
f 220/21/3 216/21/3 219/21/3
f 221/4/3 212/4/3 193/4/3
f 221/5/3 217/5/3 212/5/3
f 221/5/3 218/5/3 217/5/3
f 222/21/3 219/21/3 218/21/3
f 222/5/3 218/5/3 221/5/3
f 223/5/3 220/5/3 219/5/3
f 223/21/3 219/21/3 222/21/3
f 224/5/3 220/5/3 223/5/3
f 225/5/3 220/5/3 224/5/3
f 226/13/3 222/13/3 221/13/3
f 226/4/3 221/4/3 193/4/3
f 227/5/3 223/5/3 222/5/3
f 227/13/3 222/13/3 226/13/3
f 228/13/3 224/13/3 223/13/3
f 228/5/3 223/5/3 227/5/3
f 229/3/3 225/3/3 224/3/3
f 229/13/3 224/13/3 228/13/3
f 230/3/3 228/3/3 227/3/3
f 230/4/3 226/4/3 193/4/3
f 230/3/3 229/3/3 228/3/3
f 230/3/3 227/3/3 226/3/3
f 231/3/3 229/3/3 230/3/3
f 232/3/3 229/3/3 231/3/3
f 233/3/3 225/3/3 229/3/3
f 233/3/3 229/3/3 232/3/3
f 234/4/3 230/4/3 193/4/3
f 234/13/3 231/13/3 230/13/3
f 235/5/3 232/5/3 231/5/3
f 235/13/3 231/13/3 234/13/3
f 236/13/3 233/13/3 232/13/3
f 236/5/3 232/5/3 235/5/3
f 237/3/3 225/3/3 233/3/3
f 237/13/3 233/13/3 236/13/3
f 238/3/3 225/3/3 237/3/3
f 239/5/3 235/5/3 234/5/3
f 240/21/3 236/21/3 235/21/3
f 240/5/3 235/5/3 239/5/3
f 241/5/3 237/5/3 236/5/3
f 241/21/3 236/21/3 240/21/3
f 241/5/3 238/5/3 237/5/3
f 242/5/3 238/5/3 241/5/3
f 243/4/3 234/4/3 193/4/3
f 243/5/3 239/5/3 234/5/3
f 244/21/3 242/21/3 241/21/3
f 244/5/3 239/5/3 243/5/3
f 244/21/3 240/21/3 239/21/3
f 244/21/3 241/21/3 240/21/3
f 245/21/3 242/21/3 244/21/3
f 246/21/3 242/21/3 245/21/3
f 247/21/3 242/21/3 246/21/3
f 248/21/3 244/21/3 243/21/3
f 248/5/3 245/5/3 244/5/3
f 249/21/3 246/21/3 245/21/3
f 249/5/3 245/5/3 248/5/3
f 250/21/3 246/21/3 249/21/3
f 251/21/3 246/21/3 250/21/3
f 252/5/3 247/5/3 246/5/3
f 252/21/3 246/21/3 251/21/3
f 253/5/3 247/5/3 252/5/3
f 254/21/3 249/21/3 248/21/3
f 254/5/3 250/5/3 249/5/3
f 255/21/3 251/21/3 250/21/3
f 255/5/3 250/5/3 254/5/3
f 256/5/3 252/5/3 251/5/3
f 256/21/3 251/21/3 255/21/3
f 257/21/3 253/21/3 252/21/3
f 257/5/3 252/5/3 256/5/3
f 258/5/3 256/5/3 255/5/3
f 258/21/3 255/21/3 254/21/3
f 259/21/3 257/21/3 256/21/3
f 259/5/3 256/5/3 258/5/3
f 260/4/3 243/4/3 193/4/3
f 261/21/3 254/21/3 248/21/3
f 261/4/3 243/4/3 260/4/3
f 261/21/3 248/21/3 243/21/3
f 261/21/3 259/21/3 258/21/3
f 261/21/3 258/21/3 254/21/3
f 262/21/3 257/21/3 259/21/3
f 262/21/3 259/21/3 261/21/3
f 262/21/3 253/21/3 257/21/3
f 263/26/3 204/26/3 196/26/3
f 263/26/3 205/26/3 204/26/3
f 264/26/3 205/26/3 263/26/3
f 265/26/3 263/26/3 196/26/3
f 266/26/3 263/26/3 265/26/3
f 269/26/3 268/26/3 267/26/3
f 270/26/3 268/26/3 269/26/3
f 271/26/3 268/26/3 270/26/3
f 272/26/3 268/26/3 271/26/3
f 273/26/3 268/26/3 272/26/3
f 275/26/3 273/26/3 272/26/3
f 275/26/3 274/26/3 273/26/3
f 276/26/3 274/26/3 275/26/3
f 277/26/3 274/26/3 276/26/3
f 278/26/3 276/26/3 275/26/3
f 279/26/3 276/26/3 278/26/3
f 280/26/3 274/26/3 277/26/3
f 281/26/3 279/26/3 278/26/3
f 281/26/3 280/26/3 279/26/3
f 282/26/3 280/26/3 281/26/3
f 283/26/3 274/26/3 280/26/3
f 283/26/3 280/26/3 282/26/3
f 284/26/3 282/26/3 281/26/3
f 285/26/3 282/26/3 284/26/3
f 286/26/3 282/26/3 285/26/3
f 287/26/3 282/26/3 286/26/3
f 288/26/3 282/26/3 287/26/3
f 294/26/3 290/26/3 289/26/3
f 295/26/3 290/26/3 294/26/3
f 296/26/3 290/26/3 295/26/3
f 298/14/3 294/14/3 293/14/3
f 298/14/3 295/14/3 294/14/3
f 299/14/3 295/14/3 298/14/3
f 300/26/3 297/26/3 296/26/3
f 301/26/3 297/26/3 300/26/3
f 303/4/3 292/4/3 291/4/3
f 304/4/3 292/4/3 303/4/3
f 305/14/3 298/14/3 293/14/3
f 306/6/3 299/6/3 298/6/3
f 306/14/3 298/14/3 305/14/3
f 307/14/3 295/14/3 299/14/3
f 307/6/3 299/6/3 306/6/3
f 310/12/3 309/12/3 308/12/3
f 311/12/3 309/12/3 310/12/3
f 315/14/3 307/14/3 306/14/3
f 316/14/3 295/14/3 307/14/3
f 316/14/3 307/14/3 315/14/3
f 317/14/3 315/14/3 314/14/3
f 317/6/3 316/6/3 315/6/3
f 318/14/3 295/14/3 316/14/3
f 318/6/3 316/6/3 317/6/3
f 319/26/3 302/26/3 301/26/3
f 320/26/3 302/26/3 319/26/3
f 321/4/3 313/4/3 312/4/3
f 322/4/3 313/4/3 321/4/3
f 323/14/3 317/14/3 314/14/3
f 323/14/3 318/14/3 317/14/3
f 324/14/3 318/14/3 323/14/3
f 325/14/3 295/14/3 318/14/3
f 325/14/3 318/14/3 324/14/3
f 328/26/3 325/26/3 324/26/3
f 329/26/3 325/26/3 328/26/3
f 330/26/3 327/26/3 326/26/3
f 331/26/3 327/26/3 330/26/3
f 337/21/3 334/21/3 333/21/3
f 338/14/3 333/14/3 332/14/3
f 339/21/3 337/21/3 333/21/3
f 339/14/3 333/14/3 338/14/3
f 340/21/3 337/21/3 339/21/3
f 341/26/3 336/26/3 335/26/3
f 342/26/3 336/26/3 341/26/3
f 346/26/3 343/26/3 342/26/3
f 347/26/3 343/26/3 346/26/3
f 348/26/3 345/26/3 344/26/3
f 349/26/3 345/26/3 348/26/3
f 352/26/3 351/26/3 350/26/3
f 353/26/3 351/26/3 352/26/3
f 359/26/3 355/26/3 354/26/3
f 360/26/3 355/26/3 359/26/3
f 361/21/3 358/21/3 357/21/3
f 362/14/3 357/14/3 356/14/3
f 363/21/3 361/21/3 357/21/3
f 363/14/3 357/14/3 362/14/3
f 364/21/3 361/21/3 363/21/3
f 367/26/3 366/26/3 365/26/3
f 368/26/3 366/26/3 367/26/3
f 371/26/3 370/26/3 369/26/3
f 372/26/3 370/26/3 371/26/3
f 375/26/3 374/26/3 373/26/3
f 376/26/3 374/26/3 375/26/3
f 379/26/3 378/26/3 377/26/3
f 380/26/3 378/26/3 379/26/3
f 383/26/3 382/26/3 381/26/3
f 384/26/3 382/26/3 383/26/3
f 387/26/3 386/26/3 385/26/3
f 388/26/3 386/26/3 387/26/3
f 389/14/4 390/14/4 394/14/4
f 390/21/4 391/21/4 395/21/4
f 394/14/4 390/14/4 395/14/4
f 395/21/4 391/21/4 396/21/4
f 392/26/4 393/26/4 397/26/4
f 397/26/4 393/26/4 398/26/4
f 399/26/4 400/26/4 401/26/4
f 401/26/4 400/26/4 402/26/4
f 403/26/4 404/26/4 405/26/4
f 405/26/4 404/26/4 406/26/4
f 407/14/4 408/14/4 410/14/4
f 408/21/4 409/21/4 411/21/4
f 410/14/4 408/14/4 411/14/4
f 411/21/4 409/21/4 412/21/4
f 413/26/4 414/26/4 417/26/4
f 417/26/4 414/26/4 418/26/4
f 419/26/4 420/26/4 421/26/4
f 421/26/4 420/26/4 422/26/4
f 415/4/4 416/4/4 423/4/4
f 423/4/4 416/4/4 424/4/4
f 425/4/4 426/4/4 429/4/4
f 429/4/4 426/4/4 430/4/4
f 427/26/4 428/26/4 432/26/4
f 432/26/4 428/26/4 433/26/4
f 431/26/4 432/26/4 434/26/4
f 434/26/4 432/26/4 435/26/4
f 437/21/4 438/21/4 440/21/4
f 438/26/4 439/26/4 440/26/4
f 440/26/4 439/26/4 441/26/4
f 437/21/4 440/21/4 443/21/4
f 441/26/4 442/26/4 444/26/4
f 444/26/4 442/26/4 445/26/4
f 436/4/4 437/4/4 446/4/4
f 437/21/4 443/21/4 447/21/4
f 446/4/4 437/4/4 447/4/4
f 443/26/4 444/26/4 448/26/4
f 447/21/4 443/21/4 448/21/4
f 448/26/4 444/26/4 449/26/4
f 450/26/4 451/26/4 452/26/4
f 452/26/4 451/26/4 453/26/4
f 458/26/5 455/26/5 454/26/5
f 459/26/5 455/26/5 458/26/5
f 460/26/5 457/26/5 456/26/5
f 461/26/5 457/26/5 460/26/5
f 466/4/5 463/4/5 462/4/5
f 467/4/5 463/4/5 466/4/5
f 468/4/5 465/4/5 464/4/5
f 469/4/5 465/4/5 468/4/5
f 470/4/5 466/4/5 462/4/5
f 473/4/5 465/4/5 469/4/5
f 474/4/5 471/4/5 470/4/5
f 474/4/5 470/4/5 462/4/5
f 475/4/5 471/4/5 474/4/5
f 476/4/5 473/4/5 472/4/5
f 477/4/5 465/4/5 473/4/5
f 477/4/5 473/4/5 476/4/5
f 480/4/5 479/4/5 478/4/5
f 481/4/5 479/4/5 480/4/5
f 482/4/5 479/4/5 481/4/5
f 483/4/5 479/4/5 482/4/5
f 488/14/5 485/14/5 484/14/5
f 489/14/5 485/14/5 488/14/5
f 490/14/5 487/14/5 486/14/5
f 491/14/5 487/14/5 490/14/5
f 493/4/5 482/4/5 481/4/5
f 494/4/5 482/4/5 493/4/5
f 496/4/5 493/4/5 492/4/5
f 496/4/5 495/4/5 494/4/5
f 496/4/5 494/4/5 493/4/5
f 497/4/5 495/4/5 496/4/5
f 502/26/5 499/26/5 498/26/5
f 503/26/5 499/26/5 502/26/5
f 504/26/5 501/26/5 500/26/5
f 505/26/5 501/26/5 504/26/5
f 510/26/5 507/26/5 506/26/5
f 511/26/5 507/26/5 510/26/5
f 512/26/5 509/26/5 508/26/5
f 513/26/5 509/26/5 512/26/5
f 516/26/5 515/26/5 514/26/5
f 517/26/5 515/26/5 516/26/5
f 520/26/5 519/26/5 518/26/5
f 521/26/5 519/26/5 520/26/5
f 526/26/5 523/26/5 522/26/5
f 527/26/5 523/26/5 526/26/5
f 528/26/5 525/26/5 524/26/5
f 529/26/5 525/26/5 528/26/5
f 530/14/5 527/14/5 526/14/5
f 531/14/5 527/14/5 530/14/5
f 532/14/5 529/14/5 528/14/5
f 533/14/5 529/14/5 532/14/5
f 534/14/5 530/14/5 526/14/5
f 535/14/5 530/14/5 534/14/5
f 536/14/5 529/14/5 533/14/5
f 537/14/5 529/14/5 536/14/5
f 538/14/5 534/14/5 526/14/5
f 539/14/5 534/14/5 538/14/5
f 540/14/5 529/14/5 537/14/5
f 541/14/5 529/14/5 540/14/5
f 544/26/5 543/26/5 542/26/5
f 545/26/5 543/26/5 544/26/5
f 546/26/5 543/26/5 545/26/5
f 547/21/6 548/21/6 557/21/6
f 548/5/6 549/5/6 558/5/6
f 557/21/6 548/21/6 558/21/6
f 549/21/6 550/21/6 559/21/6
f 558/5/6 549/5/6 559/5/6
f 553/21/6 554/21/6 560/21/6
f 554/5/6 555/5/6 560/5/6
f 555/21/6 556/21/6 561/21/6
f 560/5/6 555/5/6 561/5/6
f 561/21/6 556/21/6 562/21/6
f 547/21/6 557/21/6 563/21/6
f 557/5/6 558/5/6 564/5/6
f 563/21/6 557/21/6 564/21/6
f 558/21/6 559/21/6 565/21/6
f 564/5/6 558/5/6 565/5/6
f 550/5/6 551/5/6 566/5/6
f 565/21/6 559/21/6 566/21/6
f 559/21/6 550/21/6 566/21/6
f 551/3/6 552/3/6 567/3/6
f 566/5/6 551/5/6 567/5/6
f 552/5/6 553/5/6 568/5/6
f 567/3/6 552/3/6 568/3/6
f 553/21/6 560/21/6 569/21/6
f 568/5/6 553/5/6 569/5/6
f 560/21/6 561/21/6 569/21/6
f 561/22/6 562/22/6 570/22/6
f 569/21/6 561/21/6 570/21/6
f 562/21/6 556/21/6 571/21/6
f 570/22/6 562/22/6 571/22/6
f 571/21/6 556/21/6 572/21/6
f 573/21/6 574/21/6 577/21/6
f 577/21/6 574/21/6 578/21/6
f 575/21/6 576/21/6 579/21/6
f 579/21/6 576/21/6 580/21/6
f 573/21/6 577/21/6 581/21/6
f 581/21/6 577/21/6 582/21/6
f 580/21/6 576/21/6 583/21/6
f 583/21/6 576/21/6 584/21/6
f 585/26/6 586/26/6 591/26/6
f 591/26/6 586/26/6 592/26/6
f 587/26/6 588/26/6 593/26/6
f 593/26/6 588/26/6 594/26/6
f 589/26/6 590/26/6 595/26/6
f 595/26/6 590/26/6 596/26/6
f 585/26/6 591/26/6 597/26/6
f 597/26/6 591/26/6 598/26/6
f 596/26/6 590/26/6 599/26/6
f 599/26/6 590/26/6 600/26/6
f 601/26/6 602/26/6 603/26/6
f 603/26/6 602/26/6 604/26/6
f 605/26/6 606/26/6 610/26/6
f 610/26/6 606/26/6 611/26/6
f 607/26/6 608/26/6 612/26/6
f 612/26/6 608/26/6 613/26/6
f 609/26/6 610/26/6 614/26/6
f 614/26/6 610/26/6 615/26/6
f 616/26/6 617/26/6 618/26/6
f 618/26/6 617/26/6 619/26/6
f 620/26/6 621/26/6 623/26/6
f 623/26/6 621/26/6 624/26/6
f 624/26/6 621/26/6 625/26/6
f 622/26/6 623/26/6 628/26/6
f 628/26/6 623/26/6 629/26/6
f 624/26/6 625/26/6 630/26/6
f 625/26/6 626/26/6 630/26/6
f 630/26/6 626/26/6 631/26/6
f 627/26/6 628/26/6 632/26/6
f 632/26/6 628/26/6 633/26/6
f 631/26/6 626/26/6 637/26/6
f 637/26/6 626/26/6 638/26/6
f 634/26/6 635/26/6 639/26/6
f 639/26/6 635/26/6 640/26/6
f 636/26/6 637/26/6 641/26/6
f 641/26/6 637/26/6 642/26/6
f 640/26/6 641/26/6 643/26/6
f 643/26/6 641/26/6 644/26/6
f 645/26/6 646/26/6 648/26/6
f 648/26/6 646/26/6 649/26/6
f 647/26/6 648/26/6 651/26/6
f 649/26/6 650/26/6 651/26/6
f 648/26/6 649/26/6 651/26/6
f 651/26/6 650/26/6 652/26/6
f 652/26/6 650/26/6 653/26/6
f 653/26/6 650/26/6 654/26/6
f 652/26/6 653/26/6 655/26/6
f 655/26/6 653/26/6 656/26/6
